M48
; DRILL file {KiCad (6.0.6)} date Thu Sep 15 18:56:01 2022
; FORMAT={-:-/ absolute / metric / decimal}
; #@! TF.CreationDate,2022-09-15T18:56:01+02:00
; #@! TF.GenerationSoftware,Kicad,Pcbnew,(6.0.6)
; #@! TF.FileFunction,Plated,1,2,PTH
FMAT,2
METRIC
; #@! TA.AperFunction,Plated,PTH,ViaDrill
T1C0.400
; #@! TA.AperFunction,Plated,PTH,ComponentDrill
T2C0.800
; #@! TA.AperFunction,Plated,PTH,ComponentDrill
T3C0.900
; #@! TA.AperFunction,Plated,PTH,ComponentDrill
T4C1.000
%
G90
G05
T1
X167.835Y-87.078
X168.819Y-84.933
X173.72Y-108.506
X202.843Y-107.98
T2
X142.875Y-99.1
X142.875Y-104.1
X147.95Y-97.78
X147.95Y-105.4
X150.49Y-97.78
X150.49Y-105.4
X151.13Y-86.995
X151.13Y-94.615
X153.03Y-97.78
X153.03Y-105.4
X155.57Y-97.78
X155.57Y-105.4
X156.21Y-86.995
X156.21Y-94.615
X158.11Y-97.78
X158.11Y-105.4
X160.65Y-97.78
X160.65Y-105.4
X161.29Y-86.995
X161.29Y-94.615
X163.19Y-97.78
X163.19Y-105.4
X165.73Y-97.78
X165.73Y-105.4
X166.37Y-86.995
X166.37Y-94.615
X171.45Y-86.995
X171.45Y-94.615
X173.355Y-99.1
X173.355Y-104.1
X178.44Y-97.78
X178.44Y-105.4
X180.98Y-97.78
X180.98Y-105.4
X183.52Y-97.78
X183.52Y-105.4
X186.06Y-97.78
X186.06Y-105.4
X188.6Y-97.78
X188.6Y-105.4
X191.14Y-97.78
X191.14Y-105.4
X193.68Y-97.78
X193.68Y-105.4
T3
X130.17Y-88.9
X132.71Y-88.9
X137.795Y-88.9
X140.335Y-88.9
T4
X131.445Y-103.505
X131.445Y-106.045
X131.445Y-108.585
X144.51Y-115.795
X144.51Y-120.795
X147.049Y-115.795
X147.049Y-120.795
X149.589Y-115.795
X149.589Y-120.795
X152.13Y-115.795
X152.13Y-120.795
X154.669Y-115.795
X154.669Y-120.795
X157.209Y-115.795
X157.209Y-120.795
X159.749Y-115.795
X159.749Y-120.795
X162.29Y-115.795
X162.29Y-120.795
X164.47Y-79.38
X164.47Y-81.92
X164.829Y-115.795
X164.829Y-120.795
X167.01Y-79.38
X167.01Y-81.92
X167.369Y-115.795
X167.369Y-120.795
X169.55Y-79.38
X169.55Y-81.92
X169.909Y-115.795
X169.909Y-120.795
X172.09Y-79.38
X172.09Y-81.92
X172.45Y-115.795
X172.45Y-120.795
X174.63Y-79.38
X174.63Y-81.92
X174.989Y-115.795
X174.989Y-120.795
X177.17Y-79.38
X177.17Y-81.92
X177.529Y-115.795
X177.529Y-120.795
X179.71Y-79.38
X179.71Y-81.92
X180.07Y-115.795
X180.07Y-120.795
X182.25Y-79.38
X182.25Y-81.92
X182.609Y-115.795
X182.609Y-120.795
X184.79Y-79.38
X184.79Y-81.92
X185.149Y-115.795
X185.149Y-120.795
X187.33Y-79.38
X187.33Y-81.92
X187.689Y-115.795
X187.689Y-120.795
X189.87Y-79.38
X189.87Y-81.92
X190.23Y-115.795
X190.23Y-120.795
X192.41Y-79.38
X192.41Y-81.92
X192.769Y-115.795
X192.769Y-120.795
X194.95Y-79.38
X194.95Y-81.92
X195.309Y-115.795
X195.309Y-120.795
X197.49Y-79.38
X197.49Y-81.92
X197.849Y-115.795
X197.849Y-120.795
X200.03Y-79.38
X200.03Y-81.92
X200.389Y-115.795
X200.389Y-120.795
X202.57Y-79.38
X202.57Y-81.92
X202.929Y-115.795
X202.929Y-120.795
X204.47Y-101.6
X204.47Y-104.14
X205.11Y-79.38
X205.11Y-81.92
X205.469Y-115.795
X205.469Y-120.795
X207.65Y-79.38
X207.65Y-81.92
X210.19Y-79.38
X210.19Y-81.92
X212.09Y-100.965
X212.09Y-103.505
X212.73Y-79.38
X212.73Y-81.92
T0
M30
