M48
; DRILL file {KiCad (6.0.6)} date Wed Aug 31 17:59:31 2022
; FORMAT={-:-/ absolute / metric / decimal}
; #@! TF.CreationDate,2022-08-31T17:59:31+02:00
; #@! TF.GenerationSoftware,Kicad,Pcbnew,(6.0.6)
; #@! TF.FileFunction,Plated,1,2,PTH
FMAT,2
METRIC
; #@! TA.AperFunction,Plated,PTH,ViaDrill
T1C0.400
; #@! TA.AperFunction,Plated,PTH,ComponentDrill
T2C0.800
; #@! TA.AperFunction,Plated,PTH,ComponentDrill
T3C0.900
; #@! TA.AperFunction,Plated,PTH,ComponentDrill
T4C1.000
%
G90
G05
T1
X184.358Y-88.898
X208.793Y-108.339
T2
X168.275Y-88.9
X168.275Y-96.52
X173.355Y-88.9
X173.355Y-96.52
X173.355Y-101.6
X173.355Y-109.22
X178.435Y-88.9
X178.435Y-96.52
X178.435Y-101.6
X178.435Y-109.22
X184.785Y-102.91
X184.785Y-107.91
X187.96Y-89.575
X187.96Y-94.575
X189.88Y-101.59
X189.88Y-109.21
X192.4Y-88.255
X192.4Y-95.875
X192.42Y-101.59
X192.42Y-109.21
X194.94Y-88.255
X194.94Y-95.875
X194.96Y-101.59
X194.96Y-109.21
X197.48Y-88.255
X197.48Y-95.875
X197.5Y-101.59
X197.5Y-109.21
X200.02Y-88.255
X200.02Y-95.875
X200.04Y-101.59
X200.04Y-109.21
X202.56Y-88.255
X202.56Y-95.875
X202.58Y-101.59
X202.58Y-109.21
X205.1Y-88.255
X205.1Y-95.875
X205.12Y-101.59
X205.12Y-109.21
X207.64Y-88.255
X207.64Y-95.875
X207.66Y-101.59
X207.66Y-109.21
T3
X166.365Y-107.95
X166.37Y-101.6
X168.905Y-107.95
X168.91Y-101.6
T4
X164.47Y-79.38
X164.47Y-81.92
X167.01Y-79.38
X167.01Y-81.92
X169.545Y-115.688
X169.545Y-118.227
X169.55Y-79.38
X169.55Y-81.92
X172.085Y-115.688
X172.085Y-118.227
X172.09Y-79.38
X172.09Y-81.92
X174.625Y-115.688
X174.625Y-118.227
X174.63Y-79.38
X174.63Y-81.92
X177.165Y-115.688
X177.165Y-118.227
X177.17Y-79.38
X177.17Y-81.92
X179.705Y-115.688
X179.705Y-118.227
X179.71Y-79.38
X179.71Y-81.92
X182.245Y-115.688
X182.245Y-118.227
X182.25Y-79.38
X182.25Y-81.92
X184.785Y-115.688
X184.785Y-118.227
X184.79Y-79.38
X184.79Y-81.92
X187.325Y-115.688
X187.325Y-118.227
X187.33Y-79.38
X187.33Y-81.92
X189.865Y-115.688
X189.865Y-118.227
X189.87Y-79.38
X189.87Y-81.92
X192.405Y-115.688
X192.405Y-118.227
X192.41Y-79.38
X192.41Y-81.92
X194.945Y-115.688
X194.945Y-118.227
X194.95Y-79.38
X194.95Y-81.92
X197.485Y-115.688
X197.485Y-118.227
X197.49Y-79.38
X197.49Y-81.92
X200.025Y-115.688
X200.025Y-118.227
X200.03Y-79.38
X200.03Y-81.92
X202.565Y-115.688
X202.565Y-118.227
X202.57Y-79.38
X202.57Y-81.92
X205.105Y-115.688
X205.105Y-118.227
X205.11Y-79.38
X205.11Y-81.92
X207.645Y-115.688
X207.645Y-118.227
X207.65Y-79.38
X207.65Y-81.92
X210.185Y-115.688
X210.185Y-118.227
X210.19Y-79.38
X210.19Y-81.92
X212.73Y-79.38
X212.73Y-81.92
X213.97Y-89.515
X213.97Y-92.055
X213.995Y-100.965
X213.995Y-103.505
T0
M30
