%FSLAX45Y45*%
G04 Gerber Fmt 4.5, Leading zero omitted, Abs format (unit mm)*
G04 Created by KiCad (PCBNEW (6.0.6)) date 2022-09-15 18:56:02*
%MOMM*%
%LPD*%
G01*
G04 APERTURE LIST*
%TA.AperFunction,Profile*%
%ADD10C,0.050000*%
%TD*%
%ADD11C,0.200000*%
G04 APERTURE END LIST*
D10*
X12646000Y-10287000D02*
G75*
G03*
X12646000Y-10287000I-200000J0D01*
G01*
X20393000Y-9144000D02*
G75*
G03*
X20393000Y-9144000I-200000J0D01*
G01*
X11874500Y-8191500D02*
X11874500Y-12446000D01*
X22225000Y-6350000D02*
X22225000Y-12446000D01*
X11874500Y-12446000D02*
X22225000Y-12446000D01*
X11874500Y-8191500D02*
X22225000Y-6350000D01*
D11*
X12129619Y-12758976D02*
X12129619Y-12558976D01*
X12177238Y-12558976D01*
X12205809Y-12568500D01*
X12224857Y-12587548D01*
X12234381Y-12606595D01*
X12243905Y-12644690D01*
X12243905Y-12673262D01*
X12234381Y-12711357D01*
X12224857Y-12730405D01*
X12205809Y-12749452D01*
X12177238Y-12758976D01*
X12129619Y-12758976D01*
X12329619Y-12758976D02*
X12329619Y-12625643D01*
X12329619Y-12663738D02*
X12339143Y-12644690D01*
X12348667Y-12635167D01*
X12367714Y-12625643D01*
X12386762Y-12625643D01*
X12453428Y-12758976D02*
X12453428Y-12625643D01*
X12453428Y-12558976D02*
X12443905Y-12568500D01*
X12453428Y-12578024D01*
X12462952Y-12568500D01*
X12453428Y-12558976D01*
X12453428Y-12578024D01*
X12577238Y-12758976D02*
X12558190Y-12749452D01*
X12548667Y-12730405D01*
X12548667Y-12558976D01*
X12682000Y-12758976D02*
X12662952Y-12749452D01*
X12653428Y-12730405D01*
X12653428Y-12558976D01*
X12910571Y-12758976D02*
X12910571Y-12558976D01*
X12977238Y-12701833D01*
X13043905Y-12558976D01*
X13043905Y-12758976D01*
X13224857Y-12758976D02*
X13224857Y-12654214D01*
X13215333Y-12635167D01*
X13196286Y-12625643D01*
X13158190Y-12625643D01*
X13139143Y-12635167D01*
X13224857Y-12749452D02*
X13205809Y-12758976D01*
X13158190Y-12758976D01*
X13139143Y-12749452D01*
X13129619Y-12730405D01*
X13129619Y-12711357D01*
X13139143Y-12692309D01*
X13158190Y-12682786D01*
X13205809Y-12682786D01*
X13224857Y-12673262D01*
X13320095Y-12625643D02*
X13320095Y-12825643D01*
X13320095Y-12635167D02*
X13339143Y-12625643D01*
X13377238Y-12625643D01*
X13396286Y-12635167D01*
X13405809Y-12644690D01*
X13415333Y-12663738D01*
X13415333Y-12720881D01*
X13405809Y-12739928D01*
X13396286Y-12749452D01*
X13377238Y-12758976D01*
X13339143Y-12758976D01*
X13320095Y-12749452D01*
X13501048Y-12739928D02*
X13510571Y-12749452D01*
X13501048Y-12758976D01*
X13491524Y-12749452D01*
X13501048Y-12739928D01*
X13501048Y-12758976D01*
X13501048Y-12635167D02*
X13510571Y-12644690D01*
X13501048Y-12654214D01*
X13491524Y-12644690D01*
X13501048Y-12635167D01*
X13501048Y-12654214D01*
M02*
