G04 #@! TF.GenerationSoftware,KiCad,Pcbnew,(6.0.6)*
G04 #@! TF.CreationDate,2022-08-31T17:59:28+02:00*
G04 #@! TF.ProjectId,PC128S_IDE,50433132-3853-45f4-9944-452e6b696361,rev?*
G04 #@! TF.SameCoordinates,Original*
G04 #@! TF.FileFunction,Copper,L1,Top*
G04 #@! TF.FilePolarity,Positive*
%FSLAX46Y46*%
G04 Gerber Fmt 4.6, Leading zero omitted, Abs format (unit mm)*
G04 Created by KiCad (PCBNEW (6.0.6)) date 2022-08-31 17:59:28*
%MOMM*%
%LPD*%
G01*
G04 APERTURE LIST*
G04 Aperture macros list*
%AMRoundRect*
0 Rectangle with rounded corners*
0 $1 Rounding radius*
0 $2 $3 $4 $5 $6 $7 $8 $9 X,Y pos of 4 corners*
0 Add a 4 corners polygon primitive as box body*
4,1,4,$2,$3,$4,$5,$6,$7,$8,$9,$2,$3,0*
0 Add four circle primitives for the rounded corners*
1,1,$1+$1,$2,$3*
1,1,$1+$1,$4,$5*
1,1,$1+$1,$6,$7*
1,1,$1+$1,$8,$9*
0 Add four rect primitives between the rounded corners*
20,1,$1+$1,$2,$3,$4,$5,0*
20,1,$1+$1,$4,$5,$6,$7,0*
20,1,$1+$1,$6,$7,$8,$9,0*
20,1,$1+$1,$8,$9,$2,$3,0*%
G04 Aperture macros list end*
G04 #@! TA.AperFunction,ComponentPad*
%ADD10RoundRect,0.250000X0.600000X-0.600000X0.600000X0.600000X-0.600000X0.600000X-0.600000X-0.600000X0*%
G04 #@! TD*
G04 #@! TA.AperFunction,ComponentPad*
%ADD11C,1.700000*%
G04 #@! TD*
G04 #@! TA.AperFunction,ComponentPad*
%ADD12R,1.800000X1.800000*%
G04 #@! TD*
G04 #@! TA.AperFunction,ComponentPad*
%ADD13C,1.800000*%
G04 #@! TD*
G04 #@! TA.AperFunction,ComponentPad*
%ADD14R,1.700000X1.700000*%
G04 #@! TD*
G04 #@! TA.AperFunction,ComponentPad*
%ADD15O,1.700000X1.700000*%
G04 #@! TD*
G04 #@! TA.AperFunction,ComponentPad*
%ADD16C,1.600000*%
G04 #@! TD*
G04 #@! TA.AperFunction,ComponentPad*
%ADD17O,1.600000X1.600000*%
G04 #@! TD*
G04 #@! TA.AperFunction,ComponentPad*
%ADD18R,1.600000X1.600000*%
G04 #@! TD*
G04 #@! TA.AperFunction,ViaPad*
%ADD19C,0.800000*%
G04 #@! TD*
G04 #@! TA.AperFunction,Conductor*
%ADD20C,0.250000*%
G04 #@! TD*
G04 APERTURE END LIST*
D10*
X169545000Y-118227500D03*
D11*
X169545000Y-115687500D03*
X172085000Y-118227500D03*
X172085000Y-115687500D03*
X174625000Y-118227500D03*
X174625000Y-115687500D03*
X177165000Y-118227500D03*
X177165000Y-115687500D03*
X179705000Y-118227500D03*
X179705000Y-115687500D03*
X182245000Y-118227500D03*
X182245000Y-115687500D03*
X184785000Y-118227500D03*
X184785000Y-115687500D03*
X187325000Y-118227500D03*
X187325000Y-115687500D03*
X189865000Y-118227500D03*
X189865000Y-115687500D03*
X192405000Y-118227500D03*
X192405000Y-115687500D03*
X194945000Y-118227500D03*
X194945000Y-115687500D03*
X197485000Y-118227500D03*
X197485000Y-115687500D03*
X200025000Y-118227500D03*
X200025000Y-115687500D03*
X202565000Y-118227500D03*
X202565000Y-115687500D03*
X205105000Y-118227500D03*
X205105000Y-115687500D03*
X207645000Y-118227500D03*
X207645000Y-115687500D03*
X210185000Y-118227500D03*
X210185000Y-115687500D03*
D12*
X166370000Y-101600000D03*
D13*
X168910000Y-101600000D03*
D12*
X166365000Y-107950000D03*
D13*
X168905000Y-107950000D03*
D14*
X213995000Y-100965000D03*
D15*
X213995000Y-103505000D03*
D16*
X173355000Y-96520000D03*
D17*
X173355000Y-88900000D03*
D14*
X213970000Y-92055000D03*
D15*
X213970000Y-89515000D03*
D18*
X192400000Y-95875000D03*
D17*
X194940000Y-95875000D03*
X197480000Y-95875000D03*
X200020000Y-95875000D03*
X202560000Y-95875000D03*
X205100000Y-95875000D03*
X207640000Y-95875000D03*
X207640000Y-88255000D03*
X205100000Y-88255000D03*
X202560000Y-88255000D03*
X200020000Y-88255000D03*
X197480000Y-88255000D03*
X194940000Y-88255000D03*
X192400000Y-88255000D03*
D16*
X187960000Y-94575000D03*
X187960000Y-89575000D03*
X168275000Y-88900000D03*
D17*
X168275000Y-96520000D03*
D18*
X189880000Y-109210000D03*
D17*
X192420000Y-109210000D03*
X194960000Y-109210000D03*
X197500000Y-109210000D03*
X200040000Y-109210000D03*
X202580000Y-109210000D03*
X205120000Y-109210000D03*
X207660000Y-109210000D03*
X207660000Y-101590000D03*
X205120000Y-101590000D03*
X202580000Y-101590000D03*
X200040000Y-101590000D03*
X197500000Y-101590000D03*
X194960000Y-101590000D03*
X192420000Y-101590000D03*
X189880000Y-101590000D03*
D16*
X184785000Y-107910000D03*
X184785000Y-102910000D03*
D14*
X164470000Y-81920000D03*
D15*
X164470000Y-79380000D03*
X167010000Y-81920000D03*
X167010000Y-79380000D03*
X169550000Y-81920000D03*
X169550000Y-79380000D03*
X172090000Y-81920000D03*
X172090000Y-79380000D03*
X174630000Y-81920000D03*
X174630000Y-79380000D03*
X177170000Y-81920000D03*
X177170000Y-79380000D03*
X179710000Y-81920000D03*
X179710000Y-79380000D03*
X182250000Y-81920000D03*
X182250000Y-79380000D03*
X184790000Y-81920000D03*
X184790000Y-79380000D03*
X187330000Y-81920000D03*
X187330000Y-79380000D03*
X189870000Y-81920000D03*
X189870000Y-79380000D03*
X192410000Y-81920000D03*
X192410000Y-79380000D03*
X194950000Y-81920000D03*
X194950000Y-79380000D03*
X197490000Y-81920000D03*
X197490000Y-79380000D03*
X200030000Y-81920000D03*
X200030000Y-79380000D03*
X202570000Y-81920000D03*
X202570000Y-79380000D03*
X205110000Y-81920000D03*
X205110000Y-79380000D03*
X207650000Y-81920000D03*
X207650000Y-79380000D03*
X210190000Y-81920000D03*
X210190000Y-79380000D03*
X212730000Y-81920000D03*
X212730000Y-79380000D03*
D16*
X173355000Y-101600000D03*
D17*
X173355000Y-109220000D03*
D16*
X178435000Y-96520000D03*
D17*
X178435000Y-88900000D03*
D16*
X178435000Y-101600000D03*
D17*
X178435000Y-109220000D03*
D19*
X184358100Y-88898100D03*
X208793000Y-108338700D03*
D20*
X203850000Y-106814900D02*
X205120000Y-108084900D01*
X203850000Y-95554100D02*
X203850000Y-106814900D01*
X203009000Y-94713100D02*
X203850000Y-95554100D01*
X202058900Y-94713100D02*
X203009000Y-94713100D01*
X201290000Y-95482000D02*
X202058900Y-94713100D01*
X201290000Y-96202400D02*
X201290000Y-95482000D01*
X197027500Y-100464900D02*
X201290000Y-96202400D01*
X194388800Y-100464900D02*
X197027500Y-100464900D01*
X193545100Y-101308600D02*
X194388800Y-100464900D01*
X193545100Y-101590000D02*
X193545100Y-101308600D01*
X192420000Y-101590000D02*
X193545100Y-101590000D01*
X205120000Y-109210000D02*
X205120000Y-108084900D01*
X206514900Y-89380100D02*
X200020000Y-95875000D01*
X207640000Y-89380100D02*
X206514900Y-89380100D01*
X207640000Y-88255000D02*
X207640000Y-89380100D01*
X178435000Y-88900000D02*
X179560100Y-88900000D01*
X200020000Y-88255000D02*
X198894900Y-88255000D01*
X180287100Y-88173000D02*
X179560100Y-88900000D01*
X189230500Y-88173000D02*
X180287100Y-88173000D01*
X190487000Y-89429500D02*
X189230500Y-88173000D01*
X197953500Y-89429500D02*
X190487000Y-89429500D01*
X198894900Y-88488100D02*
X197953500Y-89429500D01*
X198894900Y-88255000D02*
X198894900Y-88488100D01*
X212730000Y-81920000D02*
X211554900Y-81920000D01*
X211554900Y-82285400D02*
X211554900Y-81920000D01*
X208989000Y-84851300D02*
X211554900Y-82285400D01*
X204320000Y-84851300D02*
X208989000Y-84851300D01*
X201290000Y-87881300D02*
X204320000Y-84851300D01*
X201290000Y-88632900D02*
X201290000Y-87881300D01*
X199621100Y-90301800D02*
X201290000Y-88632900D01*
X189733100Y-90301800D02*
X199621100Y-90301800D01*
X189733100Y-90301900D02*
X189733100Y-90301800D01*
X178435000Y-101600000D02*
X189733100Y-90301900D01*
X209014900Y-79693300D02*
X209014900Y-79380000D01*
X208058200Y-80650000D02*
X209014900Y-79693300D01*
X207219100Y-80650000D02*
X208058200Y-80650000D01*
X206474800Y-81394300D02*
X207219100Y-80650000D01*
X206474800Y-82219400D02*
X206474800Y-81394300D01*
X205599100Y-83095100D02*
X206474800Y-82219400D01*
X202639900Y-83095100D02*
X205599100Y-83095100D01*
X201281900Y-84453100D02*
X202639900Y-83095100D01*
X181280400Y-84453100D02*
X201281900Y-84453100D01*
X176004400Y-89729100D02*
X181280400Y-84453100D01*
X176004400Y-98950600D02*
X176004400Y-89729100D01*
X173355000Y-101600000D02*
X176004400Y-98950600D01*
X210190000Y-79380000D02*
X209014900Y-79380000D01*
X173355000Y-91741800D02*
X173355000Y-96520000D01*
X181551500Y-83545300D02*
X173355000Y-91741800D01*
X200098100Y-83545300D02*
X181551500Y-83545300D01*
X201300000Y-82343400D02*
X200098100Y-83545300D01*
X201300000Y-81489100D02*
X201300000Y-82343400D01*
X202234000Y-80555100D02*
X201300000Y-81489100D01*
X203127100Y-80555100D02*
X202234000Y-80555100D01*
X203934900Y-79747300D02*
X203127100Y-80555100D01*
X203934900Y-79380000D02*
X203934900Y-79747300D01*
X205110000Y-79380000D02*
X203934900Y-79380000D01*
X174079900Y-83095100D02*
X168275000Y-88900000D01*
X195507100Y-83095100D02*
X174079900Y-83095100D01*
X196314900Y-82287300D02*
X195507100Y-83095100D01*
X196314900Y-81920000D02*
X196314900Y-82287300D01*
X197490000Y-81920000D02*
X196314900Y-81920000D01*
X184358100Y-90596900D02*
X184358100Y-88898100D01*
X178435000Y-96520000D02*
X184358100Y-90596900D01*
X198770000Y-100790100D02*
X202560000Y-97000100D01*
X198770000Y-104274900D02*
X198770000Y-100790100D01*
X194960000Y-108084900D02*
X198770000Y-104274900D01*
X202560000Y-95875000D02*
X202560000Y-97000100D01*
X194960000Y-108760000D02*
X194960000Y-108084900D01*
X194960000Y-108760000D02*
X194960000Y-109210000D01*
X173626100Y-114146400D02*
X172085000Y-115687500D01*
X180850800Y-114146400D02*
X173626100Y-114146400D01*
X184662100Y-110335100D02*
X180850800Y-114146400D01*
X192991200Y-110335100D02*
X184662100Y-110335100D01*
X193834900Y-109491400D02*
X192991200Y-110335100D01*
X193834900Y-109210000D02*
X193834900Y-109491400D01*
X194960000Y-109210000D02*
X193834900Y-109210000D01*
X166370000Y-96728800D02*
X166370000Y-101600000D01*
X173073700Y-90025100D02*
X166370000Y-96728800D01*
X173355000Y-90025100D02*
X173073700Y-90025100D01*
X173355000Y-88900000D02*
X173355000Y-90025100D01*
X167590100Y-108409400D02*
X167590100Y-107950000D01*
X169539600Y-110358900D02*
X167590100Y-108409400D01*
X176171000Y-110358900D02*
X169539600Y-110358900D01*
X177309900Y-109220000D02*
X176171000Y-110358900D01*
X178435000Y-109220000D02*
X177309900Y-109220000D01*
X166365000Y-107950000D02*
X167590100Y-107950000D01*
X179946400Y-115687500D02*
X179705000Y-115687500D01*
X181683600Y-113950300D02*
X179946400Y-115687500D01*
X201991500Y-113950300D02*
X181683600Y-113950300D01*
X206267300Y-109674500D02*
X201991500Y-113950300D01*
X206267300Y-98167400D02*
X206267300Y-109674500D01*
X205100000Y-97000100D02*
X206267300Y-98167400D01*
X205100000Y-95875000D02*
X205100000Y-97000100D01*
X198258200Y-88255000D02*
X197480000Y-88255000D01*
X202699300Y-83813900D02*
X198258200Y-88255000D01*
X207488200Y-83813900D02*
X202699300Y-83813900D01*
X209014900Y-82287200D02*
X207488200Y-83813900D01*
X209014900Y-81920000D02*
X209014900Y-82287200D01*
X210190000Y-81920000D02*
X209014900Y-81920000D01*
X171583500Y-113649000D02*
X169545000Y-115687500D01*
X180711500Y-113649000D02*
X171583500Y-113649000D01*
X191645400Y-102715100D02*
X180711500Y-113649000D01*
X195531200Y-102715100D02*
X191645400Y-102715100D01*
X196374900Y-101871400D02*
X195531200Y-102715100D01*
X196374900Y-101590000D02*
X196374900Y-101871400D01*
X197500000Y-101590000D02*
X196374900Y-101590000D01*
X196259900Y-114462400D02*
X197485000Y-115687500D01*
X181808200Y-114462400D02*
X196259900Y-114462400D01*
X180880200Y-115390400D02*
X181808200Y-114462400D01*
X180880200Y-116177200D02*
X180880200Y-115390400D01*
X180194700Y-116862700D02*
X180880200Y-116177200D01*
X169011100Y-116862700D02*
X180194700Y-116862700D01*
X165139800Y-112991400D02*
X169011100Y-116862700D01*
X165139800Y-87505300D02*
X165139800Y-112991400D01*
X169550000Y-83095100D02*
X165139800Y-87505300D01*
X169550000Y-81920000D02*
X169550000Y-83095100D01*
X202837500Y-115687500D02*
X202565000Y-115687500D01*
X208793000Y-109732000D02*
X202837500Y-115687500D01*
X208793000Y-108338700D02*
X208793000Y-109732000D01*
X203835000Y-116957500D02*
X202565000Y-118227500D01*
X205536000Y-116957500D02*
X203835000Y-116957500D01*
X206280200Y-116213300D02*
X205536000Y-116957500D01*
X206280200Y-114213700D02*
X206280200Y-116213300D01*
X215173400Y-105320500D02*
X206280200Y-114213700D01*
X215173400Y-82697100D02*
X215173400Y-105320500D01*
X213205700Y-80729400D02*
X215173400Y-82697100D01*
X208840600Y-80729400D02*
X213205700Y-80729400D01*
X207650000Y-81920000D02*
X208840600Y-80729400D01*
X189880000Y-101590000D02*
X189880000Y-102715100D01*
X184785000Y-107810100D02*
X189880000Y-102715100D01*
X184785000Y-107910000D02*
X184785000Y-107810100D01*
X213970000Y-89515000D02*
X212794900Y-89515000D01*
X213995000Y-100965000D02*
X213995000Y-99789900D01*
X212794900Y-98589800D02*
X213995000Y-99789900D01*
X212794900Y-89515000D02*
X212794900Y-98589800D01*
X210409700Y-87129800D02*
X212794900Y-89515000D01*
X204582000Y-87129800D02*
X210409700Y-87129800D01*
X203830000Y-87881800D02*
X204582000Y-87129800D01*
X203830000Y-88633900D02*
X203830000Y-87881800D01*
X197888900Y-94575000D02*
X203830000Y-88633900D01*
X187960000Y-94575000D02*
X197888900Y-94575000D01*
X175790100Y-107910000D02*
X184785000Y-107910000D01*
X174480100Y-109220000D02*
X175790100Y-107910000D01*
X173355000Y-109220000D02*
X174480100Y-109220000D01*
X194950000Y-79380000D02*
X192410000Y-79380000D01*
X200891000Y-115687500D02*
X200025000Y-115687500D01*
X207368500Y-109210000D02*
X200891000Y-115687500D01*
X207660000Y-109210000D02*
X207368500Y-109210000D01*
X191135000Y-116957500D02*
X189865000Y-118227500D01*
X198755000Y-116957500D02*
X191135000Y-116957500D01*
X200025000Y-115687500D02*
X198755000Y-116957500D01*
X189865000Y-118227500D02*
X187325000Y-118227500D01*
X187325000Y-118227500D02*
X184785000Y-118227500D01*
X184785000Y-118227500D02*
X182245000Y-118227500D01*
X182245000Y-118227500D02*
X179705000Y-118227500D01*
X179705000Y-118227500D02*
X177165000Y-118227500D01*
X177165000Y-118227500D02*
X174625000Y-118227500D01*
X174625000Y-118227500D02*
X172085000Y-118227500D01*
X172085000Y-118227500D02*
X169545000Y-118227500D01*
X212969800Y-102329900D02*
X207640000Y-97000100D01*
X213995000Y-102329900D02*
X212969800Y-102329900D01*
X213995000Y-103505000D02*
X213995000Y-102329900D01*
X207640000Y-95875000D02*
X207640000Y-97000100D01*
X168275000Y-98116200D02*
X168275000Y-96520000D01*
X173068800Y-102910000D02*
X168275000Y-98116200D01*
X184785000Y-102910000D02*
X173068800Y-102910000D01*
X201205100Y-79014700D02*
X201205100Y-79380000D01*
X202029900Y-78189900D02*
X201205100Y-79014700D01*
X210732000Y-78189900D02*
X202029900Y-78189900D01*
X211554900Y-79012800D02*
X210732000Y-78189900D01*
X211554900Y-79380000D02*
X211554900Y-79012800D01*
X212730000Y-79380000D02*
X211554900Y-79380000D01*
X200030000Y-79380000D02*
X201205100Y-79380000D01*
M02*
