%FSLAX45Y45*%
G04 Gerber Fmt 4.5, Leading zero omitted, Abs format (unit mm)*
G04 Created by KiCad (PCBNEW (6.0.6)) date 2022-09-15 19:04:16*
%MOMM*%
%LPD*%
G01*
G04 APERTURE LIST*
%TA.AperFunction,Profile*%
%ADD10C,0.050000*%
%TD*%
%ADD11C,0.200000*%
%ADD12C,0.040000*%
%ADD13C,0.080000*%
%ADD14C,0.090000*%
%ADD15C,0.100000*%
G04 APERTURE END LIST*
D10*
X12646000Y-10287000D02*
G75*
G03*
X12646000Y-10287000I-200000J0D01*
G01*
X11874500Y-8191500D02*
X11874500Y-12446000D01*
X22225000Y-6350000D02*
X22225000Y-12446000D01*
X11874500Y-12446000D02*
X22225000Y-12446000D01*
X20393000Y-9144000D02*
G75*
G03*
X20393000Y-9144000I-200000J0D01*
G01*
X11874500Y-8191500D02*
X22225000Y-6350000D01*
D11*
D12*
X16763480Y-8687820D02*
X16803480Y-8727820D01*
X16803480Y-8687820D02*
X16763480Y-8727820D01*
X16861920Y-8473270D02*
X16901920Y-8513270D01*
X16901920Y-8473270D02*
X16861920Y-8513270D01*
X17352050Y-10830640D02*
X17392050Y-10870640D01*
X17392050Y-10830640D02*
X17352050Y-10870640D01*
X20264250Y-10778040D02*
X20304250Y-10818040D01*
X20304250Y-10778040D02*
X20264250Y-10818040D01*
D13*
X14327500Y-9910000D02*
G75*
G03*
X14327500Y-9910000I-40000J0D01*
G01*
X14327500Y-10410000D02*
G75*
G03*
X14327500Y-10410000I-40000J0D01*
G01*
X14835000Y-9778000D02*
G75*
G03*
X14835000Y-9778000I-40000J0D01*
G01*
X14835000Y-10540000D02*
G75*
G03*
X14835000Y-10540000I-40000J0D01*
G01*
X15089000Y-9778000D02*
G75*
G03*
X15089000Y-9778000I-40000J0D01*
G01*
X15089000Y-10540000D02*
G75*
G03*
X15089000Y-10540000I-40000J0D01*
G01*
X15153000Y-8699500D02*
G75*
G03*
X15153000Y-8699500I-40000J0D01*
G01*
X15153000Y-9461500D02*
G75*
G03*
X15153000Y-9461500I-40000J0D01*
G01*
X15343000Y-9778000D02*
G75*
G03*
X15343000Y-9778000I-40000J0D01*
G01*
X15343000Y-10540000D02*
G75*
G03*
X15343000Y-10540000I-40000J0D01*
G01*
X15597000Y-9778000D02*
G75*
G03*
X15597000Y-9778000I-40000J0D01*
G01*
X15597000Y-10540000D02*
G75*
G03*
X15597000Y-10540000I-40000J0D01*
G01*
X15661000Y-8699500D02*
G75*
G03*
X15661000Y-8699500I-40000J0D01*
G01*
X15661000Y-9461500D02*
G75*
G03*
X15661000Y-9461500I-40000J0D01*
G01*
X15851000Y-9778000D02*
G75*
G03*
X15851000Y-9778000I-40000J0D01*
G01*
X15851000Y-10540000D02*
G75*
G03*
X15851000Y-10540000I-40000J0D01*
G01*
X16105000Y-9778000D02*
G75*
G03*
X16105000Y-9778000I-40000J0D01*
G01*
X16105000Y-10540000D02*
G75*
G03*
X16105000Y-10540000I-40000J0D01*
G01*
X16169000Y-8699500D02*
G75*
G03*
X16169000Y-8699500I-40000J0D01*
G01*
X16169000Y-9461500D02*
G75*
G03*
X16169000Y-9461500I-40000J0D01*
G01*
X16359000Y-9778000D02*
G75*
G03*
X16359000Y-9778000I-40000J0D01*
G01*
X16359000Y-10540000D02*
G75*
G03*
X16359000Y-10540000I-40000J0D01*
G01*
X16613000Y-9778000D02*
G75*
G03*
X16613000Y-9778000I-40000J0D01*
G01*
X16613000Y-10540000D02*
G75*
G03*
X16613000Y-10540000I-40000J0D01*
G01*
X16677000Y-8699500D02*
G75*
G03*
X16677000Y-8699500I-40000J0D01*
G01*
X16677000Y-9461500D02*
G75*
G03*
X16677000Y-9461500I-40000J0D01*
G01*
X17185000Y-8699500D02*
G75*
G03*
X17185000Y-8699500I-40000J0D01*
G01*
X17185000Y-9461500D02*
G75*
G03*
X17185000Y-9461500I-40000J0D01*
G01*
X17375500Y-9910000D02*
G75*
G03*
X17375500Y-9910000I-40000J0D01*
G01*
X17375500Y-10410000D02*
G75*
G03*
X17375500Y-10410000I-40000J0D01*
G01*
X17884000Y-9778000D02*
G75*
G03*
X17884000Y-9778000I-40000J0D01*
G01*
X17884000Y-10540000D02*
G75*
G03*
X17884000Y-10540000I-40000J0D01*
G01*
X18138000Y-9778000D02*
G75*
G03*
X18138000Y-9778000I-40000J0D01*
G01*
X18138000Y-10540000D02*
G75*
G03*
X18138000Y-10540000I-40000J0D01*
G01*
X18392000Y-9778000D02*
G75*
G03*
X18392000Y-9778000I-40000J0D01*
G01*
X18392000Y-10540000D02*
G75*
G03*
X18392000Y-10540000I-40000J0D01*
G01*
X18646000Y-9778000D02*
G75*
G03*
X18646000Y-9778000I-40000J0D01*
G01*
X18646000Y-10540000D02*
G75*
G03*
X18646000Y-10540000I-40000J0D01*
G01*
X18900000Y-9778000D02*
G75*
G03*
X18900000Y-9778000I-40000J0D01*
G01*
X18900000Y-10540000D02*
G75*
G03*
X18900000Y-10540000I-40000J0D01*
G01*
X19154000Y-9778000D02*
G75*
G03*
X19154000Y-9778000I-40000J0D01*
G01*
X19154000Y-10540000D02*
G75*
G03*
X19154000Y-10540000I-40000J0D01*
G01*
X19408000Y-9778000D02*
G75*
G03*
X19408000Y-9778000I-40000J0D01*
G01*
X19408000Y-10540000D02*
G75*
G03*
X19408000Y-10540000I-40000J0D01*
G01*
D14*
X13017500Y-8845000D02*
X13017500Y-8935000D01*
X12972500Y-8890000D02*
X13062500Y-8890000D01*
X13271500Y-8845000D02*
X13271500Y-8935000D01*
X13226500Y-8890000D02*
X13316500Y-8890000D01*
X13779000Y-8845000D02*
X13779000Y-8935000D01*
X13734000Y-8890000D02*
X13824000Y-8890000D01*
X14033000Y-8845000D02*
X14033000Y-8935000D01*
X13988000Y-8890000D02*
X14078000Y-8890000D01*
D15*
X13179856Y-10385856D02*
X13179856Y-10315144D01*
X13109144Y-10315144D01*
X13109144Y-10385856D01*
X13179856Y-10385856D01*
X13179856Y-10639856D02*
X13179856Y-10569144D01*
X13109144Y-10569144D01*
X13109144Y-10639856D01*
X13179856Y-10639856D01*
X13179856Y-10893856D02*
X13179856Y-10823144D01*
X13109144Y-10823144D01*
X13109144Y-10893856D01*
X13179856Y-10893856D01*
X14486306Y-11614856D02*
X14486306Y-11544144D01*
X14415594Y-11544144D01*
X14415594Y-11614856D01*
X14486306Y-11614856D01*
X14486306Y-12114856D02*
X14486306Y-12044144D01*
X14415594Y-12044144D01*
X14415594Y-12114856D01*
X14486306Y-12114856D01*
X14740306Y-11614856D02*
X14740306Y-11544144D01*
X14669594Y-11544144D01*
X14669594Y-11614856D01*
X14740306Y-11614856D01*
X14740306Y-12114856D02*
X14740306Y-12044144D01*
X14669594Y-12044144D01*
X14669594Y-12114856D01*
X14740306Y-12114856D01*
X14994306Y-11614856D02*
X14994306Y-11544144D01*
X14923594Y-11544144D01*
X14923594Y-11614856D01*
X14994306Y-11614856D01*
X14994306Y-12114856D02*
X14994306Y-12044144D01*
X14923594Y-12044144D01*
X14923594Y-12114856D01*
X14994306Y-12114856D01*
X15248306Y-11614856D02*
X15248306Y-11544144D01*
X15177594Y-11544144D01*
X15177594Y-11614856D01*
X15248306Y-11614856D01*
X15248306Y-12114856D02*
X15248306Y-12044144D01*
X15177594Y-12044144D01*
X15177594Y-12114856D01*
X15248306Y-12114856D01*
X15502306Y-11614856D02*
X15502306Y-11544144D01*
X15431594Y-11544144D01*
X15431594Y-11614856D01*
X15502306Y-11614856D01*
X15502306Y-12114856D02*
X15502306Y-12044144D01*
X15431594Y-12044144D01*
X15431594Y-12114856D01*
X15502306Y-12114856D01*
X15756306Y-11614856D02*
X15756306Y-11544144D01*
X15685594Y-11544144D01*
X15685594Y-11614856D01*
X15756306Y-11614856D01*
X15756306Y-12114856D02*
X15756306Y-12044144D01*
X15685594Y-12044144D01*
X15685594Y-12114856D01*
X15756306Y-12114856D01*
X16010306Y-11614856D02*
X16010306Y-11544144D01*
X15939594Y-11544144D01*
X15939594Y-11614856D01*
X16010306Y-11614856D01*
X16010306Y-12114856D02*
X16010306Y-12044144D01*
X15939594Y-12044144D01*
X15939594Y-12114856D01*
X16010306Y-12114856D01*
X16264306Y-11614856D02*
X16264306Y-11544144D01*
X16193594Y-11544144D01*
X16193594Y-11614856D01*
X16264306Y-11614856D01*
X16264306Y-12114856D02*
X16264306Y-12044144D01*
X16193594Y-12044144D01*
X16193594Y-12114856D01*
X16264306Y-12114856D01*
X16482356Y-7973356D02*
X16482356Y-7902644D01*
X16411644Y-7902644D01*
X16411644Y-7973356D01*
X16482356Y-7973356D01*
X16482356Y-8227356D02*
X16482356Y-8156644D01*
X16411644Y-8156644D01*
X16411644Y-8227356D01*
X16482356Y-8227356D01*
X16518306Y-11614856D02*
X16518306Y-11544144D01*
X16447594Y-11544144D01*
X16447594Y-11614856D01*
X16518306Y-11614856D01*
X16518306Y-12114856D02*
X16518306Y-12044144D01*
X16447594Y-12044144D01*
X16447594Y-12114856D01*
X16518306Y-12114856D01*
X16736356Y-7973356D02*
X16736356Y-7902644D01*
X16665644Y-7902644D01*
X16665644Y-7973356D01*
X16736356Y-7973356D01*
X16736356Y-8227356D02*
X16736356Y-8156644D01*
X16665644Y-8156644D01*
X16665644Y-8227356D01*
X16736356Y-8227356D01*
X16772306Y-11614856D02*
X16772306Y-11544144D01*
X16701594Y-11544144D01*
X16701594Y-11614856D01*
X16772306Y-11614856D01*
X16772306Y-12114856D02*
X16772306Y-12044144D01*
X16701594Y-12044144D01*
X16701594Y-12114856D01*
X16772306Y-12114856D01*
X16990356Y-7973356D02*
X16990356Y-7902644D01*
X16919644Y-7902644D01*
X16919644Y-7973356D01*
X16990356Y-7973356D01*
X16990356Y-8227356D02*
X16990356Y-8156644D01*
X16919644Y-8156644D01*
X16919644Y-8227356D01*
X16990356Y-8227356D01*
X17026306Y-11614856D02*
X17026306Y-11544144D01*
X16955594Y-11544144D01*
X16955594Y-11614856D01*
X17026306Y-11614856D01*
X17026306Y-12114856D02*
X17026306Y-12044144D01*
X16955594Y-12044144D01*
X16955594Y-12114856D01*
X17026306Y-12114856D01*
X17244356Y-7973356D02*
X17244356Y-7902644D01*
X17173644Y-7902644D01*
X17173644Y-7973356D01*
X17244356Y-7973356D01*
X17244356Y-8227356D02*
X17244356Y-8156644D01*
X17173644Y-8156644D01*
X17173644Y-8227356D01*
X17244356Y-8227356D01*
X17280306Y-11614856D02*
X17280306Y-11544144D01*
X17209594Y-11544144D01*
X17209594Y-11614856D01*
X17280306Y-11614856D01*
X17280306Y-12114856D02*
X17280306Y-12044144D01*
X17209594Y-12044144D01*
X17209594Y-12114856D01*
X17280306Y-12114856D01*
X17498356Y-7973356D02*
X17498356Y-7902644D01*
X17427644Y-7902644D01*
X17427644Y-7973356D01*
X17498356Y-7973356D01*
X17498356Y-8227356D02*
X17498356Y-8156644D01*
X17427644Y-8156644D01*
X17427644Y-8227356D01*
X17498356Y-8227356D01*
X17534306Y-11614856D02*
X17534306Y-11544144D01*
X17463594Y-11544144D01*
X17463594Y-11614856D01*
X17534306Y-11614856D01*
X17534306Y-12114856D02*
X17534306Y-12044144D01*
X17463594Y-12044144D01*
X17463594Y-12114856D01*
X17534306Y-12114856D01*
X17752356Y-7973356D02*
X17752356Y-7902644D01*
X17681644Y-7902644D01*
X17681644Y-7973356D01*
X17752356Y-7973356D01*
X17752356Y-8227356D02*
X17752356Y-8156644D01*
X17681644Y-8156644D01*
X17681644Y-8227356D01*
X17752356Y-8227356D01*
X17788306Y-11614856D02*
X17788306Y-11544144D01*
X17717594Y-11544144D01*
X17717594Y-11614856D01*
X17788306Y-11614856D01*
X17788306Y-12114856D02*
X17788306Y-12044144D01*
X17717594Y-12044144D01*
X17717594Y-12114856D01*
X17788306Y-12114856D01*
X18006356Y-7973356D02*
X18006356Y-7902644D01*
X17935644Y-7902644D01*
X17935644Y-7973356D01*
X18006356Y-7973356D01*
X18006356Y-8227356D02*
X18006356Y-8156644D01*
X17935644Y-8156644D01*
X17935644Y-8227356D01*
X18006356Y-8227356D01*
X18042306Y-11614856D02*
X18042306Y-11544144D01*
X17971594Y-11544144D01*
X17971594Y-11614856D01*
X18042306Y-11614856D01*
X18042306Y-12114856D02*
X18042306Y-12044144D01*
X17971594Y-12044144D01*
X17971594Y-12114856D01*
X18042306Y-12114856D01*
X18260356Y-7973356D02*
X18260356Y-7902644D01*
X18189644Y-7902644D01*
X18189644Y-7973356D01*
X18260356Y-7973356D01*
X18260356Y-8227356D02*
X18260356Y-8156644D01*
X18189644Y-8156644D01*
X18189644Y-8227356D01*
X18260356Y-8227356D01*
X18296306Y-11614856D02*
X18296306Y-11544144D01*
X18225594Y-11544144D01*
X18225594Y-11614856D01*
X18296306Y-11614856D01*
X18296306Y-12114856D02*
X18296306Y-12044144D01*
X18225594Y-12044144D01*
X18225594Y-12114856D01*
X18296306Y-12114856D01*
X18514356Y-7973356D02*
X18514356Y-7902644D01*
X18443644Y-7902644D01*
X18443644Y-7973356D01*
X18514356Y-7973356D01*
X18514356Y-8227356D02*
X18514356Y-8156644D01*
X18443644Y-8156644D01*
X18443644Y-8227356D01*
X18514356Y-8227356D01*
X18550306Y-11614856D02*
X18550306Y-11544144D01*
X18479594Y-11544144D01*
X18479594Y-11614856D01*
X18550306Y-11614856D01*
X18550306Y-12114856D02*
X18550306Y-12044144D01*
X18479594Y-12044144D01*
X18479594Y-12114856D01*
X18550306Y-12114856D01*
X18768356Y-7973356D02*
X18768356Y-7902644D01*
X18697644Y-7902644D01*
X18697644Y-7973356D01*
X18768356Y-7973356D01*
X18768356Y-8227356D02*
X18768356Y-8156644D01*
X18697644Y-8156644D01*
X18697644Y-8227356D01*
X18768356Y-8227356D01*
X18804306Y-11614856D02*
X18804306Y-11544144D01*
X18733594Y-11544144D01*
X18733594Y-11614856D01*
X18804306Y-11614856D01*
X18804306Y-12114856D02*
X18804306Y-12044144D01*
X18733594Y-12044144D01*
X18733594Y-12114856D01*
X18804306Y-12114856D01*
X19022356Y-7973356D02*
X19022356Y-7902644D01*
X18951644Y-7902644D01*
X18951644Y-7973356D01*
X19022356Y-7973356D01*
X19022356Y-8227356D02*
X19022356Y-8156644D01*
X18951644Y-8156644D01*
X18951644Y-8227356D01*
X19022356Y-8227356D01*
X19058306Y-11614856D02*
X19058306Y-11544144D01*
X18987594Y-11544144D01*
X18987594Y-11614856D01*
X19058306Y-11614856D01*
X19058306Y-12114856D02*
X19058306Y-12044144D01*
X18987594Y-12044144D01*
X18987594Y-12114856D01*
X19058306Y-12114856D01*
X19276356Y-7973356D02*
X19276356Y-7902644D01*
X19205644Y-7902644D01*
X19205644Y-7973356D01*
X19276356Y-7973356D01*
X19276356Y-8227356D02*
X19276356Y-8156644D01*
X19205644Y-8156644D01*
X19205644Y-8227356D01*
X19276356Y-8227356D01*
X19312306Y-11614856D02*
X19312306Y-11544144D01*
X19241594Y-11544144D01*
X19241594Y-11614856D01*
X19312306Y-11614856D01*
X19312306Y-12114856D02*
X19312306Y-12044144D01*
X19241594Y-12044144D01*
X19241594Y-12114856D01*
X19312306Y-12114856D01*
X19530356Y-7973356D02*
X19530356Y-7902644D01*
X19459644Y-7902644D01*
X19459644Y-7973356D01*
X19530356Y-7973356D01*
X19530356Y-8227356D02*
X19530356Y-8156644D01*
X19459644Y-8156644D01*
X19459644Y-8227356D01*
X19530356Y-8227356D01*
X19566306Y-11614856D02*
X19566306Y-11544144D01*
X19495594Y-11544144D01*
X19495594Y-11614856D01*
X19566306Y-11614856D01*
X19566306Y-12114856D02*
X19566306Y-12044144D01*
X19495594Y-12044144D01*
X19495594Y-12114856D01*
X19566306Y-12114856D01*
X19784356Y-7973356D02*
X19784356Y-7902644D01*
X19713644Y-7902644D01*
X19713644Y-7973356D01*
X19784356Y-7973356D01*
X19784356Y-8227356D02*
X19784356Y-8156644D01*
X19713644Y-8156644D01*
X19713644Y-8227356D01*
X19784356Y-8227356D01*
X19820306Y-11614856D02*
X19820306Y-11544144D01*
X19749594Y-11544144D01*
X19749594Y-11614856D01*
X19820306Y-11614856D01*
X19820306Y-12114856D02*
X19820306Y-12044144D01*
X19749594Y-12044144D01*
X19749594Y-12114856D01*
X19820306Y-12114856D01*
X20038356Y-7973356D02*
X20038356Y-7902644D01*
X19967644Y-7902644D01*
X19967644Y-7973356D01*
X20038356Y-7973356D01*
X20038356Y-8227356D02*
X20038356Y-8156644D01*
X19967644Y-8156644D01*
X19967644Y-8227356D01*
X20038356Y-8227356D01*
X20074306Y-11614856D02*
X20074306Y-11544144D01*
X20003594Y-11544144D01*
X20003594Y-11614856D01*
X20074306Y-11614856D01*
X20074306Y-12114856D02*
X20074306Y-12044144D01*
X20003594Y-12044144D01*
X20003594Y-12114856D01*
X20074306Y-12114856D01*
X20292356Y-7973356D02*
X20292356Y-7902644D01*
X20221644Y-7902644D01*
X20221644Y-7973356D01*
X20292356Y-7973356D01*
X20292356Y-8227356D02*
X20292356Y-8156644D01*
X20221644Y-8156644D01*
X20221644Y-8227356D01*
X20292356Y-8227356D01*
X20328306Y-11614856D02*
X20328306Y-11544144D01*
X20257594Y-11544144D01*
X20257594Y-11614856D01*
X20328306Y-11614856D01*
X20328306Y-12114856D02*
X20328306Y-12044144D01*
X20257594Y-12044144D01*
X20257594Y-12114856D01*
X20328306Y-12114856D01*
X20482356Y-10195356D02*
X20482356Y-10124644D01*
X20411644Y-10124644D01*
X20411644Y-10195356D01*
X20482356Y-10195356D01*
X20482356Y-10449356D02*
X20482356Y-10378644D01*
X20411644Y-10378644D01*
X20411644Y-10449356D01*
X20482356Y-10449356D01*
X20546356Y-7973356D02*
X20546356Y-7902644D01*
X20475644Y-7902644D01*
X20475644Y-7973356D01*
X20546356Y-7973356D01*
X20546356Y-8227356D02*
X20546356Y-8156644D01*
X20475644Y-8156644D01*
X20475644Y-8227356D01*
X20546356Y-8227356D01*
X20582306Y-11614856D02*
X20582306Y-11544144D01*
X20511594Y-11544144D01*
X20511594Y-11614856D01*
X20582306Y-11614856D01*
X20582306Y-12114856D02*
X20582306Y-12044144D01*
X20511594Y-12044144D01*
X20511594Y-12114856D01*
X20582306Y-12114856D01*
X20800356Y-7973356D02*
X20800356Y-7902644D01*
X20729644Y-7902644D01*
X20729644Y-7973356D01*
X20800356Y-7973356D01*
X20800356Y-8227356D02*
X20800356Y-8156644D01*
X20729644Y-8156644D01*
X20729644Y-8227356D01*
X20800356Y-8227356D01*
X21054356Y-7973356D02*
X21054356Y-7902644D01*
X20983644Y-7902644D01*
X20983644Y-7973356D01*
X21054356Y-7973356D01*
X21054356Y-8227356D02*
X21054356Y-8156644D01*
X20983644Y-8156644D01*
X20983644Y-8227356D01*
X21054356Y-8227356D01*
X21244356Y-10131856D02*
X21244356Y-10061144D01*
X21173644Y-10061144D01*
X21173644Y-10131856D01*
X21244356Y-10131856D01*
X21244356Y-10385856D02*
X21244356Y-10315144D01*
X21173644Y-10315144D01*
X21173644Y-10385856D01*
X21244356Y-10385856D01*
X21308356Y-7973356D02*
X21308356Y-7902644D01*
X21237644Y-7902644D01*
X21237644Y-7973356D01*
X21308356Y-7973356D01*
X21308356Y-8227356D02*
X21308356Y-8156644D01*
X21237644Y-8156644D01*
X21237644Y-8227356D01*
X21308356Y-8227356D01*
D11*
X12129619Y-12758976D02*
X12129619Y-12558976D01*
X12177238Y-12558976D01*
X12205809Y-12568500D01*
X12224857Y-12587548D01*
X12234381Y-12606595D01*
X12243905Y-12644690D01*
X12243905Y-12673262D01*
X12234381Y-12711357D01*
X12224857Y-12730405D01*
X12205809Y-12749452D01*
X12177238Y-12758976D01*
X12129619Y-12758976D01*
X12329619Y-12758976D02*
X12329619Y-12625643D01*
X12329619Y-12663738D02*
X12339143Y-12644690D01*
X12348667Y-12635167D01*
X12367714Y-12625643D01*
X12386762Y-12625643D01*
X12453428Y-12758976D02*
X12453428Y-12625643D01*
X12453428Y-12558976D02*
X12443905Y-12568500D01*
X12453428Y-12578024D01*
X12462952Y-12568500D01*
X12453428Y-12558976D01*
X12453428Y-12578024D01*
X12577238Y-12758976D02*
X12558190Y-12749452D01*
X12548667Y-12730405D01*
X12548667Y-12558976D01*
X12682000Y-12758976D02*
X12662952Y-12749452D01*
X12653428Y-12730405D01*
X12653428Y-12558976D01*
X12910571Y-12758976D02*
X12910571Y-12558976D01*
X12977238Y-12701833D01*
X13043905Y-12558976D01*
X13043905Y-12758976D01*
X13224857Y-12758976D02*
X13224857Y-12654214D01*
X13215333Y-12635167D01*
X13196286Y-12625643D01*
X13158190Y-12625643D01*
X13139143Y-12635167D01*
X13224857Y-12749452D02*
X13205809Y-12758976D01*
X13158190Y-12758976D01*
X13139143Y-12749452D01*
X13129619Y-12730405D01*
X13129619Y-12711357D01*
X13139143Y-12692309D01*
X13158190Y-12682786D01*
X13205809Y-12682786D01*
X13224857Y-12673262D01*
X13320095Y-12625643D02*
X13320095Y-12825643D01*
X13320095Y-12635167D02*
X13339143Y-12625643D01*
X13377238Y-12625643D01*
X13396286Y-12635167D01*
X13405809Y-12644690D01*
X13415333Y-12663738D01*
X13415333Y-12720881D01*
X13405809Y-12739928D01*
X13396286Y-12749452D01*
X13377238Y-12758976D01*
X13339143Y-12758976D01*
X13320095Y-12749452D01*
X13501048Y-12739928D02*
X13510571Y-12749452D01*
X13501048Y-12758976D01*
X13491524Y-12749452D01*
X13501048Y-12739928D01*
X13501048Y-12758976D01*
X13501048Y-12635167D02*
X13510571Y-12644690D01*
X13501048Y-12654214D01*
X13491524Y-12644690D01*
X13501048Y-12635167D01*
X13501048Y-12654214D01*
D12*
X11832000Y-13068500D02*
X11872000Y-13108500D01*
X11872000Y-13068500D02*
X11832000Y-13108500D01*
D11*
X12167714Y-12978976D02*
X12186762Y-12978976D01*
X12205809Y-12988500D01*
X12215333Y-12998024D01*
X12224857Y-13017071D01*
X12234381Y-13055167D01*
X12234381Y-13102786D01*
X12224857Y-13140881D01*
X12215333Y-13159928D01*
X12205809Y-13169452D01*
X12186762Y-13178976D01*
X12167714Y-13178976D01*
X12148667Y-13169452D01*
X12139143Y-13159928D01*
X12129619Y-13140881D01*
X12120095Y-13102786D01*
X12120095Y-13055167D01*
X12129619Y-13017071D01*
X12139143Y-12998024D01*
X12148667Y-12988500D01*
X12167714Y-12978976D01*
X12320095Y-13159928D02*
X12329619Y-13169452D01*
X12320095Y-13178976D01*
X12310571Y-13169452D01*
X12320095Y-13159928D01*
X12320095Y-13178976D01*
X12501048Y-13045643D02*
X12501048Y-13178976D01*
X12453428Y-12969452D02*
X12405809Y-13112309D01*
X12529619Y-13112309D01*
X12643905Y-12978976D02*
X12662952Y-12978976D01*
X12682000Y-12988500D01*
X12691524Y-12998024D01*
X12701048Y-13017071D01*
X12710571Y-13055167D01*
X12710571Y-13102786D01*
X12701048Y-13140881D01*
X12691524Y-13159928D01*
X12682000Y-13169452D01*
X12662952Y-13178976D01*
X12643905Y-13178976D01*
X12624857Y-13169452D01*
X12615333Y-13159928D01*
X12605809Y-13140881D01*
X12596286Y-13102786D01*
X12596286Y-13055167D01*
X12605809Y-13017071D01*
X12615333Y-12998024D01*
X12624857Y-12988500D01*
X12643905Y-12978976D01*
X12834381Y-12978976D02*
X12853428Y-12978976D01*
X12872476Y-12988500D01*
X12882000Y-12998024D01*
X12891524Y-13017071D01*
X12901048Y-13055167D01*
X12901048Y-13102786D01*
X12891524Y-13140881D01*
X12882000Y-13159928D01*
X12872476Y-13169452D01*
X12853428Y-13178976D01*
X12834381Y-13178976D01*
X12815333Y-13169452D01*
X12805809Y-13159928D01*
X12796286Y-13140881D01*
X12786762Y-13102786D01*
X12786762Y-13055167D01*
X12796286Y-13017071D01*
X12805809Y-12998024D01*
X12815333Y-12988500D01*
X12834381Y-12978976D01*
X12986762Y-13178976D02*
X12986762Y-13045643D01*
X12986762Y-13064690D02*
X12996286Y-13055167D01*
X13015333Y-13045643D01*
X13043905Y-13045643D01*
X13062952Y-13055167D01*
X13072476Y-13074214D01*
X13072476Y-13178976D01*
X13072476Y-13074214D02*
X13082000Y-13055167D01*
X13101048Y-13045643D01*
X13129619Y-13045643D01*
X13148667Y-13055167D01*
X13158190Y-13074214D01*
X13158190Y-13178976D01*
X13253428Y-13178976D02*
X13253428Y-13045643D01*
X13253428Y-13064690D02*
X13262952Y-13055167D01*
X13282000Y-13045643D01*
X13310571Y-13045643D01*
X13329619Y-13055167D01*
X13339143Y-13074214D01*
X13339143Y-13178976D01*
X13339143Y-13074214D02*
X13348667Y-13055167D01*
X13367714Y-13045643D01*
X13396286Y-13045643D01*
X13415333Y-13055167D01*
X13424857Y-13074214D01*
X13424857Y-13178976D01*
X13815333Y-12969452D02*
X13643905Y-13226595D01*
X14072476Y-12978976D02*
X14091524Y-12978976D01*
X14110571Y-12988500D01*
X14120095Y-12998024D01*
X14129619Y-13017071D01*
X14139143Y-13055167D01*
X14139143Y-13102786D01*
X14129619Y-13140881D01*
X14120095Y-13159928D01*
X14110571Y-13169452D01*
X14091524Y-13178976D01*
X14072476Y-13178976D01*
X14053428Y-13169452D01*
X14043905Y-13159928D01*
X14034381Y-13140881D01*
X14024857Y-13102786D01*
X14024857Y-13055167D01*
X14034381Y-13017071D01*
X14043905Y-12998024D01*
X14053428Y-12988500D01*
X14072476Y-12978976D01*
X14224857Y-13159928D02*
X14234381Y-13169452D01*
X14224857Y-13178976D01*
X14215333Y-13169452D01*
X14224857Y-13159928D01*
X14224857Y-13178976D01*
X14358190Y-12978976D02*
X14377238Y-12978976D01*
X14396286Y-12988500D01*
X14405809Y-12998024D01*
X14415333Y-13017071D01*
X14424857Y-13055167D01*
X14424857Y-13102786D01*
X14415333Y-13140881D01*
X14405809Y-13159928D01*
X14396286Y-13169452D01*
X14377238Y-13178976D01*
X14358190Y-13178976D01*
X14339143Y-13169452D01*
X14329619Y-13159928D01*
X14320095Y-13140881D01*
X14310571Y-13102786D01*
X14310571Y-13055167D01*
X14320095Y-13017071D01*
X14329619Y-12998024D01*
X14339143Y-12988500D01*
X14358190Y-12978976D01*
X14615333Y-13178976D02*
X14501048Y-13178976D01*
X14558190Y-13178976D02*
X14558190Y-12978976D01*
X14539143Y-13007548D01*
X14520095Y-13026595D01*
X14501048Y-13036119D01*
X14796286Y-12978976D02*
X14701048Y-12978976D01*
X14691524Y-13074214D01*
X14701048Y-13064690D01*
X14720095Y-13055167D01*
X14767714Y-13055167D01*
X14786762Y-13064690D01*
X14796286Y-13074214D01*
X14805809Y-13093262D01*
X14805809Y-13140881D01*
X14796286Y-13159928D01*
X14786762Y-13169452D01*
X14767714Y-13178976D01*
X14720095Y-13178976D01*
X14701048Y-13169452D01*
X14691524Y-13159928D01*
X14872476Y-12978976D02*
X15005809Y-12978976D01*
X14920095Y-13178976D01*
X15072476Y-12978976D02*
X15072476Y-13017071D01*
X15148667Y-12978976D02*
X15148667Y-13017071D01*
X15443905Y-13255167D02*
X15434381Y-13245643D01*
X15415333Y-13217071D01*
X15405809Y-13198024D01*
X15396286Y-13169452D01*
X15386762Y-13121833D01*
X15386762Y-13083738D01*
X15396286Y-13036119D01*
X15405809Y-13007548D01*
X15415333Y-12988500D01*
X15434381Y-12959928D01*
X15443905Y-12950405D01*
X15605809Y-13045643D02*
X15605809Y-13178976D01*
X15558190Y-12969452D02*
X15510571Y-13112309D01*
X15634381Y-13112309D01*
X15862952Y-13178976D02*
X15862952Y-12978976D01*
X15948667Y-13178976D02*
X15948667Y-13074214D01*
X15939143Y-13055167D01*
X15920095Y-13045643D01*
X15891524Y-13045643D01*
X15872476Y-13055167D01*
X15862952Y-13064690D01*
X16072476Y-13178976D02*
X16053428Y-13169452D01*
X16043905Y-13159928D01*
X16034381Y-13140881D01*
X16034381Y-13083738D01*
X16043905Y-13064690D01*
X16053428Y-13055167D01*
X16072476Y-13045643D01*
X16101048Y-13045643D01*
X16120095Y-13055167D01*
X16129619Y-13064690D01*
X16139143Y-13083738D01*
X16139143Y-13140881D01*
X16129619Y-13159928D01*
X16120095Y-13169452D01*
X16101048Y-13178976D01*
X16072476Y-13178976D01*
X16253428Y-13178976D02*
X16234381Y-13169452D01*
X16224857Y-13150405D01*
X16224857Y-12978976D01*
X16405809Y-13169452D02*
X16386762Y-13178976D01*
X16348667Y-13178976D01*
X16329619Y-13169452D01*
X16320095Y-13150405D01*
X16320095Y-13074214D01*
X16329619Y-13055167D01*
X16348667Y-13045643D01*
X16386762Y-13045643D01*
X16405809Y-13055167D01*
X16415333Y-13074214D01*
X16415333Y-13093262D01*
X16320095Y-13112309D01*
X16491524Y-13169452D02*
X16510571Y-13178976D01*
X16548667Y-13178976D01*
X16567714Y-13169452D01*
X16577238Y-13150405D01*
X16577238Y-13140881D01*
X16567714Y-13121833D01*
X16548667Y-13112309D01*
X16520095Y-13112309D01*
X16501048Y-13102786D01*
X16491524Y-13083738D01*
X16491524Y-13074214D01*
X16501048Y-13055167D01*
X16520095Y-13045643D01*
X16548667Y-13045643D01*
X16567714Y-13055167D01*
X16643905Y-13255167D02*
X16653428Y-13245643D01*
X16672476Y-13217071D01*
X16682000Y-13198024D01*
X16691524Y-13169452D01*
X16701048Y-13121833D01*
X16701048Y-13083738D01*
X16691524Y-13036119D01*
X16682000Y-13007548D01*
X16672476Y-12988500D01*
X16653428Y-12959928D01*
X16643905Y-12950405D01*
D13*
X11872000Y-13352500D02*
G75*
G03*
X11872000Y-13352500I-40000J0D01*
G01*
D11*
X12167714Y-13242976D02*
X12186762Y-13242976D01*
X12205809Y-13252500D01*
X12215333Y-13262024D01*
X12224857Y-13281071D01*
X12234381Y-13319167D01*
X12234381Y-13366786D01*
X12224857Y-13404881D01*
X12215333Y-13423928D01*
X12205809Y-13433452D01*
X12186762Y-13442976D01*
X12167714Y-13442976D01*
X12148667Y-13433452D01*
X12139143Y-13423928D01*
X12129619Y-13404881D01*
X12120095Y-13366786D01*
X12120095Y-13319167D01*
X12129619Y-13281071D01*
X12139143Y-13262024D01*
X12148667Y-13252500D01*
X12167714Y-13242976D01*
X12320095Y-13423928D02*
X12329619Y-13433452D01*
X12320095Y-13442976D01*
X12310571Y-13433452D01*
X12320095Y-13423928D01*
X12320095Y-13442976D01*
X12443905Y-13328690D02*
X12424857Y-13319167D01*
X12415333Y-13309643D01*
X12405809Y-13290595D01*
X12405809Y-13281071D01*
X12415333Y-13262024D01*
X12424857Y-13252500D01*
X12443905Y-13242976D01*
X12482000Y-13242976D01*
X12501048Y-13252500D01*
X12510571Y-13262024D01*
X12520095Y-13281071D01*
X12520095Y-13290595D01*
X12510571Y-13309643D01*
X12501048Y-13319167D01*
X12482000Y-13328690D01*
X12443905Y-13328690D01*
X12424857Y-13338214D01*
X12415333Y-13347738D01*
X12405809Y-13366786D01*
X12405809Y-13404881D01*
X12415333Y-13423928D01*
X12424857Y-13433452D01*
X12443905Y-13442976D01*
X12482000Y-13442976D01*
X12501048Y-13433452D01*
X12510571Y-13423928D01*
X12520095Y-13404881D01*
X12520095Y-13366786D01*
X12510571Y-13347738D01*
X12501048Y-13338214D01*
X12482000Y-13328690D01*
X12643905Y-13242976D02*
X12662952Y-13242976D01*
X12682000Y-13252500D01*
X12691524Y-13262024D01*
X12701048Y-13281071D01*
X12710571Y-13319167D01*
X12710571Y-13366786D01*
X12701048Y-13404881D01*
X12691524Y-13423928D01*
X12682000Y-13433452D01*
X12662952Y-13442976D01*
X12643905Y-13442976D01*
X12624857Y-13433452D01*
X12615333Y-13423928D01*
X12605809Y-13404881D01*
X12596286Y-13366786D01*
X12596286Y-13319167D01*
X12605809Y-13281071D01*
X12615333Y-13262024D01*
X12624857Y-13252500D01*
X12643905Y-13242976D01*
X12834381Y-13242976D02*
X12853428Y-13242976D01*
X12872476Y-13252500D01*
X12882000Y-13262024D01*
X12891524Y-13281071D01*
X12901048Y-13319167D01*
X12901048Y-13366786D01*
X12891524Y-13404881D01*
X12882000Y-13423928D01*
X12872476Y-13433452D01*
X12853428Y-13442976D01*
X12834381Y-13442976D01*
X12815333Y-13433452D01*
X12805809Y-13423928D01*
X12796286Y-13404881D01*
X12786762Y-13366786D01*
X12786762Y-13319167D01*
X12796286Y-13281071D01*
X12805809Y-13262024D01*
X12815333Y-13252500D01*
X12834381Y-13242976D01*
X12986762Y-13442976D02*
X12986762Y-13309643D01*
X12986762Y-13328690D02*
X12996286Y-13319167D01*
X13015333Y-13309643D01*
X13043905Y-13309643D01*
X13062952Y-13319167D01*
X13072476Y-13338214D01*
X13072476Y-13442976D01*
X13072476Y-13338214D02*
X13082000Y-13319167D01*
X13101048Y-13309643D01*
X13129619Y-13309643D01*
X13148667Y-13319167D01*
X13158190Y-13338214D01*
X13158190Y-13442976D01*
X13253428Y-13442976D02*
X13253428Y-13309643D01*
X13253428Y-13328690D02*
X13262952Y-13319167D01*
X13282000Y-13309643D01*
X13310571Y-13309643D01*
X13329619Y-13319167D01*
X13339143Y-13338214D01*
X13339143Y-13442976D01*
X13339143Y-13338214D02*
X13348667Y-13319167D01*
X13367714Y-13309643D01*
X13396286Y-13309643D01*
X13415333Y-13319167D01*
X13424857Y-13338214D01*
X13424857Y-13442976D01*
X13815333Y-13233452D02*
X13643905Y-13490595D01*
X14072476Y-13242976D02*
X14091524Y-13242976D01*
X14110571Y-13252500D01*
X14120095Y-13262024D01*
X14129619Y-13281071D01*
X14139143Y-13319167D01*
X14139143Y-13366786D01*
X14129619Y-13404881D01*
X14120095Y-13423928D01*
X14110571Y-13433452D01*
X14091524Y-13442976D01*
X14072476Y-13442976D01*
X14053428Y-13433452D01*
X14043905Y-13423928D01*
X14034381Y-13404881D01*
X14024857Y-13366786D01*
X14024857Y-13319167D01*
X14034381Y-13281071D01*
X14043905Y-13262024D01*
X14053428Y-13252500D01*
X14072476Y-13242976D01*
X14224857Y-13423928D02*
X14234381Y-13433452D01*
X14224857Y-13442976D01*
X14215333Y-13433452D01*
X14224857Y-13423928D01*
X14224857Y-13442976D01*
X14358190Y-13242976D02*
X14377238Y-13242976D01*
X14396286Y-13252500D01*
X14405809Y-13262024D01*
X14415333Y-13281071D01*
X14424857Y-13319167D01*
X14424857Y-13366786D01*
X14415333Y-13404881D01*
X14405809Y-13423928D01*
X14396286Y-13433452D01*
X14377238Y-13442976D01*
X14358190Y-13442976D01*
X14339143Y-13433452D01*
X14329619Y-13423928D01*
X14320095Y-13404881D01*
X14310571Y-13366786D01*
X14310571Y-13319167D01*
X14320095Y-13281071D01*
X14329619Y-13262024D01*
X14339143Y-13252500D01*
X14358190Y-13242976D01*
X14491524Y-13242976D02*
X14615333Y-13242976D01*
X14548667Y-13319167D01*
X14577238Y-13319167D01*
X14596286Y-13328690D01*
X14605809Y-13338214D01*
X14615333Y-13357262D01*
X14615333Y-13404881D01*
X14605809Y-13423928D01*
X14596286Y-13433452D01*
X14577238Y-13442976D01*
X14520095Y-13442976D01*
X14501048Y-13433452D01*
X14491524Y-13423928D01*
X14805809Y-13442976D02*
X14691524Y-13442976D01*
X14748667Y-13442976D02*
X14748667Y-13242976D01*
X14729619Y-13271548D01*
X14710571Y-13290595D01*
X14691524Y-13300119D01*
X14986762Y-13242976D02*
X14891524Y-13242976D01*
X14882000Y-13338214D01*
X14891524Y-13328690D01*
X14910571Y-13319167D01*
X14958190Y-13319167D01*
X14977238Y-13328690D01*
X14986762Y-13338214D01*
X14996286Y-13357262D01*
X14996286Y-13404881D01*
X14986762Y-13423928D01*
X14977238Y-13433452D01*
X14958190Y-13442976D01*
X14910571Y-13442976D01*
X14891524Y-13433452D01*
X14882000Y-13423928D01*
X15072476Y-13242976D02*
X15072476Y-13281071D01*
X15148667Y-13242976D02*
X15148667Y-13281071D01*
X15443905Y-13519167D02*
X15434381Y-13509643D01*
X15415333Y-13481071D01*
X15405809Y-13462024D01*
X15396286Y-13433452D01*
X15386762Y-13385833D01*
X15386762Y-13347738D01*
X15396286Y-13300119D01*
X15405809Y-13271548D01*
X15415333Y-13252500D01*
X15434381Y-13223928D01*
X15443905Y-13214405D01*
X15605809Y-13309643D02*
X15605809Y-13442976D01*
X15558190Y-13233452D02*
X15510571Y-13376309D01*
X15634381Y-13376309D01*
X15796286Y-13309643D02*
X15796286Y-13442976D01*
X15748667Y-13233452D02*
X15701048Y-13376309D01*
X15824857Y-13376309D01*
X16053428Y-13442976D02*
X16053428Y-13242976D01*
X16139143Y-13442976D02*
X16139143Y-13338214D01*
X16129619Y-13319167D01*
X16110571Y-13309643D01*
X16082000Y-13309643D01*
X16062952Y-13319167D01*
X16053428Y-13328690D01*
X16262952Y-13442976D02*
X16243905Y-13433452D01*
X16234381Y-13423928D01*
X16224857Y-13404881D01*
X16224857Y-13347738D01*
X16234381Y-13328690D01*
X16243905Y-13319167D01*
X16262952Y-13309643D01*
X16291524Y-13309643D01*
X16310571Y-13319167D01*
X16320095Y-13328690D01*
X16329619Y-13347738D01*
X16329619Y-13404881D01*
X16320095Y-13423928D01*
X16310571Y-13433452D01*
X16291524Y-13442976D01*
X16262952Y-13442976D01*
X16443905Y-13442976D02*
X16424857Y-13433452D01*
X16415333Y-13414405D01*
X16415333Y-13242976D01*
X16596286Y-13433452D02*
X16577238Y-13442976D01*
X16539143Y-13442976D01*
X16520095Y-13433452D01*
X16510571Y-13414405D01*
X16510571Y-13338214D01*
X16520095Y-13319167D01*
X16539143Y-13309643D01*
X16577238Y-13309643D01*
X16596286Y-13319167D01*
X16605809Y-13338214D01*
X16605809Y-13357262D01*
X16510571Y-13376309D01*
X16682000Y-13433452D02*
X16701048Y-13442976D01*
X16739143Y-13442976D01*
X16758190Y-13433452D01*
X16767714Y-13414405D01*
X16767714Y-13404881D01*
X16758190Y-13385833D01*
X16739143Y-13376309D01*
X16710571Y-13376309D01*
X16691524Y-13366786D01*
X16682000Y-13347738D01*
X16682000Y-13338214D01*
X16691524Y-13319167D01*
X16710571Y-13309643D01*
X16739143Y-13309643D01*
X16758190Y-13319167D01*
X16834381Y-13519167D02*
X16843905Y-13509643D01*
X16862952Y-13481071D01*
X16872476Y-13462024D01*
X16882000Y-13433452D01*
X16891524Y-13385833D01*
X16891524Y-13347738D01*
X16882000Y-13300119D01*
X16872476Y-13271548D01*
X16862952Y-13252500D01*
X16843905Y-13223928D01*
X16834381Y-13214405D01*
D14*
X11827000Y-13571500D02*
X11827000Y-13661500D01*
X11782000Y-13616500D02*
X11872000Y-13616500D01*
D11*
X12167714Y-13506976D02*
X12186762Y-13506976D01*
X12205809Y-13516500D01*
X12215333Y-13526024D01*
X12224857Y-13545071D01*
X12234381Y-13583167D01*
X12234381Y-13630786D01*
X12224857Y-13668881D01*
X12215333Y-13687928D01*
X12205809Y-13697452D01*
X12186762Y-13706976D01*
X12167714Y-13706976D01*
X12148667Y-13697452D01*
X12139143Y-13687928D01*
X12129619Y-13668881D01*
X12120095Y-13630786D01*
X12120095Y-13583167D01*
X12129619Y-13545071D01*
X12139143Y-13526024D01*
X12148667Y-13516500D01*
X12167714Y-13506976D01*
X12320095Y-13687928D02*
X12329619Y-13697452D01*
X12320095Y-13706976D01*
X12310571Y-13697452D01*
X12320095Y-13687928D01*
X12320095Y-13706976D01*
X12424857Y-13706976D02*
X12462952Y-13706976D01*
X12482000Y-13697452D01*
X12491524Y-13687928D01*
X12510571Y-13659357D01*
X12520095Y-13621262D01*
X12520095Y-13545071D01*
X12510571Y-13526024D01*
X12501048Y-13516500D01*
X12482000Y-13506976D01*
X12443905Y-13506976D01*
X12424857Y-13516500D01*
X12415333Y-13526024D01*
X12405809Y-13545071D01*
X12405809Y-13592690D01*
X12415333Y-13611738D01*
X12424857Y-13621262D01*
X12443905Y-13630786D01*
X12482000Y-13630786D01*
X12501048Y-13621262D01*
X12510571Y-13611738D01*
X12520095Y-13592690D01*
X12643905Y-13506976D02*
X12662952Y-13506976D01*
X12682000Y-13516500D01*
X12691524Y-13526024D01*
X12701048Y-13545071D01*
X12710571Y-13583167D01*
X12710571Y-13630786D01*
X12701048Y-13668881D01*
X12691524Y-13687928D01*
X12682000Y-13697452D01*
X12662952Y-13706976D01*
X12643905Y-13706976D01*
X12624857Y-13697452D01*
X12615333Y-13687928D01*
X12605809Y-13668881D01*
X12596286Y-13630786D01*
X12596286Y-13583167D01*
X12605809Y-13545071D01*
X12615333Y-13526024D01*
X12624857Y-13516500D01*
X12643905Y-13506976D01*
X12834381Y-13506976D02*
X12853428Y-13506976D01*
X12872476Y-13516500D01*
X12882000Y-13526024D01*
X12891524Y-13545071D01*
X12901048Y-13583167D01*
X12901048Y-13630786D01*
X12891524Y-13668881D01*
X12882000Y-13687928D01*
X12872476Y-13697452D01*
X12853428Y-13706976D01*
X12834381Y-13706976D01*
X12815333Y-13697452D01*
X12805809Y-13687928D01*
X12796286Y-13668881D01*
X12786762Y-13630786D01*
X12786762Y-13583167D01*
X12796286Y-13545071D01*
X12805809Y-13526024D01*
X12815333Y-13516500D01*
X12834381Y-13506976D01*
X12986762Y-13706976D02*
X12986762Y-13573643D01*
X12986762Y-13592690D02*
X12996286Y-13583167D01*
X13015333Y-13573643D01*
X13043905Y-13573643D01*
X13062952Y-13583167D01*
X13072476Y-13602214D01*
X13072476Y-13706976D01*
X13072476Y-13602214D02*
X13082000Y-13583167D01*
X13101048Y-13573643D01*
X13129619Y-13573643D01*
X13148667Y-13583167D01*
X13158190Y-13602214D01*
X13158190Y-13706976D01*
X13253428Y-13706976D02*
X13253428Y-13573643D01*
X13253428Y-13592690D02*
X13262952Y-13583167D01*
X13282000Y-13573643D01*
X13310571Y-13573643D01*
X13329619Y-13583167D01*
X13339143Y-13602214D01*
X13339143Y-13706976D01*
X13339143Y-13602214D02*
X13348667Y-13583167D01*
X13367714Y-13573643D01*
X13396286Y-13573643D01*
X13415333Y-13583167D01*
X13424857Y-13602214D01*
X13424857Y-13706976D01*
X13815333Y-13497452D02*
X13643905Y-13754595D01*
X14072476Y-13506976D02*
X14091524Y-13506976D01*
X14110571Y-13516500D01*
X14120095Y-13526024D01*
X14129619Y-13545071D01*
X14139143Y-13583167D01*
X14139143Y-13630786D01*
X14129619Y-13668881D01*
X14120095Y-13687928D01*
X14110571Y-13697452D01*
X14091524Y-13706976D01*
X14072476Y-13706976D01*
X14053428Y-13697452D01*
X14043905Y-13687928D01*
X14034381Y-13668881D01*
X14024857Y-13630786D01*
X14024857Y-13583167D01*
X14034381Y-13545071D01*
X14043905Y-13526024D01*
X14053428Y-13516500D01*
X14072476Y-13506976D01*
X14224857Y-13687928D02*
X14234381Y-13697452D01*
X14224857Y-13706976D01*
X14215333Y-13697452D01*
X14224857Y-13687928D01*
X14224857Y-13706976D01*
X14358190Y-13506976D02*
X14377238Y-13506976D01*
X14396286Y-13516500D01*
X14405809Y-13526024D01*
X14415333Y-13545071D01*
X14424857Y-13583167D01*
X14424857Y-13630786D01*
X14415333Y-13668881D01*
X14405809Y-13687928D01*
X14396286Y-13697452D01*
X14377238Y-13706976D01*
X14358190Y-13706976D01*
X14339143Y-13697452D01*
X14329619Y-13687928D01*
X14320095Y-13668881D01*
X14310571Y-13630786D01*
X14310571Y-13583167D01*
X14320095Y-13545071D01*
X14329619Y-13526024D01*
X14339143Y-13516500D01*
X14358190Y-13506976D01*
X14491524Y-13506976D02*
X14615333Y-13506976D01*
X14548667Y-13583167D01*
X14577238Y-13583167D01*
X14596286Y-13592690D01*
X14605809Y-13602214D01*
X14615333Y-13621262D01*
X14615333Y-13668881D01*
X14605809Y-13687928D01*
X14596286Y-13697452D01*
X14577238Y-13706976D01*
X14520095Y-13706976D01*
X14501048Y-13697452D01*
X14491524Y-13687928D01*
X14796286Y-13506976D02*
X14701048Y-13506976D01*
X14691524Y-13602214D01*
X14701048Y-13592690D01*
X14720095Y-13583167D01*
X14767714Y-13583167D01*
X14786762Y-13592690D01*
X14796286Y-13602214D01*
X14805809Y-13621262D01*
X14805809Y-13668881D01*
X14796286Y-13687928D01*
X14786762Y-13697452D01*
X14767714Y-13706976D01*
X14720095Y-13706976D01*
X14701048Y-13697452D01*
X14691524Y-13687928D01*
X14977238Y-13573643D02*
X14977238Y-13706976D01*
X14929619Y-13497452D02*
X14882000Y-13640309D01*
X15005809Y-13640309D01*
X15072476Y-13506976D02*
X15072476Y-13545071D01*
X15148667Y-13506976D02*
X15148667Y-13545071D01*
X15443905Y-13783167D02*
X15434381Y-13773643D01*
X15415333Y-13745071D01*
X15405809Y-13726024D01*
X15396286Y-13697452D01*
X15386762Y-13649833D01*
X15386762Y-13611738D01*
X15396286Y-13564119D01*
X15405809Y-13535548D01*
X15415333Y-13516500D01*
X15434381Y-13487928D01*
X15443905Y-13478405D01*
X15605809Y-13573643D02*
X15605809Y-13706976D01*
X15558190Y-13497452D02*
X15510571Y-13640309D01*
X15634381Y-13640309D01*
X15862952Y-13706976D02*
X15862952Y-13506976D01*
X15948667Y-13706976D02*
X15948667Y-13602214D01*
X15939143Y-13583167D01*
X15920095Y-13573643D01*
X15891524Y-13573643D01*
X15872476Y-13583167D01*
X15862952Y-13592690D01*
X16072476Y-13706976D02*
X16053428Y-13697452D01*
X16043905Y-13687928D01*
X16034381Y-13668881D01*
X16034381Y-13611738D01*
X16043905Y-13592690D01*
X16053428Y-13583167D01*
X16072476Y-13573643D01*
X16101048Y-13573643D01*
X16120095Y-13583167D01*
X16129619Y-13592690D01*
X16139143Y-13611738D01*
X16139143Y-13668881D01*
X16129619Y-13687928D01*
X16120095Y-13697452D01*
X16101048Y-13706976D01*
X16072476Y-13706976D01*
X16253428Y-13706976D02*
X16234381Y-13697452D01*
X16224857Y-13678405D01*
X16224857Y-13506976D01*
X16405809Y-13697452D02*
X16386762Y-13706976D01*
X16348667Y-13706976D01*
X16329619Y-13697452D01*
X16320095Y-13678405D01*
X16320095Y-13602214D01*
X16329619Y-13583167D01*
X16348667Y-13573643D01*
X16386762Y-13573643D01*
X16405809Y-13583167D01*
X16415333Y-13602214D01*
X16415333Y-13621262D01*
X16320095Y-13640309D01*
X16491524Y-13697452D02*
X16510571Y-13706976D01*
X16548667Y-13706976D01*
X16567714Y-13697452D01*
X16577238Y-13678405D01*
X16577238Y-13668881D01*
X16567714Y-13649833D01*
X16548667Y-13640309D01*
X16520095Y-13640309D01*
X16501048Y-13630786D01*
X16491524Y-13611738D01*
X16491524Y-13602214D01*
X16501048Y-13583167D01*
X16520095Y-13573643D01*
X16548667Y-13573643D01*
X16567714Y-13583167D01*
X16643905Y-13783167D02*
X16653428Y-13773643D01*
X16672476Y-13745071D01*
X16682000Y-13726024D01*
X16691524Y-13697452D01*
X16701048Y-13649833D01*
X16701048Y-13611738D01*
X16691524Y-13564119D01*
X16682000Y-13535548D01*
X16672476Y-13516500D01*
X16653428Y-13487928D01*
X16643905Y-13478405D01*
D15*
X11857356Y-13915856D02*
X11857356Y-13845144D01*
X11786644Y-13845144D01*
X11786644Y-13915856D01*
X11857356Y-13915856D01*
D11*
X12234381Y-13970976D02*
X12120095Y-13970976D01*
X12177238Y-13970976D02*
X12177238Y-13770976D01*
X12158190Y-13799548D01*
X12139143Y-13818595D01*
X12120095Y-13828119D01*
X12320095Y-13951928D02*
X12329619Y-13961452D01*
X12320095Y-13970976D01*
X12310571Y-13961452D01*
X12320095Y-13951928D01*
X12320095Y-13970976D01*
X12453428Y-13770976D02*
X12472476Y-13770976D01*
X12491524Y-13780500D01*
X12501048Y-13790024D01*
X12510571Y-13809071D01*
X12520095Y-13847167D01*
X12520095Y-13894786D01*
X12510571Y-13932881D01*
X12501048Y-13951928D01*
X12491524Y-13961452D01*
X12472476Y-13970976D01*
X12453428Y-13970976D01*
X12434381Y-13961452D01*
X12424857Y-13951928D01*
X12415333Y-13932881D01*
X12405809Y-13894786D01*
X12405809Y-13847167D01*
X12415333Y-13809071D01*
X12424857Y-13790024D01*
X12434381Y-13780500D01*
X12453428Y-13770976D01*
X12643905Y-13770976D02*
X12662952Y-13770976D01*
X12682000Y-13780500D01*
X12691524Y-13790024D01*
X12701048Y-13809071D01*
X12710571Y-13847167D01*
X12710571Y-13894786D01*
X12701048Y-13932881D01*
X12691524Y-13951928D01*
X12682000Y-13961452D01*
X12662952Y-13970976D01*
X12643905Y-13970976D01*
X12624857Y-13961452D01*
X12615333Y-13951928D01*
X12605809Y-13932881D01*
X12596286Y-13894786D01*
X12596286Y-13847167D01*
X12605809Y-13809071D01*
X12615333Y-13790024D01*
X12624857Y-13780500D01*
X12643905Y-13770976D01*
X12834381Y-13770976D02*
X12853428Y-13770976D01*
X12872476Y-13780500D01*
X12882000Y-13790024D01*
X12891524Y-13809071D01*
X12901048Y-13847167D01*
X12901048Y-13894786D01*
X12891524Y-13932881D01*
X12882000Y-13951928D01*
X12872476Y-13961452D01*
X12853428Y-13970976D01*
X12834381Y-13970976D01*
X12815333Y-13961452D01*
X12805809Y-13951928D01*
X12796286Y-13932881D01*
X12786762Y-13894786D01*
X12786762Y-13847167D01*
X12796286Y-13809071D01*
X12805809Y-13790024D01*
X12815333Y-13780500D01*
X12834381Y-13770976D01*
X12986762Y-13970976D02*
X12986762Y-13837643D01*
X12986762Y-13856690D02*
X12996286Y-13847167D01*
X13015333Y-13837643D01*
X13043905Y-13837643D01*
X13062952Y-13847167D01*
X13072476Y-13866214D01*
X13072476Y-13970976D01*
X13072476Y-13866214D02*
X13082000Y-13847167D01*
X13101048Y-13837643D01*
X13129619Y-13837643D01*
X13148667Y-13847167D01*
X13158190Y-13866214D01*
X13158190Y-13970976D01*
X13253428Y-13970976D02*
X13253428Y-13837643D01*
X13253428Y-13856690D02*
X13262952Y-13847167D01*
X13282000Y-13837643D01*
X13310571Y-13837643D01*
X13329619Y-13847167D01*
X13339143Y-13866214D01*
X13339143Y-13970976D01*
X13339143Y-13866214D02*
X13348667Y-13847167D01*
X13367714Y-13837643D01*
X13396286Y-13837643D01*
X13415333Y-13847167D01*
X13424857Y-13866214D01*
X13424857Y-13970976D01*
X13815333Y-13761452D02*
X13643905Y-14018595D01*
X14072476Y-13770976D02*
X14091524Y-13770976D01*
X14110571Y-13780500D01*
X14120095Y-13790024D01*
X14129619Y-13809071D01*
X14139143Y-13847167D01*
X14139143Y-13894786D01*
X14129619Y-13932881D01*
X14120095Y-13951928D01*
X14110571Y-13961452D01*
X14091524Y-13970976D01*
X14072476Y-13970976D01*
X14053428Y-13961452D01*
X14043905Y-13951928D01*
X14034381Y-13932881D01*
X14024857Y-13894786D01*
X14024857Y-13847167D01*
X14034381Y-13809071D01*
X14043905Y-13790024D01*
X14053428Y-13780500D01*
X14072476Y-13770976D01*
X14224857Y-13951928D02*
X14234381Y-13961452D01*
X14224857Y-13970976D01*
X14215333Y-13961452D01*
X14224857Y-13951928D01*
X14224857Y-13970976D01*
X14358190Y-13770976D02*
X14377238Y-13770976D01*
X14396286Y-13780500D01*
X14405809Y-13790024D01*
X14415333Y-13809071D01*
X14424857Y-13847167D01*
X14424857Y-13894786D01*
X14415333Y-13932881D01*
X14405809Y-13951928D01*
X14396286Y-13961452D01*
X14377238Y-13970976D01*
X14358190Y-13970976D01*
X14339143Y-13961452D01*
X14329619Y-13951928D01*
X14320095Y-13932881D01*
X14310571Y-13894786D01*
X14310571Y-13847167D01*
X14320095Y-13809071D01*
X14329619Y-13790024D01*
X14339143Y-13780500D01*
X14358190Y-13770976D01*
X14491524Y-13770976D02*
X14615333Y-13770976D01*
X14548667Y-13847167D01*
X14577238Y-13847167D01*
X14596286Y-13856690D01*
X14605809Y-13866214D01*
X14615333Y-13885262D01*
X14615333Y-13932881D01*
X14605809Y-13951928D01*
X14596286Y-13961452D01*
X14577238Y-13970976D01*
X14520095Y-13970976D01*
X14501048Y-13961452D01*
X14491524Y-13951928D01*
X14710571Y-13970976D02*
X14748667Y-13970976D01*
X14767714Y-13961452D01*
X14777238Y-13951928D01*
X14796286Y-13923357D01*
X14805809Y-13885262D01*
X14805809Y-13809071D01*
X14796286Y-13790024D01*
X14786762Y-13780500D01*
X14767714Y-13770976D01*
X14729619Y-13770976D01*
X14710571Y-13780500D01*
X14701048Y-13790024D01*
X14691524Y-13809071D01*
X14691524Y-13856690D01*
X14701048Y-13875738D01*
X14710571Y-13885262D01*
X14729619Y-13894786D01*
X14767714Y-13894786D01*
X14786762Y-13885262D01*
X14796286Y-13875738D01*
X14805809Y-13856690D01*
X14977238Y-13837643D02*
X14977238Y-13970976D01*
X14929619Y-13761452D02*
X14882000Y-13904309D01*
X15005809Y-13904309D01*
X15072476Y-13770976D02*
X15072476Y-13809071D01*
X15148667Y-13770976D02*
X15148667Y-13809071D01*
X15443905Y-14047167D02*
X15434381Y-14037643D01*
X15415333Y-14009071D01*
X15405809Y-13990024D01*
X15396286Y-13961452D01*
X15386762Y-13913833D01*
X15386762Y-13875738D01*
X15396286Y-13828119D01*
X15405809Y-13799548D01*
X15415333Y-13780500D01*
X15434381Y-13751928D01*
X15443905Y-13742405D01*
X15529619Y-13970976D02*
X15567714Y-13970976D01*
X15586762Y-13961452D01*
X15596286Y-13951928D01*
X15615333Y-13923357D01*
X15624857Y-13885262D01*
X15624857Y-13809071D01*
X15615333Y-13790024D01*
X15605809Y-13780500D01*
X15586762Y-13770976D01*
X15548667Y-13770976D01*
X15529619Y-13780500D01*
X15520095Y-13790024D01*
X15510571Y-13809071D01*
X15510571Y-13856690D01*
X15520095Y-13875738D01*
X15529619Y-13885262D01*
X15548667Y-13894786D01*
X15586762Y-13894786D01*
X15605809Y-13885262D01*
X15615333Y-13875738D01*
X15624857Y-13856690D01*
X15691524Y-13770976D02*
X15824857Y-13770976D01*
X15739143Y-13970976D01*
X16053428Y-13970976D02*
X16053428Y-13770976D01*
X16139143Y-13970976D02*
X16139143Y-13866214D01*
X16129619Y-13847167D01*
X16110571Y-13837643D01*
X16082000Y-13837643D01*
X16062952Y-13847167D01*
X16053428Y-13856690D01*
X16262952Y-13970976D02*
X16243905Y-13961452D01*
X16234381Y-13951928D01*
X16224857Y-13932881D01*
X16224857Y-13875738D01*
X16234381Y-13856690D01*
X16243905Y-13847167D01*
X16262952Y-13837643D01*
X16291524Y-13837643D01*
X16310571Y-13847167D01*
X16320095Y-13856690D01*
X16329619Y-13875738D01*
X16329619Y-13932881D01*
X16320095Y-13951928D01*
X16310571Y-13961452D01*
X16291524Y-13970976D01*
X16262952Y-13970976D01*
X16443905Y-13970976D02*
X16424857Y-13961452D01*
X16415333Y-13942405D01*
X16415333Y-13770976D01*
X16596286Y-13961452D02*
X16577238Y-13970976D01*
X16539143Y-13970976D01*
X16520095Y-13961452D01*
X16510571Y-13942405D01*
X16510571Y-13866214D01*
X16520095Y-13847167D01*
X16539143Y-13837643D01*
X16577238Y-13837643D01*
X16596286Y-13847167D01*
X16605809Y-13866214D01*
X16605809Y-13885262D01*
X16510571Y-13904309D01*
X16682000Y-13961452D02*
X16701048Y-13970976D01*
X16739143Y-13970976D01*
X16758190Y-13961452D01*
X16767714Y-13942405D01*
X16767714Y-13932881D01*
X16758190Y-13913833D01*
X16739143Y-13904309D01*
X16710571Y-13904309D01*
X16691524Y-13894786D01*
X16682000Y-13875738D01*
X16682000Y-13866214D01*
X16691524Y-13847167D01*
X16710571Y-13837643D01*
X16739143Y-13837643D01*
X16758190Y-13847167D01*
X16834381Y-14047167D02*
X16843905Y-14037643D01*
X16862952Y-14009071D01*
X16872476Y-13990024D01*
X16882000Y-13961452D01*
X16891524Y-13913833D01*
X16891524Y-13875738D01*
X16882000Y-13828119D01*
X16872476Y-13799548D01*
X16862952Y-13780500D01*
X16843905Y-13751928D01*
X16834381Y-13742405D01*
M02*
