G04 #@! TF.GenerationSoftware,KiCad,Pcbnew,(6.0.6)*
G04 #@! TF.CreationDate,2022-09-15T19:04:13+02:00*
G04 #@! TF.ProjectId,PC128S_IDE,50433132-3853-45f4-9944-452e6b696361,rev?*
G04 #@! TF.SameCoordinates,Original*
G04 #@! TF.FileFunction,Legend,Top*
G04 #@! TF.FilePolarity,Positive*
%FSLAX46Y46*%
G04 Gerber Fmt 4.6, Leading zero omitted, Abs format (unit mm)*
G04 Created by KiCad (PCBNEW (6.0.6)) date 2022-09-15 19:04:13*
%MOMM*%
%LPD*%
G01*
G04 APERTURE LIST*
%ADD10C,0.150000*%
%ADD11C,0.300000*%
%ADD12C,0.120000*%
G04 APERTURE END LIST*
D10*
X211422142Y-106795000D02*
X211326904Y-106747380D01*
X211184047Y-106747380D01*
X211041190Y-106795000D01*
X210945952Y-106890238D01*
X210898333Y-106985476D01*
X210850714Y-107175952D01*
X210850714Y-107318809D01*
X210898333Y-107509285D01*
X210945952Y-107604523D01*
X211041190Y-107699761D01*
X211184047Y-107747380D01*
X211279285Y-107747380D01*
X211422142Y-107699761D01*
X211469761Y-107652142D01*
X211469761Y-107318809D01*
X211279285Y-107318809D01*
X211898333Y-107080714D02*
X211898333Y-107747380D01*
X211898333Y-107175952D02*
X211945952Y-107128333D01*
X212041190Y-107080714D01*
X212184047Y-107080714D01*
X212279285Y-107128333D01*
X212326904Y-107223571D01*
X212326904Y-107747380D01*
X213231666Y-107747380D02*
X213231666Y-106747380D01*
X213231666Y-107699761D02*
X213136428Y-107747380D01*
X212945952Y-107747380D01*
X212850714Y-107699761D01*
X212803095Y-107652142D01*
X212755476Y-107556904D01*
X212755476Y-107271190D01*
X212803095Y-107175952D01*
X212850714Y-107128333D01*
X212945952Y-107080714D01*
X213136428Y-107080714D01*
X213231666Y-107128333D01*
X212239642Y-97666880D02*
X211763452Y-97666880D01*
X211715833Y-98143071D01*
X211763452Y-98095452D01*
X211858690Y-98047833D01*
X212096785Y-98047833D01*
X212192023Y-98095452D01*
X212239642Y-98143071D01*
X212287261Y-98238309D01*
X212287261Y-98476404D01*
X212239642Y-98571642D01*
X212192023Y-98619261D01*
X212096785Y-98666880D01*
X211858690Y-98666880D01*
X211763452Y-98619261D01*
X211715833Y-98571642D01*
X212620595Y-98000214D02*
X212858690Y-98666880D01*
X213096785Y-98000214D01*
X151601428Y-112752142D02*
X151553809Y-112799761D01*
X151410952Y-112847380D01*
X151315714Y-112847380D01*
X151172857Y-112799761D01*
X151077619Y-112704523D01*
X151030000Y-112609285D01*
X150982380Y-112418809D01*
X150982380Y-112275952D01*
X151030000Y-112085476D01*
X151077619Y-111990238D01*
X151172857Y-111895000D01*
X151315714Y-111847380D01*
X151410952Y-111847380D01*
X151553809Y-111895000D01*
X151601428Y-111942619D01*
X152172857Y-112847380D02*
X152077619Y-112799761D01*
X152030000Y-112752142D01*
X151982380Y-112656904D01*
X151982380Y-112371190D01*
X152030000Y-112275952D01*
X152077619Y-112228333D01*
X152172857Y-112180714D01*
X152315714Y-112180714D01*
X152410952Y-112228333D01*
X152458571Y-112275952D01*
X152506190Y-112371190D01*
X152506190Y-112656904D01*
X152458571Y-112752142D01*
X152410952Y-112799761D01*
X152315714Y-112847380D01*
X152172857Y-112847380D01*
X152934761Y-112180714D02*
X152934761Y-112847380D01*
X152934761Y-112275952D02*
X152982380Y-112228333D01*
X153077619Y-112180714D01*
X153220476Y-112180714D01*
X153315714Y-112228333D01*
X153363333Y-112323571D01*
X153363333Y-112847380D01*
X153839523Y-112180714D02*
X153839523Y-112847380D01*
X153839523Y-112275952D02*
X153887142Y-112228333D01*
X153982380Y-112180714D01*
X154125238Y-112180714D01*
X154220476Y-112228333D01*
X154268095Y-112323571D01*
X154268095Y-112847380D01*
X155125238Y-112799761D02*
X155030000Y-112847380D01*
X154839523Y-112847380D01*
X154744285Y-112799761D01*
X154696666Y-112704523D01*
X154696666Y-112323571D01*
X154744285Y-112228333D01*
X154839523Y-112180714D01*
X155030000Y-112180714D01*
X155125238Y-112228333D01*
X155172857Y-112323571D01*
X155172857Y-112418809D01*
X154696666Y-112514047D01*
X156030000Y-112799761D02*
X155934761Y-112847380D01*
X155744285Y-112847380D01*
X155649047Y-112799761D01*
X155601428Y-112752142D01*
X155553809Y-112656904D01*
X155553809Y-112371190D01*
X155601428Y-112275952D01*
X155649047Y-112228333D01*
X155744285Y-112180714D01*
X155934761Y-112180714D01*
X156030000Y-112228333D01*
X156315714Y-112180714D02*
X156696666Y-112180714D01*
X156458571Y-111847380D02*
X156458571Y-112704523D01*
X156506190Y-112799761D01*
X156601428Y-112847380D01*
X156696666Y-112847380D01*
X157791904Y-112847380D02*
X157791904Y-111847380D01*
X158172857Y-111847380D01*
X158268095Y-111895000D01*
X158315714Y-111942619D01*
X158363333Y-112037857D01*
X158363333Y-112180714D01*
X158315714Y-112275952D01*
X158268095Y-112323571D01*
X158172857Y-112371190D01*
X157791904Y-112371190D01*
X158791904Y-112847380D02*
X158791904Y-112180714D01*
X158791904Y-111847380D02*
X158744285Y-111895000D01*
X158791904Y-111942619D01*
X158839523Y-111895000D01*
X158791904Y-111847380D01*
X158791904Y-111942619D01*
X159268095Y-112180714D02*
X159268095Y-112847380D01*
X159268095Y-112275952D02*
X159315714Y-112228333D01*
X159410952Y-112180714D01*
X159553809Y-112180714D01*
X159649047Y-112228333D01*
X159696666Y-112323571D01*
X159696666Y-112847380D01*
X160696666Y-112847380D02*
X160125238Y-112847380D01*
X160410952Y-112847380D02*
X160410952Y-111847380D01*
X160315714Y-111990238D01*
X160220476Y-112085476D01*
X160125238Y-112133095D01*
X161315714Y-111847380D02*
X161410952Y-111847380D01*
X161506190Y-111895000D01*
X161553809Y-111942619D01*
X161601428Y-112037857D01*
X161649047Y-112228333D01*
X161649047Y-112466428D01*
X161601428Y-112656904D01*
X161553809Y-112752142D01*
X161506190Y-112799761D01*
X161410952Y-112847380D01*
X161315714Y-112847380D01*
X161220476Y-112799761D01*
X161172857Y-112752142D01*
X161125238Y-112656904D01*
X161077619Y-112466428D01*
X161077619Y-112228333D01*
X161125238Y-112037857D01*
X161172857Y-111942619D01*
X161220476Y-111895000D01*
X161315714Y-111847380D01*
X162696666Y-112180714D02*
X163077619Y-112180714D01*
X162839523Y-111847380D02*
X162839523Y-112704523D01*
X162887142Y-112799761D01*
X162982380Y-112847380D01*
X163077619Y-112847380D01*
X163553809Y-112847380D02*
X163458571Y-112799761D01*
X163410952Y-112752142D01*
X163363333Y-112656904D01*
X163363333Y-112371190D01*
X163410952Y-112275952D01*
X163458571Y-112228333D01*
X163553809Y-112180714D01*
X163696666Y-112180714D01*
X163791904Y-112228333D01*
X163839523Y-112275952D01*
X163887142Y-112371190D01*
X163887142Y-112656904D01*
X163839523Y-112752142D01*
X163791904Y-112799761D01*
X163696666Y-112847380D01*
X163553809Y-112847380D01*
X165649047Y-112847380D02*
X165315714Y-112371190D01*
X165077619Y-112847380D02*
X165077619Y-111847380D01*
X165458571Y-111847380D01*
X165553809Y-111895000D01*
X165601428Y-111942619D01*
X165649047Y-112037857D01*
X165649047Y-112180714D01*
X165601428Y-112275952D01*
X165553809Y-112323571D01*
X165458571Y-112371190D01*
X165077619Y-112371190D01*
X165982380Y-111847380D02*
X166601428Y-111847380D01*
X166268095Y-112228333D01*
X166410952Y-112228333D01*
X166506190Y-112275952D01*
X166553809Y-112323571D01*
X166601428Y-112418809D01*
X166601428Y-112656904D01*
X166553809Y-112752142D01*
X166506190Y-112799761D01*
X166410952Y-112847380D01*
X166125238Y-112847380D01*
X166030000Y-112799761D01*
X165982380Y-112752142D01*
X166934761Y-111847380D02*
X167601428Y-111847380D01*
X167172857Y-112847380D01*
X168744285Y-112847380D02*
X168744285Y-112180714D01*
X168744285Y-111847380D02*
X168696666Y-111895000D01*
X168744285Y-111942619D01*
X168791904Y-111895000D01*
X168744285Y-111847380D01*
X168744285Y-111942619D01*
X169220476Y-112180714D02*
X169220476Y-112847380D01*
X169220476Y-112275952D02*
X169268095Y-112228333D01*
X169363333Y-112180714D01*
X169506190Y-112180714D01*
X169601428Y-112228333D01*
X169649047Y-112323571D01*
X169649047Y-112847380D01*
X171458571Y-112752142D02*
X171410952Y-112799761D01*
X171268095Y-112847380D01*
X171172857Y-112847380D01*
X171030000Y-112799761D01*
X170934761Y-112704523D01*
X170887142Y-112609285D01*
X170839523Y-112418809D01*
X170839523Y-112275952D01*
X170887142Y-112085476D01*
X170934761Y-111990238D01*
X171030000Y-111895000D01*
X171172857Y-111847380D01*
X171268095Y-111847380D01*
X171410952Y-111895000D01*
X171458571Y-111942619D01*
X172030000Y-112847380D02*
X171934761Y-112799761D01*
X171887142Y-112752142D01*
X171839523Y-112656904D01*
X171839523Y-112371190D01*
X171887142Y-112275952D01*
X171934761Y-112228333D01*
X172030000Y-112180714D01*
X172172857Y-112180714D01*
X172268095Y-112228333D01*
X172315714Y-112275952D01*
X172363333Y-112371190D01*
X172363333Y-112656904D01*
X172315714Y-112752142D01*
X172268095Y-112799761D01*
X172172857Y-112847380D01*
X172030000Y-112847380D01*
X172791904Y-112847380D02*
X172791904Y-112180714D01*
X172791904Y-112275952D02*
X172839523Y-112228333D01*
X172934761Y-112180714D01*
X173077619Y-112180714D01*
X173172857Y-112228333D01*
X173220476Y-112323571D01*
X173220476Y-112847380D01*
X173220476Y-112323571D02*
X173268095Y-112228333D01*
X173363333Y-112180714D01*
X173506190Y-112180714D01*
X173601428Y-112228333D01*
X173649047Y-112323571D01*
X173649047Y-112847380D01*
X174125238Y-112180714D02*
X174125238Y-113180714D01*
X174125238Y-112228333D02*
X174220476Y-112180714D01*
X174410952Y-112180714D01*
X174506190Y-112228333D01*
X174553809Y-112275952D01*
X174601428Y-112371190D01*
X174601428Y-112656904D01*
X174553809Y-112752142D01*
X174506190Y-112799761D01*
X174410952Y-112847380D01*
X174220476Y-112847380D01*
X174125238Y-112799761D01*
X175458571Y-112847380D02*
X175458571Y-112323571D01*
X175410952Y-112228333D01*
X175315714Y-112180714D01*
X175125238Y-112180714D01*
X175030000Y-112228333D01*
X175458571Y-112799761D02*
X175363333Y-112847380D01*
X175125238Y-112847380D01*
X175030000Y-112799761D01*
X174982380Y-112704523D01*
X174982380Y-112609285D01*
X175030000Y-112514047D01*
X175125238Y-112466428D01*
X175363333Y-112466428D01*
X175458571Y-112418809D01*
X176363333Y-112799761D02*
X176268095Y-112847380D01*
X176077619Y-112847380D01*
X175982380Y-112799761D01*
X175934761Y-112752142D01*
X175887142Y-112656904D01*
X175887142Y-112371190D01*
X175934761Y-112275952D01*
X175982380Y-112228333D01*
X176077619Y-112180714D01*
X176268095Y-112180714D01*
X176363333Y-112228333D01*
X176649047Y-112180714D02*
X177030000Y-112180714D01*
X176791904Y-111847380D02*
X176791904Y-112704523D01*
X176839523Y-112799761D01*
X176934761Y-112847380D01*
X177030000Y-112847380D01*
X178077619Y-111799761D02*
X177220476Y-113085476D01*
X178410952Y-112847380D02*
X178410952Y-111847380D01*
X178791904Y-111847380D01*
X178887142Y-111895000D01*
X178934761Y-111942619D01*
X178982380Y-112037857D01*
X178982380Y-112180714D01*
X178934761Y-112275952D01*
X178887142Y-112323571D01*
X178791904Y-112371190D01*
X178410952Y-112371190D01*
X179982380Y-112752142D02*
X179934761Y-112799761D01*
X179791904Y-112847380D01*
X179696666Y-112847380D01*
X179553809Y-112799761D01*
X179458571Y-112704523D01*
X179410952Y-112609285D01*
X179363333Y-112418809D01*
X179363333Y-112275952D01*
X179410952Y-112085476D01*
X179458571Y-111990238D01*
X179553809Y-111895000D01*
X179696666Y-111847380D01*
X179791904Y-111847380D01*
X179934761Y-111895000D01*
X179982380Y-111942619D01*
X180934761Y-112847380D02*
X180363333Y-112847380D01*
X180649047Y-112847380D02*
X180649047Y-111847380D01*
X180553809Y-111990238D01*
X180458571Y-112085476D01*
X180363333Y-112133095D01*
X181315714Y-111942619D02*
X181363333Y-111895000D01*
X181458571Y-111847380D01*
X181696666Y-111847380D01*
X181791904Y-111895000D01*
X181839523Y-111942619D01*
X181887142Y-112037857D01*
X181887142Y-112133095D01*
X181839523Y-112275952D01*
X181268095Y-112847380D01*
X181887142Y-112847380D01*
X182458571Y-112275952D02*
X182363333Y-112228333D01*
X182315714Y-112180714D01*
X182268095Y-112085476D01*
X182268095Y-112037857D01*
X182315714Y-111942619D01*
X182363333Y-111895000D01*
X182458571Y-111847380D01*
X182649047Y-111847380D01*
X182744285Y-111895000D01*
X182791904Y-111942619D01*
X182839523Y-112037857D01*
X182839523Y-112085476D01*
X182791904Y-112180714D01*
X182744285Y-112228333D01*
X182649047Y-112275952D01*
X182458571Y-112275952D01*
X182363333Y-112323571D01*
X182315714Y-112371190D01*
X182268095Y-112466428D01*
X182268095Y-112656904D01*
X182315714Y-112752142D01*
X182363333Y-112799761D01*
X182458571Y-112847380D01*
X182649047Y-112847380D01*
X182744285Y-112799761D01*
X182791904Y-112752142D01*
X182839523Y-112656904D01*
X182839523Y-112466428D01*
X182791904Y-112371190D01*
X182744285Y-112323571D01*
X182649047Y-112275952D01*
X183220476Y-112799761D02*
X183363333Y-112847380D01*
X183601428Y-112847380D01*
X183696666Y-112799761D01*
X183744285Y-112752142D01*
X183791904Y-112656904D01*
X183791904Y-112561666D01*
X183744285Y-112466428D01*
X183696666Y-112418809D01*
X183601428Y-112371190D01*
X183410952Y-112323571D01*
X183315714Y-112275952D01*
X183268095Y-112228333D01*
X183220476Y-112133095D01*
X183220476Y-112037857D01*
X183268095Y-111942619D01*
X183315714Y-111895000D01*
X183410952Y-111847380D01*
X183649047Y-111847380D01*
X183791904Y-111895000D01*
X184839523Y-112180714D02*
X185220476Y-112180714D01*
X184982380Y-112847380D02*
X184982380Y-111990238D01*
X185030000Y-111895000D01*
X185125238Y-111847380D01*
X185220476Y-111847380D01*
X185696666Y-112847380D02*
X185601428Y-112799761D01*
X185553809Y-112752142D01*
X185506190Y-112656904D01*
X185506190Y-112371190D01*
X185553809Y-112275952D01*
X185601428Y-112228333D01*
X185696666Y-112180714D01*
X185839523Y-112180714D01*
X185934761Y-112228333D01*
X185982380Y-112275952D01*
X186030000Y-112371190D01*
X186030000Y-112656904D01*
X185982380Y-112752142D01*
X185934761Y-112799761D01*
X185839523Y-112847380D01*
X185696666Y-112847380D01*
X186458571Y-112847380D02*
X186458571Y-112180714D01*
X186458571Y-112371190D02*
X186506190Y-112275952D01*
X186553809Y-112228333D01*
X186649047Y-112180714D01*
X186744285Y-112180714D01*
X187696666Y-112180714D02*
X188077619Y-112180714D01*
X187839523Y-111847380D02*
X187839523Y-112704523D01*
X187887142Y-112799761D01*
X187982380Y-112847380D01*
X188077619Y-112847380D01*
X188791904Y-112799761D02*
X188696666Y-112847380D01*
X188506190Y-112847380D01*
X188410952Y-112799761D01*
X188363333Y-112704523D01*
X188363333Y-112323571D01*
X188410952Y-112228333D01*
X188506190Y-112180714D01*
X188696666Y-112180714D01*
X188791904Y-112228333D01*
X188839523Y-112323571D01*
X188839523Y-112418809D01*
X188363333Y-112514047D01*
X189220476Y-112799761D02*
X189315714Y-112847380D01*
X189506190Y-112847380D01*
X189601428Y-112799761D01*
X189649047Y-112704523D01*
X189649047Y-112656904D01*
X189601428Y-112561666D01*
X189506190Y-112514047D01*
X189363333Y-112514047D01*
X189268095Y-112466428D01*
X189220476Y-112371190D01*
X189220476Y-112323571D01*
X189268095Y-112228333D01*
X189363333Y-112180714D01*
X189506190Y-112180714D01*
X189601428Y-112228333D01*
X189934761Y-112180714D02*
X190315714Y-112180714D01*
X190077619Y-111847380D02*
X190077619Y-112704523D01*
X190125238Y-112799761D01*
X190220476Y-112847380D01*
X190315714Y-112847380D01*
X190649047Y-112847380D02*
X190649047Y-112180714D01*
X190649047Y-111847380D02*
X190601428Y-111895000D01*
X190649047Y-111942619D01*
X190696666Y-111895000D01*
X190649047Y-111847380D01*
X190649047Y-111942619D01*
X191125238Y-112180714D02*
X191125238Y-112847380D01*
X191125238Y-112275952D02*
X191172857Y-112228333D01*
X191268095Y-112180714D01*
X191410952Y-112180714D01*
X191506190Y-112228333D01*
X191553809Y-112323571D01*
X191553809Y-112847380D01*
X192458571Y-112180714D02*
X192458571Y-112990238D01*
X192410952Y-113085476D01*
X192363333Y-113133095D01*
X192268095Y-113180714D01*
X192125238Y-113180714D01*
X192030000Y-113133095D01*
X192458571Y-112799761D02*
X192363333Y-112847380D01*
X192172857Y-112847380D01*
X192077619Y-112799761D01*
X192030000Y-112752142D01*
X191982380Y-112656904D01*
X191982380Y-112371190D01*
X192030000Y-112275952D01*
X192077619Y-112228333D01*
X192172857Y-112180714D01*
X192363333Y-112180714D01*
X192458571Y-112228333D01*
X194220476Y-112847380D02*
X193649047Y-112847380D01*
X193934761Y-112847380D02*
X193934761Y-111847380D01*
X193839523Y-111990238D01*
X193744285Y-112085476D01*
X193649047Y-112133095D01*
X194649047Y-112847380D02*
X194649047Y-111847380D01*
X194982380Y-112561666D01*
X195315714Y-111847380D01*
X195315714Y-112847380D01*
X195791904Y-112847380D02*
X195791904Y-111847380D01*
X195791904Y-112323571D02*
X196363333Y-112323571D01*
X196363333Y-112847380D02*
X196363333Y-111847380D01*
X196744285Y-111847380D02*
X197410952Y-111847380D01*
X196744285Y-112847380D01*
X197410952Y-112847380D01*
X198982380Y-112799761D02*
X198887142Y-112847380D01*
X198696666Y-112847380D01*
X198601428Y-112799761D01*
X198553809Y-112752142D01*
X198506190Y-112656904D01*
X198506190Y-112371190D01*
X198553809Y-112275952D01*
X198601428Y-112228333D01*
X198696666Y-112180714D01*
X198887142Y-112180714D01*
X198982380Y-112228333D01*
X199553809Y-112847380D02*
X199458571Y-112799761D01*
X199410952Y-112704523D01*
X199410952Y-111847380D01*
X200077619Y-112847380D02*
X199982380Y-112799761D01*
X199934761Y-112752142D01*
X199887142Y-112656904D01*
X199887142Y-112371190D01*
X199934761Y-112275952D01*
X199982380Y-112228333D01*
X200077619Y-112180714D01*
X200220476Y-112180714D01*
X200315714Y-112228333D01*
X200363333Y-112275952D01*
X200410952Y-112371190D01*
X200410952Y-112656904D01*
X200363333Y-112752142D01*
X200315714Y-112799761D01*
X200220476Y-112847380D01*
X200077619Y-112847380D01*
X201268095Y-112799761D02*
X201172857Y-112847380D01*
X200982380Y-112847380D01*
X200887142Y-112799761D01*
X200839523Y-112752142D01*
X200791904Y-112656904D01*
X200791904Y-112371190D01*
X200839523Y-112275952D01*
X200887142Y-112228333D01*
X200982380Y-112180714D01*
X201172857Y-112180714D01*
X201268095Y-112228333D01*
X201696666Y-112847380D02*
X201696666Y-111847380D01*
X201791904Y-112466428D02*
X202077619Y-112847380D01*
X202077619Y-112180714D02*
X201696666Y-112561666D01*
X207732380Y-105965238D02*
X207732380Y-106441428D01*
X208208571Y-106489047D01*
X208160952Y-106441428D01*
X208113333Y-106346190D01*
X208113333Y-106108095D01*
X208160952Y-106012857D01*
X208208571Y-105965238D01*
X208303809Y-105917619D01*
X208541904Y-105917619D01*
X208637142Y-105965238D01*
X208684761Y-106012857D01*
X208732380Y-106108095D01*
X208732380Y-106346190D01*
X208684761Y-106441428D01*
X208637142Y-106489047D01*
X208065714Y-105584285D02*
X208732380Y-105346190D01*
X208065714Y-105108095D01*
X208065714Y-104108095D02*
X208065714Y-103727142D01*
X207732380Y-103965238D02*
X208589523Y-103965238D01*
X208684761Y-103917619D01*
X208732380Y-103822380D01*
X208732380Y-103727142D01*
X208065714Y-103393809D02*
X209065714Y-103393809D01*
X208113333Y-103393809D02*
X208065714Y-103298571D01*
X208065714Y-103108095D01*
X208113333Y-103012857D01*
X208160952Y-102965238D01*
X208256190Y-102917619D01*
X208541904Y-102917619D01*
X208637142Y-102965238D01*
X208684761Y-103012857D01*
X208732380Y-103108095D01*
X208732380Y-103298571D01*
X208684761Y-103393809D01*
X208732380Y-101727142D02*
X207732380Y-101727142D01*
X207732380Y-101346190D01*
X207780000Y-101250952D01*
X207827619Y-101203333D01*
X207922857Y-101155714D01*
X208065714Y-101155714D01*
X208160952Y-101203333D01*
X208208571Y-101250952D01*
X208256190Y-101346190D01*
X208256190Y-101727142D01*
X207827619Y-100774761D02*
X207780000Y-100727142D01*
X207732380Y-100631904D01*
X207732380Y-100393809D01*
X207780000Y-100298571D01*
X207827619Y-100250952D01*
X207922857Y-100203333D01*
X208018095Y-100203333D01*
X208160952Y-100250952D01*
X208732380Y-100822380D01*
X208732380Y-100203333D01*
X207732380Y-99584285D02*
X207732380Y-99489047D01*
X207780000Y-99393809D01*
X207827619Y-99346190D01*
X207922857Y-99298571D01*
X208113333Y-99250952D01*
X208351428Y-99250952D01*
X208541904Y-99298571D01*
X208637142Y-99346190D01*
X208684761Y-99393809D01*
X208732380Y-99489047D01*
X208732380Y-99584285D01*
X208684761Y-99679523D01*
X208637142Y-99727142D01*
X208541904Y-99774761D01*
X208351428Y-99822380D01*
X208113333Y-99822380D01*
X207922857Y-99774761D01*
X207827619Y-99727142D01*
X207780000Y-99679523D01*
X207732380Y-99584285D01*
D11*
X181940000Y-100778571D02*
X182940000Y-100778571D01*
X182297142Y-102278571D01*
X184154285Y-101278571D02*
X184154285Y-102278571D01*
X183797142Y-100707142D02*
X183440000Y-101778571D01*
X184368571Y-101778571D01*
X184940000Y-102278571D02*
X184940000Y-100778571D01*
X184940000Y-101492857D02*
X185797142Y-101492857D01*
X185797142Y-102278571D02*
X185797142Y-100778571D01*
X187368571Y-102135714D02*
X187297142Y-102207142D01*
X187082857Y-102278571D01*
X186940000Y-102278571D01*
X186725714Y-102207142D01*
X186582857Y-102064285D01*
X186511428Y-101921428D01*
X186440000Y-101635714D01*
X186440000Y-101421428D01*
X186511428Y-101135714D01*
X186582857Y-100992857D01*
X186725714Y-100850000D01*
X186940000Y-100778571D01*
X187082857Y-100778571D01*
X187297142Y-100850000D01*
X187368571Y-100921428D01*
X187797142Y-100778571D02*
X188654285Y-100778571D01*
X188225714Y-102278571D02*
X188225714Y-100778571D01*
X189440000Y-100778571D02*
X189582857Y-100778571D01*
X189725714Y-100850000D01*
X189797142Y-100921428D01*
X189868571Y-101064285D01*
X189940000Y-101350000D01*
X189940000Y-101707142D01*
X189868571Y-101992857D01*
X189797142Y-102135714D01*
X189725714Y-102207142D01*
X189582857Y-102278571D01*
X189440000Y-102278571D01*
X189297142Y-102207142D01*
X189225714Y-102135714D01*
X189154285Y-101992857D01*
X189082857Y-101707142D01*
X189082857Y-101350000D01*
X189154285Y-101064285D01*
X189225714Y-100921428D01*
X189297142Y-100850000D01*
X189440000Y-100778571D01*
X190511428Y-100921428D02*
X190582857Y-100850000D01*
X190725714Y-100778571D01*
X191082857Y-100778571D01*
X191225714Y-100850000D01*
X191297142Y-100921428D01*
X191368571Y-101064285D01*
X191368571Y-101207142D01*
X191297142Y-101421428D01*
X190440000Y-102278571D01*
X191368571Y-102278571D01*
D10*
X164115714Y-84907380D02*
X163544285Y-84907380D01*
X163830000Y-84907380D02*
X163830000Y-83907380D01*
X163734761Y-84050238D01*
X163639523Y-84145476D01*
X163544285Y-84193095D01*
X212439285Y-76620714D02*
X212439285Y-77287380D01*
X212201190Y-76239761D02*
X211963095Y-76954047D01*
X212582142Y-76954047D01*
X213153571Y-76287380D02*
X213248809Y-76287380D01*
X213344047Y-76335000D01*
X213391666Y-76382619D01*
X213439285Y-76477857D01*
X213486904Y-76668333D01*
X213486904Y-76906428D01*
X213439285Y-77096904D01*
X213391666Y-77192142D01*
X213344047Y-77239761D01*
X213248809Y-77287380D01*
X213153571Y-77287380D01*
X213058333Y-77239761D01*
X213010714Y-77192142D01*
X212963095Y-77096904D01*
X212915476Y-76906428D01*
X212915476Y-76668333D01*
X212963095Y-76477857D01*
X213010714Y-76382619D01*
X213058333Y-76335000D01*
X213153571Y-76287380D01*
X129730714Y-112562619D02*
X129778333Y-112515000D01*
X129873571Y-112467380D01*
X130111666Y-112467380D01*
X130206904Y-112515000D01*
X130254523Y-112562619D01*
X130302142Y-112657857D01*
X130302142Y-112753095D01*
X130254523Y-112895952D01*
X129683095Y-113467380D01*
X130302142Y-113467380D01*
X130730714Y-113467380D02*
X130730714Y-112467380D01*
X131064047Y-113181666D01*
X131397380Y-112467380D01*
X131397380Y-113467380D01*
X131873571Y-113467380D02*
X131873571Y-112467380D01*
X132302142Y-113467380D02*
X132302142Y-112943571D01*
X132254523Y-112848333D01*
X132159285Y-112800714D01*
X132016428Y-112800714D01*
X131921190Y-112848333D01*
X131873571Y-112895952D01*
X132683095Y-112800714D02*
X133206904Y-112800714D01*
X132683095Y-113467380D01*
X133206904Y-113467380D01*
X130302142Y-99497380D02*
X129730714Y-99497380D01*
X130016428Y-99497380D02*
X130016428Y-98497380D01*
X129921190Y-98640238D01*
X129825952Y-98735476D01*
X129730714Y-98783095D01*
X130730714Y-99497380D02*
X130730714Y-98497380D01*
X131064047Y-99211666D01*
X131397380Y-98497380D01*
X131397380Y-99497380D01*
X131873571Y-99497380D02*
X131873571Y-98497380D01*
X132302142Y-99497380D02*
X132302142Y-98973571D01*
X132254523Y-98878333D01*
X132159285Y-98830714D01*
X132016428Y-98830714D01*
X131921190Y-98878333D01*
X131873571Y-98925952D01*
X132683095Y-98830714D02*
X133206904Y-98830714D01*
X132683095Y-99497380D01*
X133206904Y-99497380D01*
X155225714Y-84272380D02*
X154654285Y-84272380D01*
X154940000Y-84272380D02*
X154940000Y-83272380D01*
X154844761Y-83415238D01*
X154749523Y-83510476D01*
X154654285Y-83558095D01*
X218892380Y-113416428D02*
X217892380Y-113416428D01*
X217892380Y-113035476D01*
X217940000Y-112940238D01*
X217987619Y-112892619D01*
X218082857Y-112844999D01*
X218225714Y-112844999D01*
X218320952Y-112892619D01*
X218368571Y-112940238D01*
X218416190Y-113035476D01*
X218416190Y-113416428D01*
X218797142Y-111844999D02*
X218844761Y-111892619D01*
X218892380Y-112035476D01*
X218892380Y-112130714D01*
X218844761Y-112273571D01*
X218749523Y-112368809D01*
X218654285Y-112416428D01*
X218463809Y-112464047D01*
X218320952Y-112464047D01*
X218130476Y-112416428D01*
X218035238Y-112368809D01*
X217940000Y-112273571D01*
X217892380Y-112130714D01*
X217892380Y-112035476D01*
X217940000Y-111892619D01*
X217987619Y-111844999D01*
X218892380Y-110892619D02*
X218892380Y-111464047D01*
X218892380Y-111178333D02*
X217892380Y-111178333D01*
X218035238Y-111273571D01*
X218130476Y-111368809D01*
X218178095Y-111464047D01*
X217987619Y-110511666D02*
X217940000Y-110464047D01*
X217892380Y-110368809D01*
X217892380Y-110130714D01*
X217940000Y-110035476D01*
X217987619Y-109987857D01*
X218082857Y-109940238D01*
X218178095Y-109940238D01*
X218320952Y-109987857D01*
X218892380Y-110559285D01*
X218892380Y-109940238D01*
X218320952Y-109368809D02*
X218273333Y-109464047D01*
X218225714Y-109511666D01*
X218130476Y-109559285D01*
X218082857Y-109559285D01*
X217987619Y-109511666D01*
X217940000Y-109464047D01*
X217892380Y-109368809D01*
X217892380Y-109178333D01*
X217940000Y-109083095D01*
X217987619Y-109035476D01*
X218082857Y-108987857D01*
X218130476Y-108987857D01*
X218225714Y-109035476D01*
X218273333Y-109083095D01*
X218320952Y-109178333D01*
X218320952Y-109368809D01*
X218368571Y-109464047D01*
X218416190Y-109511666D01*
X218511428Y-109559285D01*
X218701904Y-109559285D01*
X218797142Y-109511666D01*
X218844761Y-109464047D01*
X218892380Y-109368809D01*
X218892380Y-109178333D01*
X218844761Y-109083095D01*
X218797142Y-109035476D01*
X218701904Y-108987857D01*
X218511428Y-108987857D01*
X218416190Y-109035476D01*
X218368571Y-109083095D01*
X218320952Y-109178333D01*
X218844761Y-108606904D02*
X218892380Y-108464047D01*
X218892380Y-108225952D01*
X218844761Y-108130714D01*
X218797142Y-108083095D01*
X218701904Y-108035476D01*
X218606666Y-108035476D01*
X218511428Y-108083095D01*
X218463809Y-108130714D01*
X218416190Y-108225952D01*
X218368571Y-108416428D01*
X218320952Y-108511666D01*
X218273333Y-108559285D01*
X218178095Y-108606904D01*
X218082857Y-108606904D01*
X217987619Y-108559285D01*
X217940000Y-108511666D01*
X217892380Y-108416428D01*
X217892380Y-108178333D01*
X217940000Y-108035476D01*
X218892380Y-106321190D02*
X218892380Y-106892619D01*
X218892380Y-106606904D02*
X217892380Y-106606904D01*
X218035238Y-106702142D01*
X218130476Y-106797380D01*
X218178095Y-106892619D01*
X218892380Y-105892619D02*
X217892380Y-105892619D01*
X218606666Y-105559285D01*
X217892380Y-105225952D01*
X218892380Y-105225952D01*
X218892380Y-104749761D02*
X217892380Y-104749761D01*
X218892380Y-104321190D02*
X218368571Y-104321190D01*
X218273333Y-104368809D01*
X218225714Y-104464047D01*
X218225714Y-104606904D01*
X218273333Y-104702142D01*
X218320952Y-104749761D01*
X218225714Y-103940238D02*
X218225714Y-103416428D01*
X218892380Y-103940238D01*
X218892380Y-103416428D01*
X218892380Y-102273571D02*
X217892380Y-102273571D01*
X218892380Y-101797380D02*
X217892380Y-101797380D01*
X217892380Y-101559285D01*
X217940000Y-101416428D01*
X218035238Y-101321190D01*
X218130476Y-101273571D01*
X218320952Y-101225952D01*
X218463809Y-101225952D01*
X218654285Y-101273571D01*
X218749523Y-101321190D01*
X218844761Y-101416428D01*
X218892380Y-101559285D01*
X218892380Y-101797380D01*
X218368571Y-100797380D02*
X218368571Y-100464047D01*
X218892380Y-100321190D02*
X218892380Y-100797380D01*
X217892380Y-100797380D01*
X217892380Y-100321190D01*
X218892380Y-99130714D02*
X217892380Y-99130714D01*
X217892380Y-98749761D01*
X217940000Y-98654523D01*
X217987619Y-98606904D01*
X218082857Y-98559285D01*
X218225714Y-98559285D01*
X218320952Y-98606904D01*
X218368571Y-98654523D01*
X218416190Y-98749761D01*
X218416190Y-99130714D01*
X218892380Y-97987857D02*
X218844761Y-98083095D01*
X218797142Y-98130714D01*
X218701904Y-98178333D01*
X218416190Y-98178333D01*
X218320952Y-98130714D01*
X218273333Y-98083095D01*
X218225714Y-97987857D01*
X218225714Y-97844999D01*
X218273333Y-97749761D01*
X218320952Y-97702142D01*
X218416190Y-97654523D01*
X218701904Y-97654523D01*
X218797142Y-97702142D01*
X218844761Y-97749761D01*
X218892380Y-97844999D01*
X218892380Y-97987857D01*
X218892380Y-97225952D02*
X218225714Y-97225952D01*
X218416190Y-97225952D02*
X218320952Y-97178333D01*
X218273333Y-97130714D01*
X218225714Y-97035476D01*
X218225714Y-96940238D01*
X218225714Y-96749761D02*
X218225714Y-96368809D01*
X217892380Y-96606904D02*
X218749523Y-96606904D01*
X218844761Y-96559285D01*
X218892380Y-96464047D01*
X218892380Y-96368809D01*
X218892380Y-95273571D02*
X217892380Y-95273571D01*
X218273333Y-95273571D02*
X218225714Y-95178333D01*
X218225714Y-94987857D01*
X218273333Y-94892619D01*
X218320952Y-94844999D01*
X218416190Y-94797380D01*
X218701904Y-94797380D01*
X218797142Y-94844999D01*
X218844761Y-94892619D01*
X218892380Y-94987857D01*
X218892380Y-95178333D01*
X218844761Y-95273571D01*
X218225714Y-94464047D02*
X218892380Y-94225952D01*
X218225714Y-93987857D02*
X218892380Y-94225952D01*
X219130476Y-94321190D01*
X219178095Y-94368809D01*
X219225714Y-94464047D01*
X218606666Y-92892619D02*
X218606666Y-92416428D01*
X218892380Y-92987857D02*
X217892380Y-92654523D01*
X218892380Y-92321190D01*
X218797142Y-91987857D02*
X218844761Y-91940238D01*
X218892380Y-91987857D01*
X218844761Y-92035476D01*
X218797142Y-91987857D01*
X218892380Y-91987857D01*
X217892380Y-90559285D02*
X217892380Y-90368809D01*
X217940000Y-90273571D01*
X218035238Y-90178333D01*
X218225714Y-90130714D01*
X218559047Y-90130714D01*
X218749523Y-90178333D01*
X218844761Y-90273571D01*
X218892380Y-90368809D01*
X218892380Y-90559285D01*
X218844761Y-90654523D01*
X218749523Y-90749761D01*
X218559047Y-90797380D01*
X218225714Y-90797380D01*
X218035238Y-90749761D01*
X217940000Y-90654523D01*
X217892380Y-90559285D01*
X217892380Y-89844999D02*
X217892380Y-89273571D01*
X218892380Y-89559285D02*
X217892380Y-89559285D01*
X217892380Y-89083095D02*
X217892380Y-88511666D01*
X218892380Y-88797380D02*
X217892380Y-88797380D01*
X218606666Y-88225952D02*
X218606666Y-87749761D01*
X218892380Y-88321190D02*
X217892380Y-87987857D01*
X218892380Y-87654523D01*
X217892380Y-87464047D02*
X218892380Y-87130714D01*
X217892380Y-86797380D01*
X218892380Y-86464047D02*
X217892380Y-86464047D01*
X218606666Y-86035476D02*
X218606666Y-85559285D01*
X218892380Y-86130714D02*
X217892380Y-85797380D01*
X218892380Y-85464047D01*
X218892380Y-85130714D02*
X217892380Y-85130714D01*
X218892380Y-84559285D01*
X217892380Y-84559285D01*
X218892380Y-84083095D02*
X217892380Y-84083095D01*
X219273333Y-82559285D02*
X219225714Y-82606904D01*
X219082857Y-82702142D01*
X218987619Y-82749761D01*
X218844761Y-82797380D01*
X218606666Y-82844999D01*
X218416190Y-82844999D01*
X218178095Y-82797380D01*
X218035238Y-82749761D01*
X217940000Y-82702142D01*
X217797142Y-82606904D01*
X217749523Y-82559285D01*
X218797142Y-81606904D02*
X218844761Y-81654523D01*
X218892380Y-81797380D01*
X218892380Y-81892619D01*
X218844761Y-82035476D01*
X218749523Y-82130714D01*
X218654285Y-82178333D01*
X218463809Y-82225952D01*
X218320952Y-82225952D01*
X218130476Y-82178333D01*
X218035238Y-82130714D01*
X217940000Y-82035476D01*
X217892380Y-81892619D01*
X217892380Y-81797380D01*
X217940000Y-81654523D01*
X217987619Y-81606904D01*
X219273333Y-81273571D02*
X219225714Y-81225952D01*
X219082857Y-81130714D01*
X218987619Y-81083095D01*
X218844761Y-81035476D01*
X218606666Y-80987857D01*
X218416190Y-80987857D01*
X218178095Y-81035476D01*
X218035238Y-81083095D01*
X217940000Y-81130714D01*
X217797142Y-81225952D01*
X217749523Y-81273571D01*
X217987619Y-79797380D02*
X217940000Y-79749761D01*
X217892380Y-79654523D01*
X217892380Y-79416428D01*
X217940000Y-79321190D01*
X217987619Y-79273571D01*
X218082857Y-79225952D01*
X218178095Y-79225952D01*
X218320952Y-79273571D01*
X218892380Y-79844999D01*
X218892380Y-79225952D01*
X217892380Y-78606904D02*
X217892380Y-78511666D01*
X217940000Y-78416428D01*
X217987619Y-78368809D01*
X218082857Y-78321190D01*
X218273333Y-78273571D01*
X218511428Y-78273571D01*
X218701904Y-78321190D01*
X218797142Y-78368809D01*
X218844761Y-78416428D01*
X218892380Y-78511666D01*
X218892380Y-78606904D01*
X218844761Y-78702142D01*
X218797142Y-78749761D01*
X218701904Y-78797380D01*
X218511428Y-78844999D01*
X218273333Y-78844999D01*
X218082857Y-78797380D01*
X217987619Y-78749761D01*
X217940000Y-78702142D01*
X217892380Y-78606904D01*
X217987619Y-77892619D02*
X217940000Y-77844999D01*
X217892380Y-77749761D01*
X217892380Y-77511666D01*
X217940000Y-77416428D01*
X217987619Y-77368809D01*
X218082857Y-77321190D01*
X218178095Y-77321190D01*
X218320952Y-77368809D01*
X218892380Y-77940238D01*
X218892380Y-77321190D01*
X217987619Y-76940238D02*
X217940000Y-76892619D01*
X217892380Y-76797380D01*
X217892380Y-76559285D01*
X217940000Y-76464047D01*
X217987619Y-76416428D01*
X218082857Y-76368809D01*
X218178095Y-76368809D01*
X218320952Y-76416428D01*
X218892380Y-76987857D01*
X218892380Y-76368809D01*
X218511428Y-75940238D02*
X218511428Y-75178333D01*
X217892380Y-74511666D02*
X217892380Y-74416428D01*
X217940000Y-74321190D01*
X217987619Y-74273571D01*
X218082857Y-74225952D01*
X218273333Y-74178333D01*
X218511428Y-74178333D01*
X218701904Y-74225952D01*
X218797142Y-74273571D01*
X218844761Y-74321190D01*
X218892380Y-74416428D01*
X218892380Y-74511666D01*
X218844761Y-74606904D01*
X218797142Y-74654523D01*
X218701904Y-74702142D01*
X218511428Y-74749761D01*
X218273333Y-74749761D01*
X218082857Y-74702142D01*
X217987619Y-74654523D01*
X217940000Y-74606904D01*
X217892380Y-74511666D01*
X218892380Y-73702142D02*
X218892380Y-73511666D01*
X218844761Y-73416428D01*
X218797142Y-73368809D01*
X218654285Y-73273571D01*
X218463809Y-73225952D01*
X218082857Y-73225952D01*
X217987619Y-73273571D01*
X217940000Y-73321190D01*
X217892380Y-73416428D01*
X217892380Y-73606904D01*
X217940000Y-73702142D01*
X217987619Y-73749761D01*
X218082857Y-73797380D01*
X218320952Y-73797380D01*
X218416190Y-73749761D01*
X218463809Y-73702142D01*
X218511428Y-73606904D01*
X218511428Y-73416428D01*
X218463809Y-73321190D01*
X218416190Y-73273571D01*
X218320952Y-73225952D01*
D11*
X150110714Y-100778571D02*
X151110714Y-100778571D01*
X150467857Y-102278571D01*
X152325000Y-101278571D02*
X152325000Y-102278571D01*
X151967857Y-100707142D02*
X151610714Y-101778571D01*
X152539285Y-101778571D01*
X153110714Y-102278571D02*
X153110714Y-100778571D01*
X153110714Y-101492857D02*
X153967857Y-101492857D01*
X153967857Y-102278571D02*
X153967857Y-100778571D01*
X155539285Y-102135714D02*
X155467857Y-102207142D01*
X155253571Y-102278571D01*
X155110714Y-102278571D01*
X154896428Y-102207142D01*
X154753571Y-102064285D01*
X154682142Y-101921428D01*
X154610714Y-101635714D01*
X154610714Y-101421428D01*
X154682142Y-101135714D01*
X154753571Y-100992857D01*
X154896428Y-100850000D01*
X155110714Y-100778571D01*
X155253571Y-100778571D01*
X155467857Y-100850000D01*
X155539285Y-100921428D01*
X155967857Y-100778571D02*
X156825000Y-100778571D01*
X156396428Y-102278571D02*
X156396428Y-100778571D01*
X158110714Y-102278571D02*
X157253571Y-102278571D01*
X157682142Y-102278571D02*
X157682142Y-100778571D01*
X157539285Y-100992857D01*
X157396428Y-101135714D01*
X157253571Y-101207142D01*
X158610714Y-100778571D02*
X159539285Y-100778571D01*
X159039285Y-101350000D01*
X159253571Y-101350000D01*
X159396428Y-101421428D01*
X159467857Y-101492857D01*
X159539285Y-101635714D01*
X159539285Y-101992857D01*
X159467857Y-102135714D01*
X159396428Y-102207142D01*
X159253571Y-102278571D01*
X158825000Y-102278571D01*
X158682142Y-102207142D01*
X158610714Y-102135714D01*
X160253571Y-102278571D02*
X160539285Y-102278571D01*
X160682142Y-102207142D01*
X160753571Y-102135714D01*
X160896428Y-101921428D01*
X160967857Y-101635714D01*
X160967857Y-101064285D01*
X160896428Y-100921428D01*
X160825000Y-100850000D01*
X160682142Y-100778571D01*
X160396428Y-100778571D01*
X160253571Y-100850000D01*
X160182142Y-100921428D01*
X160110714Y-101064285D01*
X160110714Y-101421428D01*
X160182142Y-101564285D01*
X160253571Y-101635714D01*
X160396428Y-101707142D01*
X160682142Y-101707142D01*
X160825000Y-101635714D01*
X160896428Y-101564285D01*
X160967857Y-101421428D01*
D10*
X211915476Y-83907380D02*
X212534523Y-83907380D01*
X212201190Y-84288333D01*
X212344047Y-84288333D01*
X212439285Y-84335952D01*
X212486904Y-84383571D01*
X212534523Y-84478809D01*
X212534523Y-84716904D01*
X212486904Y-84812142D01*
X212439285Y-84859761D01*
X212344047Y-84907380D01*
X212058333Y-84907380D01*
X211963095Y-84859761D01*
X211915476Y-84812142D01*
X213010714Y-84907380D02*
X213201190Y-84907380D01*
X213296428Y-84859761D01*
X213344047Y-84812142D01*
X213439285Y-84669285D01*
X213486904Y-84478809D01*
X213486904Y-84097857D01*
X213439285Y-84002619D01*
X213391666Y-83955000D01*
X213296428Y-83907380D01*
X213105952Y-83907380D01*
X213010714Y-83955000D01*
X212963095Y-84002619D01*
X212915476Y-84097857D01*
X212915476Y-84335952D01*
X212963095Y-84431190D01*
X213010714Y-84478809D01*
X213105952Y-84526428D01*
X213296428Y-84526428D01*
X213391666Y-84478809D01*
X213439285Y-84431190D01*
X213486904Y-84335952D01*
X141631880Y-121128333D02*
X142346166Y-121128333D01*
X142489023Y-121175952D01*
X142584261Y-121271190D01*
X142631880Y-121414047D01*
X142631880Y-121509285D01*
X142631880Y-120128333D02*
X142631880Y-120699761D01*
X142631880Y-120414047D02*
X141631880Y-120414047D01*
X141774738Y-120509285D01*
X141869976Y-120604523D01*
X141917595Y-120699761D01*
X141631880Y-116128333D02*
X142346166Y-116128333D01*
X142489023Y-116175952D01*
X142584261Y-116271190D01*
X142631880Y-116414047D01*
X142631880Y-116509285D01*
X141727119Y-115699761D02*
X141679500Y-115652142D01*
X141631880Y-115556904D01*
X141631880Y-115318809D01*
X141679500Y-115223571D01*
X141727119Y-115175952D01*
X141822357Y-115128333D01*
X141917595Y-115128333D01*
X142060452Y-115175952D01*
X142631880Y-115747380D01*
X142631880Y-115128333D01*
X131111666Y-100627380D02*
X131111666Y-101341666D01*
X131064047Y-101484523D01*
X130968809Y-101579761D01*
X130825952Y-101627380D01*
X130730714Y-101627380D01*
X132016428Y-100960714D02*
X132016428Y-101627380D01*
X131778333Y-100579761D02*
X131540238Y-101294047D01*
X132159285Y-101294047D01*
X154122380Y-90971666D02*
X153646190Y-91305000D01*
X154122380Y-91543095D02*
X153122380Y-91543095D01*
X153122380Y-91162142D01*
X153170000Y-91066904D01*
X153217619Y-91019285D01*
X153312857Y-90971666D01*
X153455714Y-90971666D01*
X153550952Y-91019285D01*
X153598571Y-91066904D01*
X153646190Y-91162142D01*
X153646190Y-91543095D01*
X153455714Y-90114523D02*
X154122380Y-90114523D01*
X153074761Y-90352619D02*
X153789047Y-90590714D01*
X153789047Y-89971666D01*
X204136666Y-106362380D02*
X204136666Y-107076666D01*
X204089047Y-107219523D01*
X203993809Y-107314761D01*
X203850952Y-107362380D01*
X203755714Y-107362380D01*
X205089047Y-106362380D02*
X204612857Y-106362380D01*
X204565238Y-106838571D01*
X204612857Y-106790952D01*
X204708095Y-106743333D01*
X204946190Y-106743333D01*
X205041428Y-106790952D01*
X205089047Y-106838571D01*
X205136666Y-106933809D01*
X205136666Y-107171904D01*
X205089047Y-107267142D01*
X205041428Y-107314761D01*
X204946190Y-107362380D01*
X204708095Y-107362380D01*
X204612857Y-107314761D01*
X204565238Y-107267142D01*
X175562380Y-102351904D02*
X176371904Y-102351904D01*
X176467142Y-102304285D01*
X176514761Y-102256666D01*
X176562380Y-102161428D01*
X176562380Y-101970952D01*
X176514761Y-101875714D01*
X176467142Y-101828095D01*
X176371904Y-101780476D01*
X175562380Y-101780476D01*
X176562380Y-100780476D02*
X176562380Y-101351904D01*
X176562380Y-101066190D02*
X175562380Y-101066190D01*
X175705238Y-101161428D01*
X175800476Y-101256666D01*
X175848095Y-101351904D01*
X138321904Y-86392380D02*
X138321904Y-85392380D01*
X138560000Y-85392380D01*
X138702857Y-85440000D01*
X138798095Y-85535238D01*
X138845714Y-85630476D01*
X138893333Y-85820952D01*
X138893333Y-85963809D01*
X138845714Y-86154285D01*
X138798095Y-86249523D01*
X138702857Y-86344761D01*
X138560000Y-86392380D01*
X138321904Y-86392380D01*
X139274285Y-85487619D02*
X139321904Y-85440000D01*
X139417142Y-85392380D01*
X139655238Y-85392380D01*
X139750476Y-85440000D01*
X139798095Y-85487619D01*
X139845714Y-85582857D01*
X139845714Y-85678095D01*
X139798095Y-85820952D01*
X139226666Y-86392380D01*
X139845714Y-86392380D01*
X140732142Y-101766666D02*
X140779761Y-101814285D01*
X140827380Y-101957142D01*
X140827380Y-102052380D01*
X140779761Y-102195238D01*
X140684523Y-102290476D01*
X140589285Y-102338095D01*
X140398809Y-102385714D01*
X140255952Y-102385714D01*
X140065476Y-102338095D01*
X139970238Y-102290476D01*
X139875000Y-102195238D01*
X139827380Y-102052380D01*
X139827380Y-101957142D01*
X139875000Y-101814285D01*
X139922619Y-101766666D01*
X140827380Y-100814285D02*
X140827380Y-101385714D01*
X140827380Y-101100000D02*
X139827380Y-101100000D01*
X139970238Y-101195238D01*
X140065476Y-101290476D01*
X140113095Y-101385714D01*
X148407380Y-90971666D02*
X147931190Y-91305000D01*
X148407380Y-91543095D02*
X147407380Y-91543095D01*
X147407380Y-91162142D01*
X147455000Y-91066904D01*
X147502619Y-91019285D01*
X147597857Y-90971666D01*
X147740714Y-90971666D01*
X147835952Y-91019285D01*
X147883571Y-91066904D01*
X147931190Y-91162142D01*
X147931190Y-91543095D01*
X147502619Y-90590714D02*
X147455000Y-90543095D01*
X147407380Y-90447857D01*
X147407380Y-90209761D01*
X147455000Y-90114523D01*
X147502619Y-90066904D01*
X147597857Y-90019285D01*
X147693095Y-90019285D01*
X147835952Y-90066904D01*
X148407380Y-90638333D01*
X148407380Y-90019285D01*
X145072380Y-102351904D02*
X145881904Y-102351904D01*
X145977142Y-102304285D01*
X146024761Y-102256666D01*
X146072380Y-102161428D01*
X146072380Y-101970952D01*
X146024761Y-101875714D01*
X145977142Y-101828095D01*
X145881904Y-101780476D01*
X145072380Y-101780476D01*
X145167619Y-101351904D02*
X145120000Y-101304285D01*
X145072380Y-101209047D01*
X145072380Y-100970952D01*
X145120000Y-100875714D01*
X145167619Y-100828095D01*
X145262857Y-100780476D01*
X145358095Y-100780476D01*
X145500952Y-100828095D01*
X146072380Y-101399523D01*
X146072380Y-100780476D01*
X130706904Y-86392380D02*
X130706904Y-85392380D01*
X130945000Y-85392380D01*
X131087857Y-85440000D01*
X131183095Y-85535238D01*
X131230714Y-85630476D01*
X131278333Y-85820952D01*
X131278333Y-85963809D01*
X131230714Y-86154285D01*
X131183095Y-86249523D01*
X131087857Y-86344761D01*
X130945000Y-86392380D01*
X130706904Y-86392380D01*
X132230714Y-86392380D02*
X131659285Y-86392380D01*
X131945000Y-86392380D02*
X131945000Y-85392380D01*
X131849761Y-85535238D01*
X131754523Y-85630476D01*
X131659285Y-85678095D01*
X171212142Y-101766666D02*
X171259761Y-101814285D01*
X171307380Y-101957142D01*
X171307380Y-102052380D01*
X171259761Y-102195238D01*
X171164523Y-102290476D01*
X171069285Y-102338095D01*
X170878809Y-102385714D01*
X170735952Y-102385714D01*
X170545476Y-102338095D01*
X170450238Y-102290476D01*
X170355000Y-102195238D01*
X170307380Y-102052380D01*
X170307380Y-101957142D01*
X170355000Y-101814285D01*
X170402619Y-101766666D01*
X170402619Y-101385714D02*
X170355000Y-101338095D01*
X170307380Y-101242857D01*
X170307380Y-101004761D01*
X170355000Y-100909523D01*
X170402619Y-100861904D01*
X170497857Y-100814285D01*
X170593095Y-100814285D01*
X170735952Y-100861904D01*
X171307380Y-101433333D01*
X171307380Y-100814285D01*
X162592380Y-81388095D02*
X161592380Y-81388095D01*
X161592380Y-81007142D01*
X161640000Y-80911904D01*
X161687619Y-80864285D01*
X161782857Y-80816666D01*
X161925714Y-80816666D01*
X162020952Y-80864285D01*
X162068571Y-80911904D01*
X162116190Y-81007142D01*
X162116190Y-81388095D01*
X162592380Y-79864285D02*
X162592380Y-80435714D01*
X162592380Y-80150000D02*
X161592380Y-80150000D01*
X161735238Y-80245238D01*
X161830476Y-80340476D01*
X161878095Y-80435714D01*
X169192380Y-90971666D02*
X168716190Y-91305000D01*
X169192380Y-91543095D02*
X168192380Y-91543095D01*
X168192380Y-91162142D01*
X168240000Y-91066904D01*
X168287619Y-91019285D01*
X168382857Y-90971666D01*
X168525714Y-90971666D01*
X168620952Y-91019285D01*
X168668571Y-91066904D01*
X168716190Y-91162142D01*
X168716190Y-91543095D01*
X168192380Y-90638333D02*
X168192380Y-90019285D01*
X168573333Y-90352619D01*
X168573333Y-90209761D01*
X168620952Y-90114523D01*
X168668571Y-90066904D01*
X168763809Y-90019285D01*
X169001904Y-90019285D01*
X169097142Y-90066904D01*
X169144761Y-90114523D01*
X169192380Y-90209761D01*
X169192380Y-90495476D01*
X169144761Y-90590714D01*
X169097142Y-90638333D01*
X159372380Y-90971666D02*
X158896190Y-91305000D01*
X159372380Y-91543095D02*
X158372380Y-91543095D01*
X158372380Y-91162142D01*
X158420000Y-91066904D01*
X158467619Y-91019285D01*
X158562857Y-90971666D01*
X158705714Y-90971666D01*
X158800952Y-91019285D01*
X158848571Y-91066904D01*
X158896190Y-91162142D01*
X158896190Y-91543095D01*
X159372380Y-90019285D02*
X159372380Y-90590714D01*
X159372380Y-90305000D02*
X158372380Y-90305000D01*
X158515238Y-90400238D01*
X158610476Y-90495476D01*
X158658095Y-90590714D01*
X174272380Y-90971666D02*
X173796190Y-91305000D01*
X174272380Y-91543095D02*
X173272380Y-91543095D01*
X173272380Y-91162142D01*
X173320000Y-91066904D01*
X173367619Y-91019285D01*
X173462857Y-90971666D01*
X173605714Y-90971666D01*
X173700952Y-91019285D01*
X173748571Y-91066904D01*
X173796190Y-91162142D01*
X173796190Y-91543095D01*
X173272380Y-90066904D02*
X173272380Y-90543095D01*
X173748571Y-90590714D01*
X173700952Y-90543095D01*
X173653333Y-90447857D01*
X173653333Y-90209761D01*
X173700952Y-90114523D01*
X173748571Y-90066904D01*
X173843809Y-90019285D01*
X174081904Y-90019285D01*
X174177142Y-90066904D01*
X174224761Y-90114523D01*
X174272380Y-90209761D01*
X174272380Y-90447857D01*
X174224761Y-90543095D01*
X174177142Y-90590714D01*
D12*
X210760000Y-102235000D02*
X213420000Y-102235000D01*
X212090000Y-99635000D02*
X213420000Y-99635000D01*
X213420000Y-99635000D02*
X213420000Y-100965000D01*
X210760000Y-104835000D02*
X213420000Y-104835000D01*
X213420000Y-102235000D02*
X213420000Y-104835000D01*
X210760000Y-102235000D02*
X210760000Y-104835000D01*
X206799500Y-122125000D02*
X206799500Y-119465000D01*
X145779500Y-122125000D02*
X145779500Y-119465000D01*
X145779500Y-122125000D02*
X206799500Y-122125000D01*
X143179500Y-122125000D02*
X143179500Y-120795000D01*
X144509500Y-122125000D02*
X143179500Y-122125000D01*
X145779500Y-119465000D02*
X206799500Y-119465000D01*
X145779500Y-117125000D02*
X145779500Y-114465000D01*
X145779500Y-117125000D02*
X206799500Y-117125000D01*
X145779500Y-114465000D02*
X206799500Y-114465000D01*
X206799500Y-117125000D02*
X206799500Y-114465000D01*
X143179500Y-117125000D02*
X143179500Y-115795000D01*
X144509500Y-117125000D02*
X143179500Y-117125000D01*
X130115000Y-109915000D02*
X132775000Y-109915000D01*
X130115000Y-104775000D02*
X130115000Y-109915000D01*
X130115000Y-102175000D02*
X131445000Y-102175000D01*
X130115000Y-103505000D02*
X130115000Y-102175000D01*
X130115000Y-104775000D02*
X132775000Y-104775000D01*
X132775000Y-104775000D02*
X132775000Y-109915000D01*
X157250000Y-94075000D02*
X157580000Y-94075000D01*
X157580000Y-94075000D02*
X157580000Y-87535000D01*
X154840000Y-87535000D02*
X155170000Y-87535000D01*
X157580000Y-87535000D02*
X157250000Y-87535000D01*
X155170000Y-94075000D02*
X154840000Y-94075000D01*
X154840000Y-94075000D02*
X154840000Y-87535000D01*
X203140000Y-105470000D02*
X203140000Y-104140000D01*
X205800000Y-100270000D02*
X203140000Y-100270000D01*
X205800000Y-102870000D02*
X203140000Y-102870000D01*
X204470000Y-105470000D02*
X203140000Y-105470000D01*
X205800000Y-102870000D02*
X205800000Y-100270000D01*
X203140000Y-102870000D02*
X203140000Y-100270000D01*
X195010000Y-104240000D02*
X195010000Y-98940000D01*
X177110000Y-104240000D02*
X195010000Y-104240000D01*
X195010000Y-98940000D02*
X177110000Y-98940000D01*
X177110000Y-102590000D02*
X177110000Y-104240000D01*
X177110000Y-98940000D02*
X177110000Y-100590000D01*
X177110000Y-102590000D02*
G75*
G03*
X177110000Y-100590000I0J1000000D01*
G01*
X137500000Y-87664000D02*
X137500000Y-87820000D01*
X137500000Y-89980000D02*
X137500000Y-90136000D01*
X138019039Y-89980000D02*
G75*
G03*
X140101130Y-89979837I1040961J1080000D01*
G01*
X137500000Y-90135516D02*
G75*
G03*
X140732335Y-89978608I1560000J1235516D01*
G01*
X140101130Y-87820163D02*
G75*
G03*
X138019039Y-87820000I-1041130J-1079837D01*
G01*
X140732335Y-87821392D02*
G75*
G03*
X137500000Y-87664484I-1672335J-1078608D01*
G01*
X141505000Y-104070000D02*
X141820000Y-104070000D01*
X141505000Y-99130000D02*
X141820000Y-99130000D01*
X143930000Y-104070000D02*
X144245000Y-104070000D01*
X143930000Y-99130000D02*
X144245000Y-99130000D01*
X144245000Y-104070000D02*
X144245000Y-99130000D01*
X141505000Y-104070000D02*
X141505000Y-99130000D01*
X152500000Y-94075000D02*
X152170000Y-94075000D01*
X152500000Y-87535000D02*
X152500000Y-94075000D01*
X149760000Y-87535000D02*
X149760000Y-94075000D01*
X152170000Y-87535000D02*
X152500000Y-87535000D01*
X149760000Y-94075000D02*
X150090000Y-94075000D01*
X150090000Y-87535000D02*
X149760000Y-87535000D01*
X146620000Y-98940000D02*
X146620000Y-100590000D01*
X146620000Y-102590000D02*
X146620000Y-104240000D01*
X146620000Y-104240000D02*
X167060000Y-104240000D01*
X167060000Y-104240000D02*
X167060000Y-98940000D01*
X167060000Y-98940000D02*
X146620000Y-98940000D01*
X146620000Y-102590000D02*
G75*
G03*
X146620000Y-100590000I0J1000000D01*
G01*
X129885000Y-87664000D02*
X129885000Y-87820000D01*
X129885000Y-89980000D02*
X129885000Y-90136000D01*
X130404039Y-89980000D02*
G75*
G03*
X132486130Y-89979837I1040961J1080000D01*
G01*
X133117335Y-87821392D02*
G75*
G03*
X129885000Y-87664484I-1672335J-1078608D01*
G01*
X132486130Y-87820163D02*
G75*
G03*
X130404039Y-87820000I-1041130J-1079837D01*
G01*
X129885000Y-90135516D02*
G75*
G03*
X133117335Y-89978608I1560000J1235516D01*
G01*
X174725000Y-104070000D02*
X174725000Y-99130000D01*
X174410000Y-104070000D02*
X174725000Y-104070000D01*
X171985000Y-104070000D02*
X171985000Y-99130000D01*
X174410000Y-99130000D02*
X174725000Y-99130000D01*
X171985000Y-104070000D02*
X172300000Y-104070000D01*
X171985000Y-99130000D02*
X172300000Y-99130000D01*
X163140000Y-83250000D02*
X163140000Y-81920000D01*
X165740000Y-83250000D02*
X165740000Y-80650000D01*
X163140000Y-80650000D02*
X163140000Y-78050000D01*
X214060000Y-83250000D02*
X214060000Y-78050000D01*
X165740000Y-80650000D02*
X163140000Y-80650000D01*
X165740000Y-83250000D02*
X214060000Y-83250000D01*
X163140000Y-78050000D02*
X214060000Y-78050000D01*
X164470000Y-83250000D02*
X163140000Y-83250000D01*
X167740000Y-87535000D02*
X167740000Y-94075000D01*
X167740000Y-94075000D02*
X167410000Y-94075000D01*
X165000000Y-94075000D02*
X165330000Y-94075000D01*
X165000000Y-87535000D02*
X165000000Y-94075000D01*
X167410000Y-87535000D02*
X167740000Y-87535000D01*
X165330000Y-87535000D02*
X165000000Y-87535000D01*
X162660000Y-87535000D02*
X162330000Y-87535000D01*
X160250000Y-94075000D02*
X159920000Y-94075000D01*
X162330000Y-94075000D02*
X162660000Y-94075000D01*
X159920000Y-87535000D02*
X160250000Y-87535000D01*
X162660000Y-94075000D02*
X162660000Y-87535000D01*
X159920000Y-94075000D02*
X159920000Y-87535000D01*
X172820000Y-87535000D02*
X172820000Y-94075000D01*
X170080000Y-94075000D02*
X170410000Y-94075000D01*
X170080000Y-87535000D02*
X170080000Y-94075000D01*
X172820000Y-94075000D02*
X172490000Y-94075000D01*
X172490000Y-87535000D02*
X172820000Y-87535000D01*
X170410000Y-87535000D02*
X170080000Y-87535000D01*
M02*
