G04 #@! TF.GenerationSoftware,KiCad,Pcbnew,(6.0.6)*
G04 #@! TF.CreationDate,2022-08-31T17:59:28+02:00*
G04 #@! TF.ProjectId,PC128S_IDE,50433132-3853-45f4-9944-452e6b696361,rev?*
G04 #@! TF.SameCoordinates,Original*
G04 #@! TF.FileFunction,Legend,Top*
G04 #@! TF.FilePolarity,Positive*
%FSLAX46Y46*%
G04 Gerber Fmt 4.6, Leading zero omitted, Abs format (unit mm)*
G04 Created by KiCad (PCBNEW (6.0.6)) date 2022-08-31 17:59:28*
%MOMM*%
%LPD*%
G01*
G04 APERTURE LIST*
%ADD10C,0.150000*%
%ADD11C,0.120000*%
G04 APERTURE END LIST*
D10*
X186944523Y-76652380D02*
X186944523Y-75652380D01*
X187420714Y-76652380D02*
X187420714Y-75652380D01*
X187658809Y-75652380D01*
X187801666Y-75700000D01*
X187896904Y-75795238D01*
X187944523Y-75890476D01*
X187992142Y-76080952D01*
X187992142Y-76223809D01*
X187944523Y-76414285D01*
X187896904Y-76509523D01*
X187801666Y-76604761D01*
X187658809Y-76652380D01*
X187420714Y-76652380D01*
X188420714Y-76128571D02*
X188754047Y-76128571D01*
X188896904Y-76652380D02*
X188420714Y-76652380D01*
X188420714Y-75652380D01*
X188896904Y-75652380D01*
X190515952Y-75985714D02*
X190515952Y-76652380D01*
X190277857Y-75604761D02*
X190039761Y-76319047D01*
X190658809Y-76319047D01*
X191230238Y-75652380D02*
X191325476Y-75652380D01*
X191420714Y-75700000D01*
X191468333Y-75747619D01*
X191515952Y-75842857D01*
X191563571Y-76033333D01*
X191563571Y-76271428D01*
X191515952Y-76461904D01*
X191468333Y-76557142D01*
X191420714Y-76604761D01*
X191325476Y-76652380D01*
X191230238Y-76652380D01*
X191135000Y-76604761D01*
X191087380Y-76557142D01*
X191039761Y-76461904D01*
X190992142Y-76271428D01*
X190992142Y-76033333D01*
X191039761Y-75842857D01*
X191087380Y-75747619D01*
X191135000Y-75700000D01*
X191230238Y-75652380D01*
X192754047Y-75985714D02*
X192754047Y-76985714D01*
X192754047Y-76033333D02*
X192849285Y-75985714D01*
X193039761Y-75985714D01*
X193135000Y-76033333D01*
X193182619Y-76080952D01*
X193230238Y-76176190D01*
X193230238Y-76461904D01*
X193182619Y-76557142D01*
X193135000Y-76604761D01*
X193039761Y-76652380D01*
X192849285Y-76652380D01*
X192754047Y-76604761D01*
X193658809Y-76652380D02*
X193658809Y-75985714D01*
X193658809Y-75652380D02*
X193611190Y-75700000D01*
X193658809Y-75747619D01*
X193706428Y-75700000D01*
X193658809Y-75652380D01*
X193658809Y-75747619D01*
X194135000Y-75985714D02*
X194135000Y-76652380D01*
X194135000Y-76080952D02*
X194182619Y-76033333D01*
X194277857Y-75985714D01*
X194420714Y-75985714D01*
X194515952Y-76033333D01*
X194563571Y-76128571D01*
X194563571Y-76652380D01*
X213352142Y-106795000D02*
X213256904Y-106747380D01*
X213114047Y-106747380D01*
X212971190Y-106795000D01*
X212875952Y-106890238D01*
X212828333Y-106985476D01*
X212780714Y-107175952D01*
X212780714Y-107318809D01*
X212828333Y-107509285D01*
X212875952Y-107604523D01*
X212971190Y-107699761D01*
X213114047Y-107747380D01*
X213209285Y-107747380D01*
X213352142Y-107699761D01*
X213399761Y-107652142D01*
X213399761Y-107318809D01*
X213209285Y-107318809D01*
X213828333Y-107080714D02*
X213828333Y-107747380D01*
X213828333Y-107175952D02*
X213875952Y-107128333D01*
X213971190Y-107080714D01*
X214114047Y-107080714D01*
X214209285Y-107128333D01*
X214256904Y-107223571D01*
X214256904Y-107747380D01*
X215161666Y-107747380D02*
X215161666Y-106747380D01*
X215161666Y-107699761D02*
X215066428Y-107747380D01*
X214875952Y-107747380D01*
X214780714Y-107699761D01*
X214733095Y-107652142D01*
X214685476Y-107556904D01*
X214685476Y-107271190D01*
X214733095Y-107175952D01*
X214780714Y-107128333D01*
X214875952Y-107080714D01*
X215066428Y-107080714D01*
X215161666Y-107128333D01*
X213852142Y-97666880D02*
X213375952Y-97666880D01*
X213328333Y-98143071D01*
X213375952Y-98095452D01*
X213471190Y-98047833D01*
X213709285Y-98047833D01*
X213804523Y-98095452D01*
X213852142Y-98143071D01*
X213899761Y-98238309D01*
X213899761Y-98476404D01*
X213852142Y-98571642D01*
X213804523Y-98619261D01*
X213709285Y-98666880D01*
X213471190Y-98666880D01*
X213375952Y-98619261D01*
X213328333Y-98571642D01*
X214233095Y-98000214D02*
X214471190Y-98666880D01*
X214709285Y-98000214D01*
X210272380Y-94535238D02*
X210272380Y-95011428D01*
X210748571Y-95059047D01*
X210700952Y-95011428D01*
X210653333Y-94916190D01*
X210653333Y-94678095D01*
X210700952Y-94582857D01*
X210748571Y-94535238D01*
X210843809Y-94487619D01*
X211081904Y-94487619D01*
X211177142Y-94535238D01*
X211224761Y-94582857D01*
X211272380Y-94678095D01*
X211272380Y-94916190D01*
X211224761Y-95011428D01*
X211177142Y-95059047D01*
X210605714Y-94154285D02*
X211272380Y-93916190D01*
X210605714Y-93678095D01*
X210605714Y-92678095D02*
X210605714Y-92297142D01*
X210272380Y-92535238D02*
X211129523Y-92535238D01*
X211224761Y-92487619D01*
X211272380Y-92392380D01*
X211272380Y-92297142D01*
X210605714Y-91963809D02*
X211605714Y-91963809D01*
X210653333Y-91963809D02*
X210605714Y-91868571D01*
X210605714Y-91678095D01*
X210653333Y-91582857D01*
X210700952Y-91535238D01*
X210796190Y-91487619D01*
X211081904Y-91487619D01*
X211177142Y-91535238D01*
X211224761Y-91582857D01*
X211272380Y-91678095D01*
X211272380Y-91868571D01*
X211224761Y-91963809D01*
X211272380Y-90297142D02*
X210272380Y-90297142D01*
X210272380Y-89916190D01*
X210320000Y-89820952D01*
X210367619Y-89773333D01*
X210462857Y-89725714D01*
X210605714Y-89725714D01*
X210700952Y-89773333D01*
X210748571Y-89820952D01*
X210796190Y-89916190D01*
X210796190Y-90297142D01*
X210367619Y-89344761D02*
X210320000Y-89297142D01*
X210272380Y-89201904D01*
X210272380Y-88963809D01*
X210320000Y-88868571D01*
X210367619Y-88820952D01*
X210462857Y-88773333D01*
X210558095Y-88773333D01*
X210700952Y-88820952D01*
X211272380Y-89392380D01*
X211272380Y-88773333D01*
X210272380Y-88154285D02*
X210272380Y-88059047D01*
X210320000Y-87963809D01*
X210367619Y-87916190D01*
X210462857Y-87868571D01*
X210653333Y-87820952D01*
X210891428Y-87820952D01*
X211081904Y-87868571D01*
X211177142Y-87916190D01*
X211224761Y-87963809D01*
X211272380Y-88059047D01*
X211272380Y-88154285D01*
X211224761Y-88249523D01*
X211177142Y-88297142D01*
X211081904Y-88344761D01*
X210891428Y-88392380D01*
X210653333Y-88392380D01*
X210462857Y-88344761D01*
X210367619Y-88297142D01*
X210320000Y-88249523D01*
X210272380Y-88154285D01*
X164115714Y-84907380D02*
X163544285Y-84907380D01*
X163830000Y-84907380D02*
X163830000Y-83907380D01*
X163734761Y-84050238D01*
X163639523Y-84145476D01*
X163544285Y-84193095D01*
X212439285Y-76620714D02*
X212439285Y-77287380D01*
X212201190Y-76239761D02*
X211963095Y-76954047D01*
X212582142Y-76954047D01*
X213153571Y-76287380D02*
X213248809Y-76287380D01*
X213344047Y-76335000D01*
X213391666Y-76382619D01*
X213439285Y-76477857D01*
X213486904Y-76668333D01*
X213486904Y-76906428D01*
X213439285Y-77096904D01*
X213391666Y-77192142D01*
X213344047Y-77239761D01*
X213248809Y-77287380D01*
X213153571Y-77287380D01*
X213058333Y-77239761D01*
X213010714Y-77192142D01*
X212963095Y-77096904D01*
X212915476Y-76906428D01*
X212915476Y-76668333D01*
X212963095Y-76477857D01*
X213010714Y-76382619D01*
X213058333Y-76335000D01*
X213153571Y-76287380D01*
X171100714Y-123359880D02*
X170529285Y-123359880D01*
X170815000Y-123359880D02*
X170815000Y-122359880D01*
X170719761Y-122502738D01*
X170624523Y-122597976D01*
X170529285Y-122645595D01*
X218892380Y-112567857D02*
X217892380Y-112567857D01*
X217892380Y-112186904D01*
X217940000Y-112091666D01*
X217987619Y-112044047D01*
X218082857Y-111996428D01*
X218225714Y-111996428D01*
X218320952Y-112044047D01*
X218368571Y-112091666D01*
X218416190Y-112186904D01*
X218416190Y-112567857D01*
X218797142Y-110996428D02*
X218844761Y-111044047D01*
X218892380Y-111186904D01*
X218892380Y-111282142D01*
X218844761Y-111425000D01*
X218749523Y-111520238D01*
X218654285Y-111567857D01*
X218463809Y-111615476D01*
X218320952Y-111615476D01*
X218130476Y-111567857D01*
X218035238Y-111520238D01*
X217940000Y-111425000D01*
X217892380Y-111282142D01*
X217892380Y-111186904D01*
X217940000Y-111044047D01*
X217987619Y-110996428D01*
X218892380Y-110044047D02*
X218892380Y-110615476D01*
X218892380Y-110329761D02*
X217892380Y-110329761D01*
X218035238Y-110425000D01*
X218130476Y-110520238D01*
X218178095Y-110615476D01*
X217987619Y-109663095D02*
X217940000Y-109615476D01*
X217892380Y-109520238D01*
X217892380Y-109282142D01*
X217940000Y-109186904D01*
X217987619Y-109139285D01*
X218082857Y-109091666D01*
X218178095Y-109091666D01*
X218320952Y-109139285D01*
X218892380Y-109710714D01*
X218892380Y-109091666D01*
X218320952Y-108520238D02*
X218273333Y-108615476D01*
X218225714Y-108663095D01*
X218130476Y-108710714D01*
X218082857Y-108710714D01*
X217987619Y-108663095D01*
X217940000Y-108615476D01*
X217892380Y-108520238D01*
X217892380Y-108329761D01*
X217940000Y-108234523D01*
X217987619Y-108186904D01*
X218082857Y-108139285D01*
X218130476Y-108139285D01*
X218225714Y-108186904D01*
X218273333Y-108234523D01*
X218320952Y-108329761D01*
X218320952Y-108520238D01*
X218368571Y-108615476D01*
X218416190Y-108663095D01*
X218511428Y-108710714D01*
X218701904Y-108710714D01*
X218797142Y-108663095D01*
X218844761Y-108615476D01*
X218892380Y-108520238D01*
X218892380Y-108329761D01*
X218844761Y-108234523D01*
X218797142Y-108186904D01*
X218701904Y-108139285D01*
X218511428Y-108139285D01*
X218416190Y-108186904D01*
X218368571Y-108234523D01*
X218320952Y-108329761D01*
X218844761Y-107758333D02*
X218892380Y-107615476D01*
X218892380Y-107377380D01*
X218844761Y-107282142D01*
X218797142Y-107234523D01*
X218701904Y-107186904D01*
X218606666Y-107186904D01*
X218511428Y-107234523D01*
X218463809Y-107282142D01*
X218416190Y-107377380D01*
X218368571Y-107567857D01*
X218320952Y-107663095D01*
X218273333Y-107710714D01*
X218178095Y-107758333D01*
X218082857Y-107758333D01*
X217987619Y-107710714D01*
X217940000Y-107663095D01*
X217892380Y-107567857D01*
X217892380Y-107329761D01*
X217940000Y-107186904D01*
X218892380Y-105996428D02*
X217892380Y-105996428D01*
X218892380Y-105520238D02*
X217892380Y-105520238D01*
X217892380Y-105282142D01*
X217940000Y-105139285D01*
X218035238Y-105044047D01*
X218130476Y-104996428D01*
X218320952Y-104948809D01*
X218463809Y-104948809D01*
X218654285Y-104996428D01*
X218749523Y-105044047D01*
X218844761Y-105139285D01*
X218892380Y-105282142D01*
X218892380Y-105520238D01*
X218368571Y-104520238D02*
X218368571Y-104186904D01*
X218892380Y-104044047D02*
X218892380Y-104520238D01*
X217892380Y-104520238D01*
X217892380Y-104044047D01*
X218892380Y-102853571D02*
X217892380Y-102853571D01*
X218225714Y-102377380D02*
X218892380Y-102377380D01*
X218320952Y-102377380D02*
X218273333Y-102329761D01*
X218225714Y-102234523D01*
X218225714Y-102091666D01*
X218273333Y-101996428D01*
X218368571Y-101948809D01*
X218892380Y-101948809D01*
X218225714Y-101615476D02*
X218225714Y-101234523D01*
X217892380Y-101472619D02*
X218749523Y-101472619D01*
X218844761Y-101425000D01*
X218892380Y-101329761D01*
X218892380Y-101234523D01*
X218844761Y-100520238D02*
X218892380Y-100615476D01*
X218892380Y-100805952D01*
X218844761Y-100901190D01*
X218749523Y-100948809D01*
X218368571Y-100948809D01*
X218273333Y-100901190D01*
X218225714Y-100805952D01*
X218225714Y-100615476D01*
X218273333Y-100520238D01*
X218368571Y-100472619D01*
X218463809Y-100472619D01*
X218559047Y-100948809D01*
X218892380Y-100044047D02*
X218225714Y-100044047D01*
X218416190Y-100044047D02*
X218320952Y-99996428D01*
X218273333Y-99948809D01*
X218225714Y-99853571D01*
X218225714Y-99758333D01*
X218225714Y-99567857D02*
X218225714Y-99186904D01*
X218892380Y-99425000D02*
X218035238Y-99425000D01*
X217940000Y-99377380D01*
X217892380Y-99282142D01*
X217892380Y-99186904D01*
X218892380Y-98425000D02*
X218368571Y-98425000D01*
X218273333Y-98472619D01*
X218225714Y-98567857D01*
X218225714Y-98758333D01*
X218273333Y-98853571D01*
X218844761Y-98425000D02*
X218892380Y-98520238D01*
X218892380Y-98758333D01*
X218844761Y-98853571D01*
X218749523Y-98901190D01*
X218654285Y-98901190D01*
X218559047Y-98853571D01*
X218511428Y-98758333D01*
X218511428Y-98520238D01*
X218463809Y-98425000D01*
X218844761Y-97520238D02*
X218892380Y-97615476D01*
X218892380Y-97805952D01*
X218844761Y-97901190D01*
X218797142Y-97948809D01*
X218701904Y-97996428D01*
X218416190Y-97996428D01*
X218320952Y-97948809D01*
X218273333Y-97901190D01*
X218225714Y-97805952D01*
X218225714Y-97615476D01*
X218273333Y-97520238D01*
X218844761Y-96710714D02*
X218892380Y-96805952D01*
X218892380Y-96996428D01*
X218844761Y-97091666D01*
X218749523Y-97139285D01*
X218368571Y-97139285D01*
X218273333Y-97091666D01*
X218225714Y-96996428D01*
X218225714Y-96805952D01*
X218273333Y-96710714D01*
X218368571Y-96663095D01*
X218463809Y-96663095D01*
X218559047Y-97139285D01*
X218892380Y-95472619D02*
X217892380Y-95472619D01*
X218273333Y-95472619D02*
X218225714Y-95377380D01*
X218225714Y-95186904D01*
X218273333Y-95091666D01*
X218320952Y-95044047D01*
X218416190Y-94996428D01*
X218701904Y-94996428D01*
X218797142Y-95044047D01*
X218844761Y-95091666D01*
X218892380Y-95186904D01*
X218892380Y-95377380D01*
X218844761Y-95472619D01*
X218225714Y-94663095D02*
X218892380Y-94425000D01*
X218225714Y-94186904D02*
X218892380Y-94425000D01*
X219130476Y-94520238D01*
X219178095Y-94567857D01*
X219225714Y-94663095D01*
X218606666Y-93091666D02*
X218606666Y-92615476D01*
X218892380Y-93186904D02*
X217892380Y-92853571D01*
X218892380Y-92520238D01*
X218797142Y-92186904D02*
X218844761Y-92139285D01*
X218892380Y-92186904D01*
X218844761Y-92234523D01*
X218797142Y-92186904D01*
X218892380Y-92186904D01*
X217892380Y-90758333D02*
X217892380Y-90567857D01*
X217940000Y-90472619D01*
X218035238Y-90377380D01*
X218225714Y-90329761D01*
X218559047Y-90329761D01*
X218749523Y-90377380D01*
X218844761Y-90472619D01*
X218892380Y-90567857D01*
X218892380Y-90758333D01*
X218844761Y-90853571D01*
X218749523Y-90948809D01*
X218559047Y-90996428D01*
X218225714Y-90996428D01*
X218035238Y-90948809D01*
X217940000Y-90853571D01*
X217892380Y-90758333D01*
X217892380Y-90044047D02*
X217892380Y-89472619D01*
X218892380Y-89758333D02*
X217892380Y-89758333D01*
X217892380Y-89282142D02*
X217892380Y-88710714D01*
X218892380Y-88996428D02*
X217892380Y-88996428D01*
X218606666Y-88425000D02*
X218606666Y-87948809D01*
X218892380Y-88520238D02*
X217892380Y-88186904D01*
X218892380Y-87853571D01*
X217892380Y-87663095D02*
X218892380Y-87329761D01*
X217892380Y-86996428D01*
X218892380Y-86663095D02*
X217892380Y-86663095D01*
X218606666Y-86234523D02*
X218606666Y-85758333D01*
X218892380Y-86329761D02*
X217892380Y-85996428D01*
X218892380Y-85663095D01*
X218892380Y-85329761D02*
X217892380Y-85329761D01*
X218892380Y-84758333D01*
X217892380Y-84758333D01*
X218892380Y-84282142D02*
X217892380Y-84282142D01*
X211915476Y-83907380D02*
X212534523Y-83907380D01*
X212201190Y-84288333D01*
X212344047Y-84288333D01*
X212439285Y-84335952D01*
X212486904Y-84383571D01*
X212534523Y-84478809D01*
X212534523Y-84716904D01*
X212486904Y-84812142D01*
X212439285Y-84859761D01*
X212344047Y-84907380D01*
X212058333Y-84907380D01*
X211963095Y-84859761D01*
X211915476Y-84812142D01*
X213010714Y-84907380D02*
X213201190Y-84907380D01*
X213296428Y-84859761D01*
X213344047Y-84812142D01*
X213439285Y-84669285D01*
X213486904Y-84478809D01*
X213486904Y-84097857D01*
X213439285Y-84002619D01*
X213391666Y-83955000D01*
X213296428Y-83907380D01*
X213105952Y-83907380D01*
X213010714Y-83955000D01*
X212963095Y-84002619D01*
X212915476Y-84097857D01*
X212915476Y-84335952D01*
X212963095Y-84431190D01*
X213010714Y-84478809D01*
X213105952Y-84526428D01*
X213296428Y-84526428D01*
X213391666Y-84478809D01*
X213439285Y-84431190D01*
X213486904Y-84335952D01*
X162897380Y-117290833D02*
X163611666Y-117290833D01*
X163754523Y-117338452D01*
X163849761Y-117433690D01*
X163897380Y-117576547D01*
X163897380Y-117671785D01*
X163897380Y-116290833D02*
X163897380Y-116862261D01*
X163897380Y-116576547D02*
X162897380Y-116576547D01*
X163040238Y-116671785D01*
X163135476Y-116767023D01*
X163183095Y-116862261D01*
X185349285Y-122007380D02*
X185349285Y-122816904D01*
X185396904Y-122912142D01*
X185444523Y-122959761D01*
X185539761Y-123007380D01*
X185730238Y-123007380D01*
X185825476Y-122959761D01*
X185873095Y-122912142D01*
X185920714Y-122816904D01*
X185920714Y-122007380D01*
X186349285Y-122959761D02*
X186444523Y-123007380D01*
X186635000Y-123007380D01*
X186730238Y-122959761D01*
X186777857Y-122864523D01*
X186777857Y-122816904D01*
X186730238Y-122721666D01*
X186635000Y-122674047D01*
X186492142Y-122674047D01*
X186396904Y-122626428D01*
X186349285Y-122531190D01*
X186349285Y-122483571D01*
X186396904Y-122388333D01*
X186492142Y-122340714D01*
X186635000Y-122340714D01*
X186730238Y-122388333D01*
X187587380Y-122959761D02*
X187492142Y-123007380D01*
X187301666Y-123007380D01*
X187206428Y-122959761D01*
X187158809Y-122864523D01*
X187158809Y-122483571D01*
X187206428Y-122388333D01*
X187301666Y-122340714D01*
X187492142Y-122340714D01*
X187587380Y-122388333D01*
X187635000Y-122483571D01*
X187635000Y-122578809D01*
X187158809Y-122674047D01*
X188063571Y-123007380D02*
X188063571Y-122340714D01*
X188063571Y-122531190D02*
X188111190Y-122435952D01*
X188158809Y-122388333D01*
X188254047Y-122340714D01*
X188349285Y-122340714D01*
X189396904Y-122102619D02*
X189444523Y-122055000D01*
X189539761Y-122007380D01*
X189777857Y-122007380D01*
X189873095Y-122055000D01*
X189920714Y-122102619D01*
X189968333Y-122197857D01*
X189968333Y-122293095D01*
X189920714Y-122435952D01*
X189349285Y-123007380D01*
X189968333Y-123007380D01*
X190396904Y-123007380D02*
X190396904Y-122007380D01*
X190730238Y-122721666D01*
X191063571Y-122007380D01*
X191063571Y-123007380D01*
X191539761Y-123007380D02*
X191539761Y-122007380D01*
X191539761Y-122483571D02*
X192111190Y-122483571D01*
X192111190Y-123007380D02*
X192111190Y-122007380D01*
X192492142Y-122007380D02*
X193158809Y-122007380D01*
X192492142Y-123007380D01*
X193158809Y-123007380D01*
X194301666Y-123007380D02*
X194301666Y-122007380D01*
X194682619Y-122007380D01*
X194777857Y-122055000D01*
X194825476Y-122102619D01*
X194873095Y-122197857D01*
X194873095Y-122340714D01*
X194825476Y-122435952D01*
X194777857Y-122483571D01*
X194682619Y-122531190D01*
X194301666Y-122531190D01*
X195444523Y-123007380D02*
X195349285Y-122959761D01*
X195301666Y-122912142D01*
X195254047Y-122816904D01*
X195254047Y-122531190D01*
X195301666Y-122435952D01*
X195349285Y-122388333D01*
X195444523Y-122340714D01*
X195587380Y-122340714D01*
X195682619Y-122388333D01*
X195730238Y-122435952D01*
X195777857Y-122531190D01*
X195777857Y-122816904D01*
X195730238Y-122912142D01*
X195682619Y-122959761D01*
X195587380Y-123007380D01*
X195444523Y-123007380D01*
X196206428Y-123007380D02*
X196206428Y-122340714D01*
X196206428Y-122531190D02*
X196254047Y-122435952D01*
X196301666Y-122388333D01*
X196396904Y-122340714D01*
X196492142Y-122340714D01*
X196682619Y-122340714D02*
X197063571Y-122340714D01*
X196825476Y-122007380D02*
X196825476Y-122864523D01*
X196873095Y-122959761D01*
X196968333Y-123007380D01*
X197063571Y-123007380D01*
X166901904Y-99092380D02*
X166901904Y-98092380D01*
X167140000Y-98092380D01*
X167282857Y-98140000D01*
X167378095Y-98235238D01*
X167425714Y-98330476D01*
X167473333Y-98520952D01*
X167473333Y-98663809D01*
X167425714Y-98854285D01*
X167378095Y-98949523D01*
X167282857Y-99044761D01*
X167140000Y-99092380D01*
X166901904Y-99092380D01*
X167854285Y-98187619D02*
X167901904Y-98140000D01*
X167997142Y-98092380D01*
X168235238Y-98092380D01*
X168330476Y-98140000D01*
X168378095Y-98187619D01*
X168425714Y-98282857D01*
X168425714Y-98378095D01*
X168378095Y-98520952D01*
X167806666Y-99092380D01*
X168425714Y-99092380D01*
X166896904Y-105442380D02*
X166896904Y-104442380D01*
X167135000Y-104442380D01*
X167277857Y-104490000D01*
X167373095Y-104585238D01*
X167420714Y-104680476D01*
X167468333Y-104870952D01*
X167468333Y-105013809D01*
X167420714Y-105204285D01*
X167373095Y-105299523D01*
X167277857Y-105394761D01*
X167135000Y-105442380D01*
X166896904Y-105442380D01*
X168420714Y-105442380D02*
X167849285Y-105442380D01*
X168135000Y-105442380D02*
X168135000Y-104442380D01*
X168039761Y-104585238D01*
X167944523Y-104680476D01*
X167849285Y-104728095D01*
X171267380Y-92876666D02*
X170791190Y-93210000D01*
X171267380Y-93448095D02*
X170267380Y-93448095D01*
X170267380Y-93067142D01*
X170315000Y-92971904D01*
X170362619Y-92924285D01*
X170457857Y-92876666D01*
X170600714Y-92876666D01*
X170695952Y-92924285D01*
X170743571Y-92971904D01*
X170791190Y-93067142D01*
X170791190Y-93448095D01*
X170600714Y-92019523D02*
X171267380Y-92019523D01*
X170219761Y-92257619D02*
X170934047Y-92495714D01*
X170934047Y-91876666D01*
X173807380Y-92829047D02*
X173807380Y-93400476D01*
X173807380Y-93114761D02*
X172807380Y-93114761D01*
X172950238Y-93210000D01*
X173045476Y-93305238D01*
X173093095Y-93400476D01*
X173807380Y-92400476D02*
X172807380Y-92400476D01*
X173426428Y-92305238D02*
X173807380Y-92019523D01*
X173140714Y-92019523D02*
X173521666Y-92400476D01*
X213636666Y-94277380D02*
X213636666Y-94991666D01*
X213589047Y-95134523D01*
X213493809Y-95229761D01*
X213350952Y-95277380D01*
X213255714Y-95277380D01*
X214589047Y-94277380D02*
X214112857Y-94277380D01*
X214065238Y-94753571D01*
X214112857Y-94705952D01*
X214208095Y-94658333D01*
X214446190Y-94658333D01*
X214541428Y-94705952D01*
X214589047Y-94753571D01*
X214636666Y-94848809D01*
X214636666Y-95086904D01*
X214589047Y-95182142D01*
X214541428Y-95229761D01*
X214446190Y-95277380D01*
X214208095Y-95277380D01*
X214112857Y-95229761D01*
X214065238Y-95182142D01*
X189522380Y-92826904D02*
X190331904Y-92826904D01*
X190427142Y-92779285D01*
X190474761Y-92731666D01*
X190522380Y-92636428D01*
X190522380Y-92445952D01*
X190474761Y-92350714D01*
X190427142Y-92303095D01*
X190331904Y-92255476D01*
X189522380Y-92255476D01*
X190522380Y-91255476D02*
X190522380Y-91826904D01*
X190522380Y-91541190D02*
X189522380Y-91541190D01*
X189665238Y-91636428D01*
X189760476Y-91731666D01*
X189808095Y-91826904D01*
X196858333Y-91527380D02*
X197525000Y-91527380D01*
X197096428Y-92527380D01*
X198334523Y-91860714D02*
X198334523Y-92527380D01*
X198096428Y-91479761D02*
X197858333Y-92194047D01*
X198477380Y-92194047D01*
X198858333Y-92527380D02*
X198858333Y-91527380D01*
X198858333Y-92003571D02*
X199429761Y-92003571D01*
X199429761Y-92527380D02*
X199429761Y-91527380D01*
X200477380Y-92432142D02*
X200429761Y-92479761D01*
X200286904Y-92527380D01*
X200191666Y-92527380D01*
X200048809Y-92479761D01*
X199953571Y-92384523D01*
X199905952Y-92289285D01*
X199858333Y-92098809D01*
X199858333Y-91955952D01*
X199905952Y-91765476D01*
X199953571Y-91670238D01*
X200048809Y-91575000D01*
X200191666Y-91527380D01*
X200286904Y-91527380D01*
X200429761Y-91575000D01*
X200477380Y-91622619D01*
X200763095Y-91527380D02*
X201334523Y-91527380D01*
X201048809Y-92527380D02*
X201048809Y-91527380D01*
X201858333Y-91527380D02*
X201953571Y-91527380D01*
X202048809Y-91575000D01*
X202096428Y-91622619D01*
X202144047Y-91717857D01*
X202191666Y-91908333D01*
X202191666Y-92146428D01*
X202144047Y-92336904D01*
X202096428Y-92432142D01*
X202048809Y-92479761D01*
X201953571Y-92527380D01*
X201858333Y-92527380D01*
X201763095Y-92479761D01*
X201715476Y-92432142D01*
X201667857Y-92336904D01*
X201620238Y-92146428D01*
X201620238Y-91908333D01*
X201667857Y-91717857D01*
X201715476Y-91622619D01*
X201763095Y-91575000D01*
X201858333Y-91527380D01*
X202572619Y-91622619D02*
X202620238Y-91575000D01*
X202715476Y-91527380D01*
X202953571Y-91527380D01*
X203048809Y-91575000D01*
X203096428Y-91622619D01*
X203144047Y-91717857D01*
X203144047Y-91813095D01*
X203096428Y-91955952D01*
X202525000Y-92527380D01*
X203144047Y-92527380D01*
X185817142Y-92241666D02*
X185864761Y-92289285D01*
X185912380Y-92432142D01*
X185912380Y-92527380D01*
X185864761Y-92670238D01*
X185769523Y-92765476D01*
X185674285Y-92813095D01*
X185483809Y-92860714D01*
X185340952Y-92860714D01*
X185150476Y-92813095D01*
X185055238Y-92765476D01*
X184960000Y-92670238D01*
X184912380Y-92527380D01*
X184912380Y-92432142D01*
X184960000Y-92289285D01*
X185007619Y-92241666D01*
X185912380Y-91289285D02*
X185912380Y-91860714D01*
X185912380Y-91575000D02*
X184912380Y-91575000D01*
X185055238Y-91670238D01*
X185150476Y-91765476D01*
X185198095Y-91860714D01*
X165552380Y-92876666D02*
X165076190Y-93210000D01*
X165552380Y-93448095D02*
X164552380Y-93448095D01*
X164552380Y-93067142D01*
X164600000Y-92971904D01*
X164647619Y-92924285D01*
X164742857Y-92876666D01*
X164885714Y-92876666D01*
X164980952Y-92924285D01*
X165028571Y-92971904D01*
X165076190Y-93067142D01*
X165076190Y-93448095D01*
X164647619Y-92495714D02*
X164600000Y-92448095D01*
X164552380Y-92352857D01*
X164552380Y-92114761D01*
X164600000Y-92019523D01*
X164647619Y-91971904D01*
X164742857Y-91924285D01*
X164838095Y-91924285D01*
X164980952Y-91971904D01*
X165552380Y-92543333D01*
X165552380Y-91924285D01*
X168727380Y-92829047D02*
X168727380Y-93400476D01*
X168727380Y-93114761D02*
X167727380Y-93114761D01*
X167870238Y-93210000D01*
X167965476Y-93305238D01*
X168013095Y-93400476D01*
X168727380Y-92400476D02*
X167727380Y-92400476D01*
X168346428Y-92305238D02*
X168727380Y-92019523D01*
X168060714Y-92019523D02*
X168441666Y-92400476D01*
X187002380Y-106161904D02*
X187811904Y-106161904D01*
X187907142Y-106114285D01*
X187954761Y-106066666D01*
X188002380Y-105971428D01*
X188002380Y-105780952D01*
X187954761Y-105685714D01*
X187907142Y-105638095D01*
X187811904Y-105590476D01*
X187002380Y-105590476D01*
X187097619Y-105161904D02*
X187050000Y-105114285D01*
X187002380Y-105019047D01*
X187002380Y-104780952D01*
X187050000Y-104685714D01*
X187097619Y-104638095D01*
X187192857Y-104590476D01*
X187288095Y-104590476D01*
X187430952Y-104638095D01*
X188002380Y-105209523D01*
X188002380Y-104590476D01*
X195747142Y-104852380D02*
X196413809Y-104852380D01*
X195985238Y-105852380D01*
X197223333Y-105185714D02*
X197223333Y-105852380D01*
X196985238Y-104804761D02*
X196747142Y-105519047D01*
X197366190Y-105519047D01*
X197747142Y-105852380D02*
X197747142Y-104852380D01*
X197747142Y-105328571D02*
X198318571Y-105328571D01*
X198318571Y-105852380D02*
X198318571Y-104852380D01*
X199366190Y-105757142D02*
X199318571Y-105804761D01*
X199175714Y-105852380D01*
X199080476Y-105852380D01*
X198937619Y-105804761D01*
X198842380Y-105709523D01*
X198794761Y-105614285D01*
X198747142Y-105423809D01*
X198747142Y-105280952D01*
X198794761Y-105090476D01*
X198842380Y-104995238D01*
X198937619Y-104900000D01*
X199080476Y-104852380D01*
X199175714Y-104852380D01*
X199318571Y-104900000D01*
X199366190Y-104947619D01*
X199651904Y-104852380D02*
X200223333Y-104852380D01*
X199937619Y-105852380D02*
X199937619Y-104852380D01*
X201080476Y-105852380D02*
X200509047Y-105852380D01*
X200794761Y-105852380D02*
X200794761Y-104852380D01*
X200699523Y-104995238D01*
X200604285Y-105090476D01*
X200509047Y-105138095D01*
X201413809Y-104852380D02*
X202032857Y-104852380D01*
X201699523Y-105233333D01*
X201842380Y-105233333D01*
X201937619Y-105280952D01*
X201985238Y-105328571D01*
X202032857Y-105423809D01*
X202032857Y-105661904D01*
X201985238Y-105757142D01*
X201937619Y-105804761D01*
X201842380Y-105852380D01*
X201556666Y-105852380D01*
X201461428Y-105804761D01*
X201413809Y-105757142D01*
X202509047Y-105852380D02*
X202699523Y-105852380D01*
X202794761Y-105804761D01*
X202842380Y-105757142D01*
X202937619Y-105614285D01*
X202985238Y-105423809D01*
X202985238Y-105042857D01*
X202937619Y-104947619D01*
X202890000Y-104900000D01*
X202794761Y-104852380D01*
X202604285Y-104852380D01*
X202509047Y-104900000D01*
X202461428Y-104947619D01*
X202413809Y-105042857D01*
X202413809Y-105280952D01*
X202461428Y-105376190D01*
X202509047Y-105423809D01*
X202604285Y-105471428D01*
X202794761Y-105471428D01*
X202890000Y-105423809D01*
X202937619Y-105376190D01*
X202985238Y-105280952D01*
X182642142Y-105576666D02*
X182689761Y-105624285D01*
X182737380Y-105767142D01*
X182737380Y-105862380D01*
X182689761Y-106005238D01*
X182594523Y-106100476D01*
X182499285Y-106148095D01*
X182308809Y-106195714D01*
X182165952Y-106195714D01*
X181975476Y-106148095D01*
X181880238Y-106100476D01*
X181785000Y-106005238D01*
X181737380Y-105862380D01*
X181737380Y-105767142D01*
X181785000Y-105624285D01*
X181832619Y-105576666D01*
X181832619Y-105195714D02*
X181785000Y-105148095D01*
X181737380Y-105052857D01*
X181737380Y-104814761D01*
X181785000Y-104719523D01*
X181832619Y-104671904D01*
X181927857Y-104624285D01*
X182023095Y-104624285D01*
X182165952Y-104671904D01*
X182737380Y-105243333D01*
X182737380Y-104624285D01*
X162592380Y-81388095D02*
X161592380Y-81388095D01*
X161592380Y-81007142D01*
X161640000Y-80911904D01*
X161687619Y-80864285D01*
X161782857Y-80816666D01*
X161925714Y-80816666D01*
X162020952Y-80864285D01*
X162068571Y-80911904D01*
X162116190Y-81007142D01*
X162116190Y-81388095D01*
X162592380Y-79864285D02*
X162592380Y-80435714D01*
X162592380Y-80150000D02*
X161592380Y-80150000D01*
X161735238Y-80245238D01*
X161830476Y-80340476D01*
X161878095Y-80435714D01*
X176177380Y-105576666D02*
X175701190Y-105910000D01*
X176177380Y-106148095D02*
X175177380Y-106148095D01*
X175177380Y-105767142D01*
X175225000Y-105671904D01*
X175272619Y-105624285D01*
X175367857Y-105576666D01*
X175510714Y-105576666D01*
X175605952Y-105624285D01*
X175653571Y-105671904D01*
X175701190Y-105767142D01*
X175701190Y-106148095D01*
X175177380Y-105243333D02*
X175177380Y-104624285D01*
X175558333Y-104957619D01*
X175558333Y-104814761D01*
X175605952Y-104719523D01*
X175653571Y-104671904D01*
X175748809Y-104624285D01*
X175986904Y-104624285D01*
X176082142Y-104671904D01*
X176129761Y-104719523D01*
X176177380Y-104814761D01*
X176177380Y-105100476D01*
X176129761Y-105195714D01*
X176082142Y-105243333D01*
X173807380Y-105529047D02*
X173807380Y-106100476D01*
X173807380Y-105814761D02*
X172807380Y-105814761D01*
X172950238Y-105910000D01*
X173045476Y-106005238D01*
X173093095Y-106100476D01*
X173807380Y-105100476D02*
X172807380Y-105100476D01*
X173426428Y-105005238D02*
X173807380Y-104719523D01*
X173140714Y-104719523D02*
X173521666Y-105100476D01*
X176517380Y-92876666D02*
X176041190Y-93210000D01*
X176517380Y-93448095D02*
X175517380Y-93448095D01*
X175517380Y-93067142D01*
X175565000Y-92971904D01*
X175612619Y-92924285D01*
X175707857Y-92876666D01*
X175850714Y-92876666D01*
X175945952Y-92924285D01*
X175993571Y-92971904D01*
X176041190Y-93067142D01*
X176041190Y-93448095D01*
X176517380Y-91924285D02*
X176517380Y-92495714D01*
X176517380Y-92210000D02*
X175517380Y-92210000D01*
X175660238Y-92305238D01*
X175755476Y-92400476D01*
X175803095Y-92495714D01*
X178887380Y-92829047D02*
X178887380Y-93400476D01*
X178887380Y-93114761D02*
X177887380Y-93114761D01*
X178030238Y-93210000D01*
X178125476Y-93305238D01*
X178173095Y-93400476D01*
X178887380Y-92400476D02*
X177887380Y-92400476D01*
X178506428Y-92305238D02*
X178887380Y-92019523D01*
X178220714Y-92019523D02*
X178601666Y-92400476D01*
X181257380Y-105576666D02*
X180781190Y-105910000D01*
X181257380Y-106148095D02*
X180257380Y-106148095D01*
X180257380Y-105767142D01*
X180305000Y-105671904D01*
X180352619Y-105624285D01*
X180447857Y-105576666D01*
X180590714Y-105576666D01*
X180685952Y-105624285D01*
X180733571Y-105671904D01*
X180781190Y-105767142D01*
X180781190Y-106148095D01*
X180257380Y-104671904D02*
X180257380Y-105148095D01*
X180733571Y-105195714D01*
X180685952Y-105148095D01*
X180638333Y-105052857D01*
X180638333Y-104814761D01*
X180685952Y-104719523D01*
X180733571Y-104671904D01*
X180828809Y-104624285D01*
X181066904Y-104624285D01*
X181162142Y-104671904D01*
X181209761Y-104719523D01*
X181257380Y-104814761D01*
X181257380Y-105052857D01*
X181209761Y-105148095D01*
X181162142Y-105195714D01*
X178887380Y-106529047D02*
X178411190Y-106862380D01*
X178887380Y-107100476D02*
X177887380Y-107100476D01*
X177887380Y-106719523D01*
X177935000Y-106624285D01*
X177982619Y-106576666D01*
X178077857Y-106529047D01*
X178220714Y-106529047D01*
X178315952Y-106576666D01*
X178363571Y-106624285D01*
X178411190Y-106719523D01*
X178411190Y-107100476D01*
X177982619Y-106148095D02*
X177935000Y-106100476D01*
X177887380Y-106005238D01*
X177887380Y-105767142D01*
X177935000Y-105671904D01*
X177982619Y-105624285D01*
X178077857Y-105576666D01*
X178173095Y-105576666D01*
X178315952Y-105624285D01*
X178887380Y-106195714D01*
X178887380Y-105576666D01*
X177887380Y-105243333D02*
X177887380Y-104576666D01*
X178887380Y-105005238D01*
X177887380Y-104005238D02*
X177887380Y-103910000D01*
X177935000Y-103814761D01*
X177982619Y-103767142D01*
X178077857Y-103719523D01*
X178268333Y-103671904D01*
X178506428Y-103671904D01*
X178696904Y-103719523D01*
X178792142Y-103767142D01*
X178839761Y-103814761D01*
X178887380Y-103910000D01*
X178887380Y-104005238D01*
X178839761Y-104100476D01*
X178792142Y-104148095D01*
X178696904Y-104195714D01*
X178506428Y-104243333D01*
X178268333Y-104243333D01*
X178077857Y-104195714D01*
X177982619Y-104148095D01*
X177935000Y-104100476D01*
X177887380Y-104005238D01*
D11*
X165635000Y-113707500D02*
X214095000Y-113707500D01*
X170045000Y-122907500D02*
X169545000Y-121907500D01*
X187815000Y-120207500D02*
X165635000Y-120207500D01*
X164335000Y-112397500D02*
X215395000Y-112397500D01*
X164335000Y-121517500D02*
X164335000Y-112397500D01*
X191915000Y-120207500D02*
X191915000Y-121517500D01*
X169045000Y-122907500D02*
X170045000Y-122907500D01*
X214095000Y-113707500D02*
X214095000Y-120207500D01*
X191915000Y-120207500D02*
X191915000Y-120207500D01*
X214095000Y-120207500D02*
X191915000Y-120207500D01*
X215395000Y-112397500D02*
X215395000Y-121517500D01*
X215395000Y-121517500D02*
X164335000Y-121517500D01*
X165635000Y-120207500D02*
X165635000Y-113707500D01*
X187815000Y-121517500D02*
X187815000Y-120207500D01*
X169545000Y-121907500D02*
X169045000Y-122907500D01*
X166080000Y-100364000D02*
X166080000Y-100520000D01*
X166080000Y-102680000D02*
X166080000Y-102836000D01*
X168681130Y-100520163D02*
G75*
G03*
X166599039Y-100520000I-1041130J-1079837D01*
G01*
X166080000Y-102835516D02*
G75*
G03*
X169312335Y-102678608I1560000J1235516D01*
G01*
X166599039Y-102680000D02*
G75*
G03*
X168681130Y-102679837I1040961J1080000D01*
G01*
X169312335Y-100521392D02*
G75*
G03*
X166080000Y-100364484I-1672335J-1078608D01*
G01*
X166075000Y-106714000D02*
X166075000Y-106870000D01*
X166075000Y-109030000D02*
X166075000Y-109186000D01*
X168676130Y-106870163D02*
G75*
G03*
X166594039Y-106870000I-1041130J-1079837D01*
G01*
X166075000Y-109185516D02*
G75*
G03*
X169307335Y-109028608I1560000J1235516D01*
G01*
X166594039Y-109030000D02*
G75*
G03*
X168676130Y-109029837I1040961J1080000D01*
G01*
X169307335Y-106871392D02*
G75*
G03*
X166075000Y-106714484I-1672335J-1078608D01*
G01*
X212665000Y-102235000D02*
X215325000Y-102235000D01*
X213995000Y-99635000D02*
X215325000Y-99635000D01*
X215325000Y-99635000D02*
X215325000Y-100965000D01*
X212665000Y-104835000D02*
X215325000Y-104835000D01*
X215325000Y-102235000D02*
X215325000Y-104835000D01*
X212665000Y-102235000D02*
X212665000Y-104835000D01*
X174395000Y-95980000D02*
X174725000Y-95980000D01*
X174725000Y-95980000D02*
X174725000Y-89440000D01*
X171985000Y-89440000D02*
X172315000Y-89440000D01*
X174725000Y-89440000D02*
X174395000Y-89440000D01*
X172315000Y-95980000D02*
X171985000Y-95980000D01*
X171985000Y-95980000D02*
X171985000Y-89440000D01*
X212640000Y-93385000D02*
X212640000Y-92055000D01*
X215300000Y-88185000D02*
X212640000Y-88185000D01*
X215300000Y-90785000D02*
X212640000Y-90785000D01*
X213970000Y-93385000D02*
X212640000Y-93385000D01*
X215300000Y-90785000D02*
X215300000Y-88185000D01*
X212640000Y-90785000D02*
X212640000Y-88185000D01*
X208970000Y-94715000D02*
X208970000Y-89415000D01*
X191070000Y-94715000D02*
X208970000Y-94715000D01*
X208970000Y-89415000D02*
X191070000Y-89415000D01*
X191070000Y-93065000D02*
X191070000Y-94715000D01*
X191070000Y-89415000D02*
X191070000Y-91065000D01*
X191070000Y-93065000D02*
G75*
G03*
X191070000Y-91065000I0J1000000D01*
G01*
X186590000Y-94545000D02*
X186905000Y-94545000D01*
X186590000Y-89605000D02*
X186905000Y-89605000D01*
X189015000Y-94545000D02*
X189330000Y-94545000D01*
X189015000Y-89605000D02*
X189330000Y-89605000D01*
X189330000Y-94545000D02*
X189330000Y-89605000D01*
X186590000Y-94545000D02*
X186590000Y-89605000D01*
X169645000Y-95980000D02*
X169315000Y-95980000D01*
X169645000Y-89440000D02*
X169645000Y-95980000D01*
X166905000Y-89440000D02*
X166905000Y-95980000D01*
X169315000Y-89440000D02*
X169645000Y-89440000D01*
X166905000Y-95980000D02*
X167235000Y-95980000D01*
X167235000Y-89440000D02*
X166905000Y-89440000D01*
X188550000Y-102750000D02*
X188550000Y-104400000D01*
X188550000Y-106400000D02*
X188550000Y-108050000D01*
X188550000Y-108050000D02*
X208990000Y-108050000D01*
X208990000Y-108050000D02*
X208990000Y-102750000D01*
X208990000Y-102750000D02*
X188550000Y-102750000D01*
X188550000Y-106400000D02*
G75*
G03*
X188550000Y-104400000I0J1000000D01*
G01*
X186155000Y-107880000D02*
X186155000Y-102940000D01*
X185840000Y-107880000D02*
X186155000Y-107880000D01*
X183415000Y-107880000D02*
X183415000Y-102940000D01*
X185840000Y-102940000D02*
X186155000Y-102940000D01*
X183415000Y-107880000D02*
X183730000Y-107880000D01*
X183415000Y-102940000D02*
X183730000Y-102940000D01*
X163140000Y-83250000D02*
X163140000Y-81920000D01*
X165740000Y-83250000D02*
X165740000Y-80650000D01*
X163140000Y-80650000D02*
X163140000Y-78050000D01*
X214060000Y-83250000D02*
X214060000Y-78050000D01*
X165740000Y-80650000D02*
X163140000Y-80650000D01*
X165740000Y-83250000D02*
X214060000Y-83250000D01*
X163140000Y-78050000D02*
X214060000Y-78050000D01*
X164470000Y-83250000D02*
X163140000Y-83250000D01*
X174725000Y-102140000D02*
X174725000Y-108680000D01*
X174725000Y-108680000D02*
X174395000Y-108680000D01*
X171985000Y-108680000D02*
X172315000Y-108680000D01*
X171985000Y-102140000D02*
X171985000Y-108680000D01*
X174395000Y-102140000D02*
X174725000Y-102140000D01*
X172315000Y-102140000D02*
X171985000Y-102140000D01*
X179805000Y-89440000D02*
X179475000Y-89440000D01*
X177395000Y-95980000D02*
X177065000Y-95980000D01*
X179475000Y-95980000D02*
X179805000Y-95980000D01*
X177065000Y-89440000D02*
X177395000Y-89440000D01*
X179805000Y-95980000D02*
X179805000Y-89440000D01*
X177065000Y-95980000D02*
X177065000Y-89440000D01*
X179805000Y-102140000D02*
X179805000Y-108680000D01*
X177065000Y-108680000D02*
X177395000Y-108680000D01*
X177065000Y-102140000D02*
X177065000Y-108680000D01*
X179805000Y-108680000D02*
X179475000Y-108680000D01*
X179475000Y-102140000D02*
X179805000Y-102140000D01*
X177395000Y-102140000D02*
X177065000Y-102140000D01*
M02*
