G04 #@! TF.GenerationSoftware,KiCad,Pcbnew,(6.0.6)*
G04 #@! TF.CreationDate,2022-09-15T19:04:13+02:00*
G04 #@! TF.ProjectId,PC128S_IDE,50433132-3853-45f4-9944-452e6b696361,rev?*
G04 #@! TF.SameCoordinates,Original*
G04 #@! TF.FileFunction,Copper,L1,Top*
G04 #@! TF.FilePolarity,Positive*
%FSLAX46Y46*%
G04 Gerber Fmt 4.6, Leading zero omitted, Abs format (unit mm)*
G04 Created by KiCad (PCBNEW (6.0.6)) date 2022-09-15 19:04:13*
%MOMM*%
%LPD*%
G01*
G04 APERTURE LIST*
G04 #@! TA.AperFunction,ComponentPad*
%ADD10R,1.700000X1.700000*%
G04 #@! TD*
G04 #@! TA.AperFunction,ComponentPad*
%ADD11O,1.700000X1.700000*%
G04 #@! TD*
G04 #@! TA.AperFunction,ComponentPad*
%ADD12C,1.600000*%
G04 #@! TD*
G04 #@! TA.AperFunction,ComponentPad*
%ADD13O,1.600000X1.600000*%
G04 #@! TD*
G04 #@! TA.AperFunction,ComponentPad*
%ADD14R,1.600000X1.600000*%
G04 #@! TD*
G04 #@! TA.AperFunction,ComponentPad*
%ADD15R,1.800000X1.800000*%
G04 #@! TD*
G04 #@! TA.AperFunction,ComponentPad*
%ADD16C,1.800000*%
G04 #@! TD*
G04 #@! TA.AperFunction,ViaPad*
%ADD17C,0.800000*%
G04 #@! TD*
G04 #@! TA.AperFunction,Conductor*
%ADD18C,0.250000*%
G04 #@! TD*
G04 APERTURE END LIST*
D10*
X212090000Y-100965000D03*
D11*
X212090000Y-103505000D03*
D10*
X144509500Y-120795000D03*
D11*
X147049500Y-120795000D03*
X149589500Y-120795000D03*
X152129500Y-120795000D03*
X154669500Y-120795000D03*
X157209500Y-120795000D03*
X159749500Y-120795000D03*
X162289500Y-120795000D03*
X164829500Y-120795000D03*
X167369500Y-120795000D03*
X169909500Y-120795000D03*
X172449500Y-120795000D03*
X174989500Y-120795000D03*
X177529500Y-120795000D03*
X180069500Y-120795000D03*
X182609500Y-120795000D03*
X185149500Y-120795000D03*
X187689500Y-120795000D03*
X190229500Y-120795000D03*
X192769500Y-120795000D03*
X195309500Y-120795000D03*
X197849500Y-120795000D03*
X200389500Y-120795000D03*
X202929500Y-120795000D03*
X205469500Y-120795000D03*
D10*
X144509500Y-115795000D03*
D11*
X147049500Y-115795000D03*
X149589500Y-115795000D03*
X152129500Y-115795000D03*
X154669500Y-115795000D03*
X157209500Y-115795000D03*
X159749500Y-115795000D03*
X162289500Y-115795000D03*
X164829500Y-115795000D03*
X167369500Y-115795000D03*
X169909500Y-115795000D03*
X172449500Y-115795000D03*
X174989500Y-115795000D03*
X177529500Y-115795000D03*
X180069500Y-115795000D03*
X182609500Y-115795000D03*
X185149500Y-115795000D03*
X187689500Y-115795000D03*
X190229500Y-115795000D03*
X192769500Y-115795000D03*
X195309500Y-115795000D03*
X197849500Y-115795000D03*
X200389500Y-115795000D03*
X202929500Y-115795000D03*
X205469500Y-115795000D03*
D10*
X131445000Y-103505000D03*
D11*
X131445000Y-106045000D03*
X131445000Y-108585000D03*
D12*
X156210000Y-94615000D03*
D13*
X156210000Y-86995000D03*
D10*
X204470000Y-104140000D03*
D11*
X204470000Y-101600000D03*
D14*
X178440000Y-105400000D03*
D13*
X180980000Y-105400000D03*
X183520000Y-105400000D03*
X186060000Y-105400000D03*
X188600000Y-105400000D03*
X191140000Y-105400000D03*
X193680000Y-105400000D03*
X193680000Y-97780000D03*
X191140000Y-97780000D03*
X188600000Y-97780000D03*
X186060000Y-97780000D03*
X183520000Y-97780000D03*
X180980000Y-97780000D03*
X178440000Y-97780000D03*
D15*
X137790000Y-88900000D03*
D16*
X140330000Y-88900000D03*
D12*
X142875000Y-104100000D03*
X142875000Y-99100000D03*
X151130000Y-86995000D03*
D13*
X151130000Y-94615000D03*
D14*
X147950000Y-105400000D03*
D13*
X150490000Y-105400000D03*
X153030000Y-105400000D03*
X155570000Y-105400000D03*
X158110000Y-105400000D03*
X160650000Y-105400000D03*
X163190000Y-105400000D03*
X165730000Y-105400000D03*
X165730000Y-97780000D03*
X163190000Y-97780000D03*
X160650000Y-97780000D03*
X158110000Y-97780000D03*
X155570000Y-97780000D03*
X153030000Y-97780000D03*
X150490000Y-97780000D03*
X147950000Y-97780000D03*
D15*
X130175000Y-88900000D03*
D16*
X132715000Y-88900000D03*
D12*
X173355000Y-104100000D03*
X173355000Y-99100000D03*
D10*
X164470000Y-81920000D03*
D11*
X164470000Y-79380000D03*
X167010000Y-81920000D03*
X167010000Y-79380000D03*
X169550000Y-81920000D03*
X169550000Y-79380000D03*
X172090000Y-81920000D03*
X172090000Y-79380000D03*
X174630000Y-81920000D03*
X174630000Y-79380000D03*
X177170000Y-81920000D03*
X177170000Y-79380000D03*
X179710000Y-81920000D03*
X179710000Y-79380000D03*
X182250000Y-81920000D03*
X182250000Y-79380000D03*
X184790000Y-81920000D03*
X184790000Y-79380000D03*
X187330000Y-81920000D03*
X187330000Y-79380000D03*
X189870000Y-81920000D03*
X189870000Y-79380000D03*
X192410000Y-81920000D03*
X192410000Y-79380000D03*
X194950000Y-81920000D03*
X194950000Y-79380000D03*
X197490000Y-81920000D03*
X197490000Y-79380000D03*
X200030000Y-81920000D03*
X200030000Y-79380000D03*
X202570000Y-81920000D03*
X202570000Y-79380000D03*
X205110000Y-81920000D03*
X205110000Y-79380000D03*
X207650000Y-81920000D03*
X207650000Y-79380000D03*
X210190000Y-81920000D03*
X210190000Y-79380000D03*
X212730000Y-81920000D03*
X212730000Y-79380000D03*
D12*
X166370000Y-86995000D03*
D13*
X166370000Y-94615000D03*
D12*
X161290000Y-94615000D03*
D13*
X161290000Y-86995000D03*
D12*
X171450000Y-86995000D03*
D13*
X171450000Y-94615000D03*
D17*
X202842500Y-107980400D03*
X173720500Y-108506400D03*
X167834800Y-87078200D03*
X168819200Y-84932700D03*
D18*
X154300000Y-98153600D02*
X155051500Y-98905100D01*
X173355000Y-99100000D02*
X167055000Y-105400000D01*
X158343100Y-98905100D02*
X164604900Y-105166900D01*
X193680000Y-105400000D02*
X192554900Y-105400000D01*
X164604900Y-105166900D02*
X164604900Y-105400000D01*
X192554900Y-105400000D02*
X192554900Y-105118600D01*
X151130000Y-94615000D02*
X152255100Y-94615000D01*
X191711200Y-104274900D02*
X178529900Y-104274900D01*
X178529900Y-104274900D02*
X173355000Y-99100000D01*
X154300000Y-96659900D02*
X154300000Y-98153600D01*
X165730000Y-105400000D02*
X166855100Y-105400000D01*
X152255100Y-94615000D02*
X154300000Y-96659900D01*
X165730000Y-105400000D02*
X164604900Y-105400000D01*
X155051500Y-98905100D02*
X158343100Y-98905100D01*
X192554900Y-105118600D02*
X191711200Y-104274900D01*
X192410000Y-79380000D02*
X189870000Y-79380000D01*
X194950000Y-79380000D02*
X192410000Y-79380000D01*
X167055000Y-105400000D02*
X166855100Y-105400000D01*
X164067100Y-93437200D02*
X165244900Y-94615000D01*
X210279900Y-101600000D02*
X210914900Y-100965000D01*
X166370000Y-94615000D02*
X165244900Y-94615000D01*
X147950000Y-96115300D02*
X150628100Y-93437200D01*
X170660100Y-97780000D02*
X178440000Y-97780000D01*
X147950000Y-97780000D02*
X147950000Y-96115300D01*
X179565100Y-97780000D02*
X179565100Y-98061300D01*
X183103800Y-101600000D02*
X203294900Y-101600000D01*
X204470000Y-101600000D02*
X203294900Y-101600000D01*
X147049500Y-115795000D02*
X147049500Y-120795000D01*
X150628100Y-93437200D02*
X164067100Y-93437200D01*
X179565100Y-98061300D02*
X183103800Y-101600000D01*
X167495100Y-94615000D02*
X170660100Y-97780000D01*
X212090000Y-100965000D02*
X210914900Y-100965000D01*
X178440000Y-97780000D02*
X179565100Y-97780000D01*
X166370000Y-94615000D02*
X167495100Y-94615000D01*
X204470000Y-101600000D02*
X210279900Y-101600000D01*
X188864600Y-115795000D02*
X188864600Y-115429700D01*
X196313900Y-107980400D02*
X202842500Y-107980400D01*
X188864600Y-115429700D02*
X196313900Y-107980400D01*
X187689500Y-115795000D02*
X188864600Y-115795000D01*
X186324600Y-115429700D02*
X194779000Y-106975300D01*
X185149500Y-115795000D02*
X186324600Y-115795000D01*
X214427100Y-79390400D02*
X213226600Y-78189900D01*
X194779000Y-106975300D02*
X210354700Y-106975300D01*
X186324600Y-115795000D02*
X186324600Y-115429700D01*
X213226600Y-78189900D02*
X208840100Y-78189900D01*
X210354700Y-106975300D02*
X214427100Y-102902900D01*
X214427100Y-102902900D02*
X214427100Y-79390400D01*
X208840100Y-78189900D02*
X207650000Y-79380000D01*
X152129500Y-115795000D02*
X153304600Y-115795000D01*
X160227900Y-108506400D02*
X153304600Y-115429700D01*
X173720500Y-108506400D02*
X160227900Y-108506400D01*
X153304600Y-115429700D02*
X153304600Y-115795000D01*
X144509500Y-120795000D02*
X145684600Y-120795000D01*
X204294400Y-121162200D02*
X204294400Y-120795000D01*
X203036400Y-122420200D02*
X204294400Y-121162200D01*
X145684600Y-120795000D02*
X145684600Y-121162300D01*
X205469500Y-120795000D02*
X204294400Y-120795000D01*
X146942500Y-122420200D02*
X203036400Y-122420200D01*
X145684600Y-121162300D02*
X146942500Y-122420200D01*
X180069500Y-120795000D02*
X180069500Y-119619900D01*
X213084500Y-102140200D02*
X211549800Y-102140200D01*
X191140000Y-106525100D02*
X183879500Y-113785600D01*
X210190000Y-81920000D02*
X211408000Y-80702000D01*
X211549800Y-102140200D02*
X207164800Y-106525200D01*
X191140000Y-105400000D02*
X191140000Y-106037000D01*
X183879500Y-116296900D02*
X180556500Y-119619900D01*
X183879500Y-113785600D02*
X183879500Y-116296900D01*
X213920700Y-81426200D02*
X213920700Y-101304000D01*
X191628200Y-106525200D02*
X191140000Y-106037000D01*
X213920700Y-101304000D02*
X213084500Y-102140200D01*
X207164800Y-106525200D02*
X191628200Y-106525200D01*
X191140000Y-106037000D02*
X191140000Y-106525100D01*
X213196500Y-80702000D02*
X213920700Y-81426200D01*
X180556500Y-119619900D02*
X180069500Y-119619900D01*
X211408000Y-80702000D02*
X213196500Y-80702000D01*
X148319500Y-116284400D02*
X150780200Y-118745100D01*
X141501900Y-108585000D02*
X148319500Y-115402600D01*
X161969700Y-118745100D02*
X163654400Y-120429800D01*
X163654400Y-120429800D02*
X163654400Y-120795000D01*
X150780200Y-118745100D02*
X161969700Y-118745100D01*
X164829500Y-120795000D02*
X163654400Y-120795000D01*
X131445000Y-108585000D02*
X141501900Y-108585000D01*
X148319500Y-115402600D02*
X148319500Y-116284400D01*
X186171300Y-106984900D02*
X153489800Y-106984900D01*
X153030000Y-105400000D02*
X153030000Y-106525100D01*
X153030000Y-106525100D02*
X133100200Y-106525100D01*
X188600000Y-105400000D02*
X187474900Y-105400000D01*
X153489800Y-106984900D02*
X153030000Y-106525100D01*
X131445000Y-106045000D02*
X132620100Y-106045000D01*
X187474900Y-105681300D02*
X186171300Y-106984900D01*
X187474900Y-105400000D02*
X187474900Y-105681300D01*
X133100200Y-106525100D02*
X132620100Y-106045000D01*
X188958800Y-84563300D02*
X170349700Y-84563300D01*
X191234900Y-82287200D02*
X188958800Y-84563300D01*
X170349700Y-84563300D02*
X167834800Y-87078200D01*
X192410000Y-81920000D02*
X191234900Y-81920000D01*
X191234900Y-81920000D02*
X191234900Y-82287200D01*
X171450000Y-94615000D02*
X170324900Y-94615000D01*
X131395100Y-89359400D02*
X131395100Y-88900000D01*
X168625600Y-92915700D02*
X134951400Y-92915700D01*
X134951400Y-92915700D02*
X131395100Y-89359400D01*
X170324900Y-94615000D02*
X168625600Y-92915700D01*
X130170000Y-88900000D02*
X131395100Y-88900000D01*
X153955800Y-88124100D02*
X150122400Y-88124100D01*
X150122400Y-88124100D02*
X149666600Y-87668300D01*
X139792400Y-87668300D02*
X139020100Y-88440600D01*
X137795000Y-88900000D02*
X139020100Y-88900000D01*
X155084900Y-86995000D02*
X153955800Y-88124100D01*
X149666600Y-87668300D02*
X139792400Y-87668300D01*
X156210000Y-86995000D02*
X155084900Y-86995000D01*
X139020100Y-88440600D02*
X139020100Y-88900000D01*
X187015900Y-83964200D02*
X169787600Y-83964200D01*
X169787600Y-83964300D02*
X168819200Y-84932700D01*
X169787600Y-83964200D02*
X169787600Y-83964300D01*
X188694900Y-82285200D02*
X187015900Y-83964200D01*
X189870000Y-81920000D02*
X188694900Y-81920000D01*
X188694900Y-81920000D02*
X188694900Y-82285200D01*
X165316800Y-88158300D02*
X168278700Y-88158300D01*
X197490000Y-81920000D02*
X196314900Y-81920000D01*
X151130000Y-86995000D02*
X152269800Y-85855200D01*
X196314900Y-82285200D02*
X196314900Y-81920000D01*
X171010400Y-85426600D02*
X193173500Y-85426600D01*
X193173500Y-85426600D02*
X196314900Y-82285200D01*
X152269800Y-85855200D02*
X163013700Y-85855200D01*
X163013700Y-85855200D02*
X165316800Y-88158300D01*
X168278700Y-88158300D02*
X171010400Y-85426600D01*
X169237800Y-83488700D02*
X166370000Y-86356500D01*
X209014900Y-79745200D02*
X208110100Y-80650000D01*
X209014900Y-79380000D02*
X209014900Y-79745200D01*
X166370000Y-86356500D02*
X166370000Y-86995000D01*
X208110100Y-80650000D02*
X176680600Y-80650000D01*
X210190000Y-79380000D02*
X209014900Y-79380000D01*
X175994800Y-81335800D02*
X175994800Y-82217600D01*
X174723700Y-83488700D02*
X169237800Y-83488700D01*
X175994800Y-82217600D02*
X174723700Y-83488700D01*
X176680600Y-80650000D02*
X175994800Y-81335800D01*
X212730000Y-81920000D02*
X211554900Y-81920000D01*
X171450000Y-86995000D02*
X206845100Y-86995000D01*
X211554900Y-82285200D02*
X211554900Y-81920000D01*
X206845100Y-86995000D02*
X211554900Y-82285200D01*
X186060000Y-97780000D02*
X188600000Y-97780000D01*
X186060000Y-97780000D02*
X184934900Y-97780000D01*
X161290000Y-86995000D02*
X162415100Y-86995000D01*
X178193000Y-90805000D02*
X184934900Y-97546900D01*
X162415100Y-86995000D02*
X166225100Y-90805000D01*
X184934900Y-97546900D02*
X184934900Y-97780000D01*
X166225100Y-90805000D02*
X178193000Y-90805000D01*
X178440000Y-105400000D02*
X177314900Y-105400000D01*
X155102000Y-106525100D02*
X154300000Y-105723100D01*
X154300000Y-105723100D02*
X154300000Y-105022400D01*
X151615100Y-105118700D02*
X151615100Y-105400000D01*
X177314900Y-105400000D02*
X176189800Y-106525100D01*
X154300000Y-105022400D02*
X153513500Y-104235900D01*
X150490000Y-105400000D02*
X151615100Y-105400000D01*
X152497900Y-104235900D02*
X151615100Y-105118700D01*
X153513500Y-104235900D02*
X152497900Y-104235900D01*
X176189800Y-106525100D02*
X155102000Y-106525100D01*
X180980000Y-97780000D02*
X182105100Y-97780000D01*
X183029600Y-98905200D02*
X189122800Y-98905200D01*
X189122800Y-98905200D02*
X190014900Y-98013100D01*
X182105100Y-97780000D02*
X182105100Y-97980700D01*
X190014900Y-98013100D02*
X190014900Y-97780000D01*
X182105100Y-97980700D02*
X183029600Y-98905200D01*
X191140000Y-97780000D02*
X190014900Y-97780000D01*
X151615100Y-97780000D02*
X151615100Y-98061400D01*
X151615100Y-98061400D02*
X153530800Y-99977100D01*
X163190000Y-105400000D02*
X162064900Y-105400000D01*
X156875100Y-99977100D02*
X162064900Y-105166900D01*
X153530800Y-99977100D02*
X156875100Y-99977100D01*
X150490000Y-97780000D02*
X151615100Y-97780000D01*
X162064900Y-105166900D02*
X162064900Y-105400000D01*
M02*
