G04 #@! TF.GenerationSoftware,KiCad,Pcbnew,(6.0.6)*
G04 #@! TF.CreationDate,2022-08-31T17:59:28+02:00*
G04 #@! TF.ProjectId,PC128S_IDE,50433132-3853-45f4-9944-452e6b696361,rev?*
G04 #@! TF.SameCoordinates,Original*
G04 #@! TF.FileFunction,Copper,L2,Bot*
G04 #@! TF.FilePolarity,Positive*
%FSLAX46Y46*%
G04 Gerber Fmt 4.6, Leading zero omitted, Abs format (unit mm)*
G04 Created by KiCad (PCBNEW (6.0.6)) date 2022-08-31 17:59:28*
%MOMM*%
%LPD*%
G01*
G04 APERTURE LIST*
G04 Aperture macros list*
%AMRoundRect*
0 Rectangle with rounded corners*
0 $1 Rounding radius*
0 $2 $3 $4 $5 $6 $7 $8 $9 X,Y pos of 4 corners*
0 Add a 4 corners polygon primitive as box body*
4,1,4,$2,$3,$4,$5,$6,$7,$8,$9,$2,$3,0*
0 Add four circle primitives for the rounded corners*
1,1,$1+$1,$2,$3*
1,1,$1+$1,$4,$5*
1,1,$1+$1,$6,$7*
1,1,$1+$1,$8,$9*
0 Add four rect primitives between the rounded corners*
20,1,$1+$1,$2,$3,$4,$5,0*
20,1,$1+$1,$4,$5,$6,$7,0*
20,1,$1+$1,$6,$7,$8,$9,0*
20,1,$1+$1,$8,$9,$2,$3,0*%
G04 Aperture macros list end*
G04 #@! TA.AperFunction,ComponentPad*
%ADD10RoundRect,0.250000X0.600000X-0.600000X0.600000X0.600000X-0.600000X0.600000X-0.600000X-0.600000X0*%
G04 #@! TD*
G04 #@! TA.AperFunction,ComponentPad*
%ADD11C,1.700000*%
G04 #@! TD*
G04 #@! TA.AperFunction,ComponentPad*
%ADD12R,1.800000X1.800000*%
G04 #@! TD*
G04 #@! TA.AperFunction,ComponentPad*
%ADD13C,1.800000*%
G04 #@! TD*
G04 #@! TA.AperFunction,ComponentPad*
%ADD14R,1.700000X1.700000*%
G04 #@! TD*
G04 #@! TA.AperFunction,ComponentPad*
%ADD15O,1.700000X1.700000*%
G04 #@! TD*
G04 #@! TA.AperFunction,ComponentPad*
%ADD16C,1.600000*%
G04 #@! TD*
G04 #@! TA.AperFunction,ComponentPad*
%ADD17O,1.600000X1.600000*%
G04 #@! TD*
G04 #@! TA.AperFunction,ComponentPad*
%ADD18R,1.600000X1.600000*%
G04 #@! TD*
G04 #@! TA.AperFunction,ViaPad*
%ADD19C,0.800000*%
G04 #@! TD*
G04 #@! TA.AperFunction,Conductor*
%ADD20C,0.250000*%
G04 #@! TD*
G04 APERTURE END LIST*
D10*
X169545000Y-118227500D03*
D11*
X169545000Y-115687500D03*
X172085000Y-118227500D03*
X172085000Y-115687500D03*
X174625000Y-118227500D03*
X174625000Y-115687500D03*
X177165000Y-118227500D03*
X177165000Y-115687500D03*
X179705000Y-118227500D03*
X179705000Y-115687500D03*
X182245000Y-118227500D03*
X182245000Y-115687500D03*
X184785000Y-118227500D03*
X184785000Y-115687500D03*
X187325000Y-118227500D03*
X187325000Y-115687500D03*
X189865000Y-118227500D03*
X189865000Y-115687500D03*
X192405000Y-118227500D03*
X192405000Y-115687500D03*
X194945000Y-118227500D03*
X194945000Y-115687500D03*
X197485000Y-118227500D03*
X197485000Y-115687500D03*
X200025000Y-118227500D03*
X200025000Y-115687500D03*
X202565000Y-118227500D03*
X202565000Y-115687500D03*
X205105000Y-118227500D03*
X205105000Y-115687500D03*
X207645000Y-118227500D03*
X207645000Y-115687500D03*
X210185000Y-118227500D03*
X210185000Y-115687500D03*
D12*
X166370000Y-101600000D03*
D13*
X168910000Y-101600000D03*
D12*
X166365000Y-107950000D03*
D13*
X168905000Y-107950000D03*
D14*
X213995000Y-100965000D03*
D15*
X213995000Y-103505000D03*
D16*
X173355000Y-96520000D03*
D17*
X173355000Y-88900000D03*
D14*
X213970000Y-92055000D03*
D15*
X213970000Y-89515000D03*
D18*
X192400000Y-95875000D03*
D17*
X194940000Y-95875000D03*
X197480000Y-95875000D03*
X200020000Y-95875000D03*
X202560000Y-95875000D03*
X205100000Y-95875000D03*
X207640000Y-95875000D03*
X207640000Y-88255000D03*
X205100000Y-88255000D03*
X202560000Y-88255000D03*
X200020000Y-88255000D03*
X197480000Y-88255000D03*
X194940000Y-88255000D03*
X192400000Y-88255000D03*
D16*
X187960000Y-94575000D03*
X187960000Y-89575000D03*
X168275000Y-88900000D03*
D17*
X168275000Y-96520000D03*
D18*
X189880000Y-109210000D03*
D17*
X192420000Y-109210000D03*
X194960000Y-109210000D03*
X197500000Y-109210000D03*
X200040000Y-109210000D03*
X202580000Y-109210000D03*
X205120000Y-109210000D03*
X207660000Y-109210000D03*
X207660000Y-101590000D03*
X205120000Y-101590000D03*
X202580000Y-101590000D03*
X200040000Y-101590000D03*
X197500000Y-101590000D03*
X194960000Y-101590000D03*
X192420000Y-101590000D03*
X189880000Y-101590000D03*
D16*
X184785000Y-107910000D03*
X184785000Y-102910000D03*
D14*
X164470000Y-81920000D03*
D15*
X164470000Y-79380000D03*
X167010000Y-81920000D03*
X167010000Y-79380000D03*
X169550000Y-81920000D03*
X169550000Y-79380000D03*
X172090000Y-81920000D03*
X172090000Y-79380000D03*
X174630000Y-81920000D03*
X174630000Y-79380000D03*
X177170000Y-81920000D03*
X177170000Y-79380000D03*
X179710000Y-81920000D03*
X179710000Y-79380000D03*
X182250000Y-81920000D03*
X182250000Y-79380000D03*
X184790000Y-81920000D03*
X184790000Y-79380000D03*
X187330000Y-81920000D03*
X187330000Y-79380000D03*
X189870000Y-81920000D03*
X189870000Y-79380000D03*
X192410000Y-81920000D03*
X192410000Y-79380000D03*
X194950000Y-81920000D03*
X194950000Y-79380000D03*
X197490000Y-81920000D03*
X197490000Y-79380000D03*
X200030000Y-81920000D03*
X200030000Y-79380000D03*
X202570000Y-81920000D03*
X202570000Y-79380000D03*
X205110000Y-81920000D03*
X205110000Y-79380000D03*
X207650000Y-81920000D03*
X207650000Y-79380000D03*
X210190000Y-81920000D03*
X210190000Y-79380000D03*
X212730000Y-81920000D03*
X212730000Y-79380000D03*
D16*
X173355000Y-101600000D03*
D17*
X173355000Y-109220000D03*
D16*
X178435000Y-96520000D03*
D17*
X178435000Y-88900000D03*
D16*
X178435000Y-101600000D03*
D17*
X178435000Y-109220000D03*
D19*
X184358100Y-88898100D03*
X208793000Y-108338700D03*
D20*
X191274900Y-98125200D02*
X192400000Y-97000100D01*
X191274900Y-106939800D02*
X191274900Y-98125200D01*
X192420000Y-108084900D02*
X191274900Y-106939800D01*
X192420000Y-109210000D02*
X192420000Y-108084900D01*
X192400000Y-95875000D02*
X192400000Y-97000100D01*
X200020000Y-88255000D02*
X202560000Y-88255000D01*
X178435000Y-88900000D02*
X178435000Y-90025100D01*
X189880000Y-109210000D02*
X188754900Y-109210000D01*
X180010200Y-91600300D02*
X178435000Y-90025100D01*
X180010200Y-100465300D02*
X180010200Y-91600300D01*
X188754900Y-109210000D02*
X180010200Y-100465300D01*
X184358100Y-88607000D02*
X189870000Y-83095100D01*
X184358100Y-88898100D02*
X184358100Y-88607000D01*
X189870000Y-81920000D02*
X189870000Y-83095100D01*
X213602700Y-90879900D02*
X213970000Y-90879900D01*
X212794900Y-90072100D02*
X213602700Y-90879900D01*
X212794900Y-86970100D02*
X212794900Y-90072100D01*
X208920000Y-83095200D02*
X212794900Y-86970100D01*
X208920000Y-78914100D02*
X208920000Y-83095200D01*
X208210800Y-78204900D02*
X208920000Y-78914100D01*
X189312900Y-78204900D02*
X208210800Y-78204900D01*
X188505100Y-79012700D02*
X189312900Y-78204900D01*
X188505100Y-79380000D02*
X188505100Y-79012700D01*
X187330000Y-79380000D02*
X188505100Y-79380000D01*
X213970000Y-92055000D02*
X213970000Y-90879900D01*
X203974900Y-88021900D02*
X203974900Y-88255000D01*
X203066600Y-87113600D02*
X203974900Y-88021900D01*
X196925200Y-87113600D02*
X203066600Y-87113600D01*
X196065100Y-87973700D02*
X196925200Y-87113600D01*
X196065100Y-88255000D02*
X196065100Y-87973700D01*
X194940000Y-88255000D02*
X196065100Y-88255000D01*
X205100000Y-88255000D02*
X203974900Y-88255000D01*
X194950000Y-81920000D02*
X196125100Y-81920000D01*
X207660000Y-101590000D02*
X207660000Y-100464900D01*
X206470200Y-99275100D02*
X207660000Y-100464900D01*
X206470200Y-88031200D02*
X206470200Y-99275100D01*
X202512100Y-84073100D02*
X206470200Y-88031200D01*
X197910900Y-84073100D02*
X202512100Y-84073100D01*
X196125100Y-82287300D02*
X197910900Y-84073100D01*
X196125100Y-81920000D02*
X196125100Y-82287300D01*
X198750000Y-96634900D02*
X202580000Y-100464900D01*
X198750000Y-93736700D02*
X198750000Y-96634900D01*
X193585100Y-88571800D02*
X198750000Y-93736700D01*
X193585100Y-84270200D02*
X193585100Y-88571800D01*
X192410000Y-83095100D02*
X193585100Y-84270200D01*
X192410000Y-81920000D02*
X192410000Y-83095100D01*
X202580000Y-101590000D02*
X202580000Y-100464900D01*
X203974900Y-95641900D02*
X203974900Y-95875000D01*
X197713100Y-89380100D02*
X203974900Y-95641900D01*
X197480000Y-89380100D02*
X197713100Y-89380100D01*
X197480000Y-88255000D02*
X197480000Y-89380100D01*
X205100000Y-95875000D02*
X203974900Y-95875000D01*
X164470000Y-81920000D02*
X165645100Y-81920000D01*
X184785000Y-112491500D02*
X184785000Y-115687500D01*
X175384700Y-103091200D02*
X184785000Y-112491500D01*
X175384700Y-88337000D02*
X175384700Y-103091200D01*
X173360000Y-86312300D02*
X175384700Y-88337000D01*
X173360000Y-81489100D02*
X173360000Y-86312300D01*
X172615700Y-80744800D02*
X173360000Y-81489100D01*
X166453100Y-80744800D02*
X172615700Y-80744800D01*
X165645100Y-81552800D02*
X166453100Y-80744800D01*
X165645100Y-81920000D02*
X165645100Y-81552800D01*
X177170000Y-81920000D02*
X177170000Y-83095100D01*
X193720400Y-119452100D02*
X194945000Y-118227500D01*
X191965600Y-119452100D02*
X193720400Y-119452100D01*
X191135000Y-118621500D02*
X191965600Y-119452100D01*
X191135000Y-117796500D02*
X191135000Y-118621500D01*
X190390800Y-117052300D02*
X191135000Y-117796500D01*
X189528900Y-117052300D02*
X190390800Y-117052300D01*
X188689800Y-116213200D02*
X189528900Y-117052300D01*
X188689800Y-115123100D02*
X188689800Y-116213200D01*
X176382300Y-102815600D02*
X188689800Y-115123100D01*
X176382300Y-83882800D02*
X176382300Y-102815600D01*
X177170000Y-83095100D02*
X176382300Y-83882800D01*
X174630000Y-81920000D02*
X174630000Y-83095100D01*
X196135600Y-116878100D02*
X194945000Y-115687500D01*
X196135600Y-118703500D02*
X196135600Y-116878100D01*
X194936800Y-119902300D02*
X196135600Y-118703500D01*
X189818700Y-119902300D02*
X194936800Y-119902300D01*
X188595000Y-118678600D02*
X189818700Y-119902300D01*
X188595000Y-117747500D02*
X188595000Y-118678600D01*
X187822800Y-116975300D02*
X188595000Y-117747500D01*
X186911900Y-116975300D02*
X187822800Y-116975300D01*
X186149800Y-116213200D02*
X186911900Y-116975300D01*
X186149800Y-113219700D02*
X186149800Y-116213200D01*
X175834800Y-102904700D02*
X186149800Y-113219700D01*
X175834800Y-84299900D02*
X175834800Y-102904700D01*
X174630000Y-83095100D02*
X175834800Y-84299900D01*
X206390000Y-111892500D02*
X210185000Y-115687500D01*
X206390000Y-107150800D02*
X206390000Y-111892500D01*
X201310000Y-102070800D02*
X206390000Y-107150800D01*
X201310000Y-100830100D02*
X201310000Y-102070800D01*
X197480000Y-97000100D02*
X201310000Y-100830100D01*
X197480000Y-95875000D02*
X197480000Y-97000100D01*
X172090000Y-97291300D02*
X172090000Y-81920000D01*
X174934600Y-100135900D02*
X172090000Y-97291300D01*
X174934600Y-103914300D02*
X174934600Y-100135900D01*
X183609800Y-112589500D02*
X174934600Y-103914300D01*
X183609800Y-116213200D02*
X183609800Y-112589500D01*
X184371900Y-116975300D02*
X183609800Y-116213200D01*
X185224800Y-116975300D02*
X184371900Y-116975300D01*
X186055000Y-117805500D02*
X185224800Y-116975300D01*
X186055000Y-118698600D02*
X186055000Y-117805500D01*
X187716900Y-120360500D02*
X186055000Y-118698600D01*
X195352000Y-120360500D02*
X187716900Y-120360500D01*
X197485000Y-118227500D02*
X195352000Y-120360500D01*
X194960000Y-101590000D02*
X194960000Y-102715100D01*
X208841500Y-116884000D02*
X210185000Y-118227500D01*
X207089200Y-116884000D02*
X208841500Y-116884000D01*
X206375100Y-116169900D02*
X207089200Y-116884000D01*
X206375100Y-115251500D02*
X206375100Y-116169900D01*
X203460000Y-112336400D02*
X206375100Y-115251500D01*
X201551700Y-112336400D02*
X203460000Y-112336400D01*
X198681000Y-109465700D02*
X201551700Y-112336400D01*
X198681000Y-106436100D02*
X198681000Y-109465700D01*
X194960000Y-102715100D02*
X198681000Y-106436100D01*
X203850000Y-111892500D02*
X207645000Y-115687500D01*
X203850000Y-107068000D02*
X203850000Y-111892500D01*
X198770000Y-101988000D02*
X203850000Y-107068000D01*
X198770000Y-100830100D02*
X198770000Y-101988000D01*
X194940000Y-97000100D02*
X198770000Y-100830100D01*
X194940000Y-95875000D02*
X194940000Y-97000100D01*
X197441000Y-120811500D02*
X200025000Y-118227500D01*
X185697900Y-120811500D02*
X197441000Y-120811500D01*
X183515100Y-118628700D02*
X185697900Y-120811500D01*
X183515100Y-117805600D02*
X183515100Y-118628700D01*
X182684800Y-116975300D02*
X183515100Y-117805600D01*
X181831900Y-116975300D02*
X182684800Y-116975300D01*
X181069800Y-116213200D02*
X181831900Y-116975300D01*
X181069800Y-113628200D02*
X181069800Y-116213200D01*
X174484500Y-107042900D02*
X181069800Y-113628200D01*
X174484500Y-100322400D02*
X174484500Y-107042900D01*
X167010000Y-92847900D02*
X174484500Y-100322400D01*
X167010000Y-81920000D02*
X167010000Y-92847900D01*
X207650000Y-79380000D02*
X207650000Y-80555100D01*
X207282800Y-80555100D02*
X207650000Y-80555100D01*
X206459400Y-81378500D02*
X207282800Y-80555100D01*
X206459400Y-82711400D02*
X206459400Y-81378500D01*
X211752800Y-88004800D02*
X206459400Y-82711400D01*
X211752800Y-95403100D02*
X211752800Y-88004800D01*
X215172900Y-98823200D02*
X211752800Y-95403100D01*
X215172900Y-114901500D02*
X215172900Y-98823200D01*
X210670700Y-119403700D02*
X215172900Y-114901500D01*
X206281200Y-119403700D02*
X210670700Y-119403700D01*
X205105000Y-118227500D02*
X206281200Y-119403700D01*
X205110000Y-81920000D02*
X205110000Y-83095100D01*
X209243100Y-87228200D02*
X205110000Y-83095100D01*
X209243100Y-107888600D02*
X209243100Y-87228200D01*
X208793000Y-108338700D02*
X209243100Y-107888600D01*
X184790000Y-81920000D02*
X183614900Y-81920000D01*
X189865000Y-114621000D02*
X189865000Y-115687500D01*
X176832400Y-101588400D02*
X189865000Y-114621000D01*
X176832400Y-87176700D02*
X176832400Y-101588400D01*
X178534800Y-85474300D02*
X176832400Y-87176700D01*
X178534800Y-81430300D02*
X178534800Y-85474300D01*
X179220300Y-80744800D02*
X178534800Y-81430300D01*
X182806900Y-80744800D02*
X179220300Y-80744800D01*
X183614900Y-81552800D02*
X182806900Y-80744800D01*
X183614900Y-81920000D02*
X183614900Y-81552800D01*
X193595600Y-117036900D02*
X192405000Y-118227500D01*
X193595600Y-112658500D02*
X193595600Y-117036900D01*
X191005200Y-110068100D02*
X193595600Y-112658500D01*
X191005200Y-108206500D02*
X191005200Y-110068100D01*
X190480000Y-107681300D02*
X191005200Y-108206500D01*
X187936400Y-107681300D02*
X190480000Y-107681300D01*
X182250000Y-101994900D02*
X187936400Y-107681300D01*
X182250000Y-81920000D02*
X182250000Y-101994900D01*
X179710000Y-81920000D02*
X179710000Y-83095100D01*
X192405000Y-113819400D02*
X192405000Y-115687500D01*
X177282500Y-98696900D02*
X192405000Y-113819400D01*
X177282500Y-87363200D02*
X177282500Y-98696900D01*
X179710000Y-84935700D02*
X177282500Y-87363200D01*
X179710000Y-83095100D02*
X179710000Y-84935700D01*
X189880000Y-101590000D02*
X189880000Y-100464900D01*
X170185000Y-109220000D02*
X168910000Y-107945000D01*
X173355000Y-109220000D02*
X170185000Y-109220000D01*
X168905000Y-107950000D02*
X168910000Y-107945000D01*
X168910000Y-107945000D02*
X168910000Y-101600000D01*
X187960000Y-98544900D02*
X189880000Y-100464900D01*
X187960000Y-94575000D02*
X187960000Y-98544900D01*
X192400000Y-90135000D02*
X192400000Y-88255000D01*
X187960000Y-94575000D02*
X192400000Y-90135000D01*
X207660000Y-109210000D02*
X208785100Y-109210000D01*
X213995000Y-103505000D02*
X213995000Y-104680100D01*
X184785000Y-92750000D02*
X184785000Y-102910000D01*
X187960000Y-89575000D02*
X184785000Y-92750000D01*
X209465100Y-109210000D02*
X213995000Y-104680100D01*
X208785100Y-109210000D02*
X209465100Y-109210000D01*
X163288800Y-90408700D02*
X168275000Y-95394900D01*
X163288800Y-80928400D02*
X163288800Y-90408700D01*
X163662100Y-80555100D02*
X163288800Y-80928400D01*
X164470000Y-80555100D02*
X163662100Y-80555100D01*
X164470000Y-79380000D02*
X164470000Y-80555100D01*
X168275000Y-96520000D02*
X168275000Y-95394900D01*
X188505100Y-81554700D02*
X188505100Y-81920000D01*
X189504700Y-80555100D02*
X188505100Y-81554700D01*
X189870000Y-80555100D02*
X189504700Y-80555100D01*
X187330000Y-81920000D02*
X188505100Y-81920000D01*
X189870000Y-79380000D02*
X189870000Y-79967500D01*
X189870000Y-79967500D02*
X189870000Y-80555100D01*
X192410000Y-79380000D02*
X191234900Y-79380000D01*
X191234900Y-79380000D02*
X190258700Y-80356200D01*
X189870000Y-79967500D02*
X190258700Y-80356200D01*
X191063300Y-86471700D02*
X187960000Y-89575000D01*
X191063300Y-81160800D02*
X191063300Y-86471700D01*
X190258700Y-80356200D02*
X191063300Y-81160800D01*
X208793000Y-93596900D02*
X207640000Y-94749900D01*
X208793000Y-87783600D02*
X208793000Y-93596900D01*
X204473100Y-83463700D02*
X208793000Y-87783600D01*
X202380100Y-83463700D02*
X204473100Y-83463700D01*
X201205100Y-82288700D02*
X202380100Y-83463700D01*
X201205100Y-81362900D02*
X201205100Y-82288700D01*
X200397300Y-80555100D02*
X201205100Y-81362900D01*
X200030000Y-80555100D02*
X200397300Y-80555100D01*
X207640000Y-95875000D02*
X207640000Y-94749900D01*
X200030000Y-79380000D02*
X200030000Y-80442500D01*
X200030000Y-80442500D02*
X200030000Y-80555100D01*
X196125100Y-79745300D02*
X196125100Y-79380000D01*
X196934900Y-80555100D02*
X196125100Y-79745300D01*
X200030000Y-80555100D02*
X196934900Y-80555100D01*
X194950000Y-79380000D02*
X196125100Y-79380000D01*
M02*
